<svg id="Layer_1" data-name="Layer 1" xmlns="http://www.w3.org/2000/svg" viewBox="0 0 638.34 124.53"><path d="M272,122.1v-4.77q-.09-44.49-.19-89c0-1.58,0-3.16-.13-4.74-.35-6-4.11-9.77-9.95-10-6.1-.19-10.44,3.33-10.66,9.53-.42,11.42-.35,22.84-.48,34.26,0,1.44,0,2.87,0,4.53H235.08c-.23-.39-.47-.59-.46-.79,0-13-.28-26,.32-39C235.51,10,245,.65,257.4.06a49,49,0,0,1,16.83,2c8.46,2.72,12.63,9.49,13.35,18.26.26,3.14.31,6.31.33,9.47q.12,37.56.2,75.11V109h18.83V122.1Z"/><path d="M180.78,25.39V61.92h-16V1.55h16L209.4,37.88V1.58h16.1V61.94H209.57Z"/><path d="M553.52,97.09V61.79h15.83v60.33h-16L525.48,86.67l-.75.21v35.26H508.8V61.67h15.78l28.17,35.8Z"/><path d="M420.34,100.79H408.1v-12H439c1.62,14-4.84,30.78-23.13,34.79s-34.54-5.09-39.21-21.76c-4.85-17.33,3.44-35.08,19.24-40.25s33.31-1.05,40.1,15.26l-14.2,5.9c-2.44-2.58-4.32-5.43-6.94-7.17-6.62-4.4-15.63-1.7-19.75,5.47-4.38,7.62-3.91,17.45,1.15,24.06a15.38,15.38,0,0,0,18.09,4.69C418.11,108.15,420,105.47,420.34,100.79Z"/><path d="M155.24,1.3V62.7c-10.44-.53-20.94.08-30.94-1.86C109.87,58,100,42.58,101.86,28.44,104,12.71,116.61,1.35,132.13,1.31,139.67,1.29,147.22,1.3,155.24,1.3ZM139.12,14.61c-7.67-.25-14.27.89-18.17,7.73-3.74,6.55-3.64,13.31.6,19.62s10.48,7.23,17.57,6.63Z"/><path d="M18.53,25.76,0,1.6H19.91l13.8,21.21.73-.18V1.56H50.51V62.21c-3.78,0-7.52,0-11.25,0-5.6-.07-11.22,0-16.8-.37-9-.67-15.48-6.6-16.57-15.18C4.54,36,9.37,28.74,17.12,26.68A5.77,5.77,0,0,0,18.53,25.76Zm15.85,9.18c-4.4,0-8.87-.42-10.83,3.87a9.86,9.86,0,0,0,.27,7.72c2.11,3.92,6.39,3.56,10.56,3.32Z"/><path d="M498.41,61.73c0,14.42.58,28.53-.2,42.56-.56,10.18-10.91,18.65-22.07,19.39a51.08,51.08,0,0,1-13.07-.71c-10.28-2-16.91-9.8-17.19-20.26-.34-13-.25-26-.33-39a15.76,15.76,0,0,1,.29-2h15.62c.06,1.41.17,2.7.18,4,0,11.18,0,22.37.14,33.55.1,6.7,3.8,10.54,9.87,10.76,6.4.23,10.56-3.35,10.8-10.15.41-11.17.36-22.35.5-33.53,0-1.44,0-2.88,0-4.59Z"/><path d="M334.33,61.59h17.48c7.61,20.12,15.21,40.24,22.92,60.62H357.68q-1.86-4.83-3.88-10H331.93l-4.08,10H311C318.76,102,326.5,81.91,334.33,61.59ZM343,80.76c-2.31,6.76-4.33,12.64-6.42,18.74h12.81C347.23,93.32,345.24,87.46,343,80.76Z"/><path d="M638.34,122.21H621.28l-3.87-10H595.53c-1.31,3.24-2.67,6.57-4.07,10h-16.9l23.34-60.5h17.55ZM613,99.55c-2.1-6.18-4.09-12.06-6.38-18.81-2.33,6.79-4.35,12.72-6.44,18.81Z"/><path d="M95.06,62H60.76V48.84H79V38.6H61.66V25.44H79V14.57H60.75V1.5H95.06Z"/></svg>