<?xml version="1.0" encoding="UTF-8"?>
<!-- Generator: Adobe Illustrator 26.1.0, SVG Export Plug-In . SVG Version: 6.00 Build 0)  -->
<svg version="1.1" id="Capa_1" xmlns="http://www.w3.org/2000/svg" xmlns:xlink="http://www.w3.org/1999/xlink" x="0px" y="0px" viewBox="0 0 512 512" style="enable-background:new 0 0 512 512;" xml:space="preserve">
<style type="text/css">
	.st0{fill:#FFFFFF;}
</style>
<g id="Capa_2_00000165955548986989022260000017285473289692804763_">
	<circle class="st0" cx="256" cy="256" r="255.7"/>
</g>
<g transform="translate(0.000000,313.000000) scale(0.100000,-0.100000)">
	<path d="M2410.9,1453.4V1347h-42.5h-42.5v-54.7v-54.7h42.5h42.5V973.3V709h60.8h60.8v264.3v264.3h51.7h51.7v54.7v54.7h-51.7h-51.7   v106.3v106.3h-60.8h-60.8V1453.4z"/>
	<path d="M1090.4,1355.5c-94.2-22.5-177.4-89.9-218.2-176.2c-64.4-136.7-37.1-294.1,67.5-393.2c51-48,104.5-74.7,172.6-87.5   c108.8-18.8,215.1,14.6,266.2,84.5l17.6,24.9v-49.2V709h60.8h60.8v319v319h-60.8h-60.8v-43.1v-43.8l-23.7,26.7   C1314,1353.1,1197.4,1381.7,1090.4,1355.5z M1276.4,1232.8c46.2-23.1,78.4-55.9,100.9-103.9c14-30.4,15.8-41.3,15.8-100.9   c0-79-9.7-106.3-55.3-155c-64.4-68.7-171.4-88.7-255.2-48c-38.9,18.2-80.8,63.2-102.1,108.8c-17,35.9-18.8,45-18.8,97.2   c0,49.8,2.4,62.6,16.4,92.4c28.6,62,85.7,111.2,147.1,127c10.3,3,40.1,4.3,65.6,3C1228.4,1252.2,1244.8,1248,1276.4,1232.8z"/>
	<path d="M1884,1356.1c-137.3-37.1-231.5-155-242.5-302C1630,898.6,1721.2,757,1864,708.4c55.3-18.8,144.6-19.4,203.6-1.2   c83.3,26.1,158,89.9,196.3,167.1c10.9,21.9,19.4,41.3,19.4,43.8c0,1.8-29.8,3.6-66.2,3.6h-66.2l-15.8-26.7   c-19.4-33.4-46.2-55.9-88.1-75.4c-26.1-12.2-41.9-14.6-80.8-14.6c-41.9,0-54.1,3-86.9,18.8c-45.6,22.5-71.1,49.8-96.6,103.9   c-17.6,36.5-18.8,44.4-18.8,103.3c0,58.9,1.2,66.8,18.8,103.3c10.3,21.9,29.2,50.4,41.9,63.2c48.6,49.2,134.9,70.5,204.8,49.8   c38.9-10.9,87.5-51,109.4-89.3l13.4-23.7h66.2c65.6,0,65.6,0,62,14c-26.7,91.8-124,179.9-231.5,207.8   C2005,1367.7,1926.6,1367.1,1884,1356.1z"/>
	<path d="M2943.2,1355.5c-108.8-26.1-205.4-114.2-241.2-219.4c-20.7-60.8-20.1-151.9,1.8-212.7c49.2-137.9,177.4-229.1,323.9-229.1   c30.4,0,69.9,3.6,88.1,7.9c110.6,27.3,207.2,116.1,243.7,223.6c20.1,58.3,20.1,151.9,0,210.3c-47.4,137.9-180.5,229.7-331.8,228.5   C3000.9,1364.6,2963.3,1360.4,2943.2,1355.5z M3124.3,1235.8c43.1-20.1,91.2-68.1,111.8-112.4c14-29.8,16.4-42.5,16.4-92.4   c0-53.5-1.8-61.4-20.1-98.4c-40.1-81.4-113-127.6-201.7-127.6c-88.7,0-161.6,46.2-201.7,127.6c-18.8,37.7-20.1,45-19.4,98.4   c0,63.2,8.5,89.9,44.4,137.9c23.1,31.6,76,68.1,114.8,79C3011.9,1260.1,3083.6,1254.7,3124.3,1235.8z"/>
	<path d="M3715.6,1358.6c-32.8-7.9-58.9-21.9-84.5-46.8l-23.1-21.9v28.6v28.6h-54.7h-54.7v-319V709h60.8h60.8v202.4   c0,225.4,3,247.3,37.7,283.2c24.3,24.9,44.4,35.2,83.9,43.8l30.4,6.7v60.2v60.2l-16.4-0.6C3745.9,1364,3728.3,1361.6,3715.6,1358.6   z"/>
	<path d="M3998.7,1354.3c-87.5-31-129.4-89.9-129.4-179.9c0-34.6,3-50.4,15.8-75.4c27.3-54.7,50.4-69.9,185.9-119.1   c45-16.4,76.6-42.5,83.3-69.3c18.2-66.8-41.3-119.7-116.1-103.9c-34.6,7.9-61.4,35.2-72.3,73.5c-3.6,14.6-7.9,29.8-9.1,34   c-1.2,4.9-18.8,7.3-60.8,7.3h-58.9l3.6-35.9c4.3-46.8,21.3-84.5,56.5-122.1c66.8-71.7,185.9-91.2,275.9-45.6   c38.3,19.4,81.4,68.7,94.2,106.9c14.6,42.5,10.3,126.4-7.3,161c-26.1,49.2-80.2,86.9-172,118.5c-71.7,24.3-88.7,35.9-97.8,65.6   c-18.8,62.6,59.6,110.6,116.7,71.7c13.4-9.1,23.7-23.1,29.8-39.5l8.5-25.5h60.2h60.2l-4.3,29.2c-8.5,60.2-45,110-102.1,139.2   C4116.6,1366.5,4044.9,1370.7,3998.7,1354.3z"/>
	<path d="M859.5,492.6c-89.3-21.3-173.8-86.9-213.9-166.5c-28-55.3-34.6-91.8-32.2-178.7l1.8-80.8L640.7,15   C688.1-80.4,775-144.8,881.4-164.2c108.8-18.8,215.1,14.6,266.2,84.5l17.6,24.9v-49.2v-49.8h60.8h60.8v319v319h-60.8h-60.8V441   v-43.8l-23.7,26.7C1083.1,490.2,966.5,518.8,859.5,492.6z M1045.5,369.9c46.2-23.1,78.4-55.9,100.9-103.9   c14-30.4,15.8-41.3,15.8-100.9c0-79-9.7-106.3-55.3-155c-64.4-68.7-171.4-88.7-255.2-48c-38.9,18.2-80.8,63.2-102.1,108.8   c-17,35.9-18.8,45-18.8,97.2c0,49.8,2.4,62.6,16.4,92.4c28.6,62,85.7,111.2,147.1,127c10.3,3,40.1,4.3,65.6,3   C997.5,389.3,1013.9,385.1,1045.5,369.9z"/>
	<path d="M1653.1,493.2c-137.3-37.1-231.5-155-242.5-302c-11.5-155.6,79.6-297.2,222.4-345.8c55.3-18.8,144.6-19.4,203.6-1.2   c83.3,26.1,158,89.9,196.3,167.1c10.9,21.9,19.4,41.3,19.4,43.8c0,1.8-29.8,3.6-66.2,3.6h-66.2L1904.1,32   c-19.4-33.4-46.2-55.9-88.1-75.4c-26.1-12.2-41.9-14.6-80.8-14.6c-41.9,0-54.1,3-86.9,18.8c-45.6,22.5-71.1,49.8-96.6,103.9   c-17.6,36.5-18.8,44.4-18.8,103.3s1.2,66.8,18.8,103.3c10.3,21.9,29.2,50.4,41.9,63.2c48.6,49.2,134.9,70.5,204.8,49.8   c38.9-10.9,87.5-51,109.4-89.3l13.4-23.7h66.2c65.6,0,65.6,0,62,14c-26.7,91.8-124,179.9-231.5,207.8   C1774.1,504.8,1695.7,504.2,1653.1,493.2z"/>
	<path d="M2376.3,493.2c-137.3-37.1-231.5-155-242.5-302c-11.5-155.6,79.6-297.2,222.4-345.8c55.3-18.8,144.6-19.4,203.6-1.2   c83.3,26.1,158,89.9,196.3,167.1c10.9,21.9,19.4,41.3,19.4,43.8c0,1.8-29.8,3.6-66.2,3.6H2643L2627.2,32   c-19.4-33.4-46.2-55.9-88.1-75.4c-26.1-12.2-41.9-14.6-80.8-14.6c-41.9,0-54.1,3-86.9,18.8c-45.6,22.5-71.1,49.8-96.6,103.9   c-17.6,36.5-18.8,44.4-18.8,103.3s1.2,66.8,18.8,103.3c10.3,21.9,29.2,50.4,41.9,63.2c48.6,49.2,134.9,70.5,204.8,49.8   c38.9-10.9,87.5-51,109.4-89.3l13.4-23.7h66.2c65.6,0,65.6,0,62,14c-26.7,91.8-124,179.9-231.5,207.8   C2497.2,504.8,2418.8,504.2,2376.3,493.2z"/>
	<path d="M3101.2,492.6c-102.1-24.9-195.1-114.8-229.1-220.6c-18.2-55.9-18.2-151.9,0-207.8c35.9-113,134.3-203.6,246.7-227.3   c53.5-10.9,74.1-10.9,127.6,0c58.9,12.8,112.4,40.7,156.8,82c35.2,32.8,83.3,102.1,83.3,119.7c0,6.1-15.8,7.9-60.2,7.9   c-54.1,0-60.8-1.2-64.4-11.5c-4.9-15.8-51-57.7-80.2-72.3c-54.1-28-131.3-28.6-186.6-1.2c-45.6,21.9-88.1,69.9-107.6,120.9   l-11.5,31l266.2,1.2l265.6,1.8l1.8,46.8c3.6,93.6-28,173.2-96,242.5C3332.1,488.4,3216.7,520.6,3101.2,492.6z M3268.9,373.5   c62-28.6,108.2-85.1,117.9-143.4l4.3-25.5h-207.8c-113.6,0-207.2,2.4-207.2,4.9c0,16.4,20.7,69.9,36.5,93.6   c21.3,31.6,70.5,68.1,110,81.4C3162.6,397.2,3227.6,392.4,3268.9,373.5z"/>
	<path d="M3737.4,491.4c-87.5-31-129.4-89.9-129.4-179.9c0-34.6,3-50.4,15.8-75.4c27.3-54.7,50.4-69.9,185.9-119.1   c45-16.4,76.6-42.5,83.3-69.3c18.2-66.8-41.3-119.7-116.1-103.9c-34.6,7.9-61.4,35.2-72.3,73.5c-3.6,14.6-7.9,29.8-9.1,34   c-1.2,4.9-18.8,7.3-60.8,7.3h-58.9l3.6-35.9c4.3-46.8,21.3-84.5,56.5-122.1c66.8-71.7,185.9-91.2,275.9-45.6   c38.3,19.4,81.4,68.7,94.2,106.9c14.6,42.5,10.3,126.4-7.3,161c-26.1,49.2-80.2,86.9-172,118.5c-71.7,24.3-88.7,35.9-97.8,65.6   c-18.8,62.6,59.6,110.6,116.7,71.7c13.4-9.1,23.7-23.1,29.8-39.5l8.5-25.5h60.2h60.2l-4.3,29.2c-8.5,60.2-45,110-102.1,139.2   C3855.3,503.6,3783.6,507.8,3737.4,491.4z"/>
	<path d="M4229.7,491.4c-87.5-31-129.4-89.9-129.4-179.9c0-34.6,3-50.4,15.8-75.4c27.3-54.7,50.4-69.9,185.9-119.1   c45-16.4,76.6-42.5,83.3-69.3c18.2-66.8-41.3-119.7-116.1-103.9c-34.6,7.9-61.4,35.2-72.3,73.5c-3.6,14.6-7.9,29.8-9.1,34   c-1.2,4.9-18.8,7.3-60.8,7.3H4068l3.6-35.9c4.3-46.8,21.3-84.5,56.5-122.1c66.8-71.7,185.9-91.2,275.9-45.6   c38.3,19.4,81.4,68.7,94.2,106.9c14.6,42.5,10.3,126.4-7.3,161c-26.1,49.2-80.2,86.9-172,118.5c-71.7,24.3-88.7,35.9-97.8,65.6   c-18.8,62.6,59.6,110.6,116.7,71.7c13.4-9.1,23.7-23.1,29.8-39.5l8.5-25.5h60.2h60.2l-4.3,29.2c-8.5,60.2-45,110-102.1,139.2   C4347.5,503.6,4275.8,507.8,4229.7,491.4z"/>
</g>
</svg>