<?xml version="1.0" encoding="UTF-8" standalone="no"?>
<svg
   version="1.2"
   width="160"
   height="160"
   viewBox="0 0 4233.3334 4233.3334"
   preserveAspectRatio="xMidYMid"
   fill-rule="evenodd"
   stroke-width="28.222"
   stroke-linejoin="round"
   xml:space="preserve"
   id="svg10436"
   xmlns="http://www.w3.org/2000/svg"
   xmlns:svg="http://www.w3.org/2000/svg">
 <defs
   class="ClipPathGroup"
   id="defs10374"><clipPath
     id="presentation_clip_path"
     clipPathUnits="userSpaceOnUse">
   <rect
   x="0"
   y="0"
   width="4260"
   height="4260"
   id="rect10368" />
  </clipPath></defs>
 <defs
   class="TextShapeIndex"
   id="defs10378" />
 <defs
   class="EmbeddedBulletChars"
   id="defs10410" />
 
 <g
   class="SlideGroup"
   id="g10434">
  <g
   id="g10432">
   <g
   id="container-id1">
    <g
   id="id1"
   class="Slide"
   clip-path="url(#presentation_clip_path)">
     <g
   class="Page"
   id="g10428">
      <g
   class="Graphic"
   id="g10426">
       <g
   id="id3">
        <rect
   class="BoundingBox"
   stroke="none"
   fill="none"
   x="-511"
   y="-511"
   width="5284"
   height="5284"
   id="rect10417" />
        <path
   fill="#4b4b4b"
   stroke="none"
   d="M 2131,-2 C 953,-2 -2,953 -2,2131 -2,3308 953,4263 2131,4263 3308,4263 4263,3308 4263,2131 4263,953 3308,-2 2131,-2 Z m 0,328 c 996,0 1804,808 1804,1805 0,996 -808,1804 -1804,1804 C 1134,3935 326,3127 326,2131 326,1134 1134,326 2131,326 Z"
   id="path10419" />
        <path
   fill="#4b4b4b"
   stroke="none"
   d="m 2409,1372 c -32,56 -79,102 -135,135 -56,32 -120,49 -185,49 -64,0 -128,-17 -184,-49 -56,-33 -103,-79 -135,-135 -33,-56 -50,-120 -50,-185 0,-65 17,-128 50,-184 32,-57 79,-103 135,-136 56,-32 120,-49 184,-49 65,0 129,17 185,49 56,33 103,79 135,136 33,56 50,119 50,184 0,65 -17,129 -50,185 z"
   id="path10421" />
        <path
   fill="#4b4b4b"
   stroke="none"
   d="m 2480,3146 c -2,90 40,115 142,126 l 165,3 v 168 H 1505 v -168 l 180,-3 c 108,-4 134,-46 142,-126 V 2135 c 1,-160 -206,-135 -353,-130 v -166 l 1006,-37 z"
   id="path10423" />
       </g>
      </g>
     </g>
    </g>
   </g>
  </g>
 </g>
</svg>
