<?xml version="1.0" encoding="UTF-8" standalone="no"?>
<!-- Uploaded to: SVG Repo, www.svgrepo.com, Generator: SVG Repo Mixer Tools -->

<svg
   fill="#000000"
   height="799.99835"
   width="651.30957"
   version="1.1"
   id="Capa_1"
   viewBox="0 0 392.52799 482.13901"
   xml:space="preserve"
   sodipodi:docname="dane-hobrecht-icon-002.svg"
   xmlns:inkscape="http://www.inkscape.org/namespaces/inkscape"
   xmlns:sodipodi="http://sodipodi.sourceforge.net/DTD/sodipodi-0.dtd"
   xmlns="http://www.w3.org/2000/svg"
   xmlns:svg="http://www.w3.org/2000/svg"><defs
   id="defs3" /><sodipodi:namedview
   id="namedview3"
   pagecolor="#ffffff"
   bordercolor="#000000"
   borderopacity="0.25"
   inkscape:showpageshadow="2"
   inkscape:pageopacity="0.0"
   inkscape:pagecheckerboard="0"
   inkscape:deskcolor="#d1d1d1" />&#10;<g
   id="g3"
   style="fill:#ffffff"
   transform="translate(-44.806)">&#10;	<path
   d="m 142.024,310.194 c 0,-8.007 -5.556,-12.782 -15.359,-12.782 -4.003,0 -6.714,0.395 -8.132,0.773 v 25.69 c 1.679,0.378 3.743,0.504 6.588,0.504 10.449,0 16.903,-5.279 16.903,-14.185 z"
   id="path1"
   style="fill:#ffffff" />&#10;	<path
   d="m 202.709,297.681 c -4.39,0 -7.227,0.379 -8.905,0.772 v 56.896 c 1.679,0.394 4.39,0.394 6.841,0.394 17.809,0.126 29.424,-9.677 29.424,-30.449 0.126,-18.063 -10.458,-27.613 -27.36,-27.613 z"
   id="path2"
   style="fill:#ffffff" />&#10;	<path
   d="M 315.458,0 H 121.811 C 93.521,0 70.496,23.041 70.496,51.315 v 189.754 h -5.012 c -11.418,0 -20.678,9.251 -20.678,20.679 v 125.404 c 0,11.427 9.259,20.677 20.678,20.677 h 5.012 v 22.995 c 0,28.305 23.025,51.315 51.315,51.315 h 264.223 c 28.272,0 51.3,-23.011 51.3,-51.315 V 121.449 Z M 99.053,284.379 c 6.06,-1.024 14.578,-1.796 26.579,-1.796 12.128,0 20.772,2.315 26.58,6.965 5.548,4.382 9.292,11.615 9.292,20.127 0,8.51 -2.837,15.745 -7.999,20.646 -6.714,6.32 -16.643,9.157 -28.258,9.157 -2.585,0 -4.902,-0.128 -6.714,-0.379 v 31.096 H 99.053 Z M 386.034,450.713 H 121.811 c -10.954,0 -19.874,-8.92 -19.874,-19.889 v -22.995 h 246.31 c 11.42,0 20.679,-9.25 20.679,-20.677 V 261.748 c 0,-11.428 -9.259,-20.679 -20.679,-20.679 H 101.937 V 51.315 c 0,-10.938 8.921,-19.858 19.874,-19.858 l 181.89,-0.19 V 98.5 c 0,19.638 15.934,35.587 35.587,35.587 l 65.862,-0.189 0.741,296.925 c 0,10.97 -8.904,19.89 -19.857,19.89 z M 174.065,369.801 v -85.422 c 7.225,-1.15 16.642,-1.796 26.58,-1.796 16.516,0 27.226,2.963 35.618,9.282 9.031,6.714 14.704,17.416 14.704,32.781 0,16.643 -6.06,28.133 -14.453,35.224 -9.157,7.612 -23.096,11.222 -40.125,11.222 -10.198,0 -17.423,-0.646 -22.324,-1.291 z m 140.827,-50.575 v 15.996 h -31.23 v 34.973 h -19.74 v -86.966 h 53.16 v 16.122 h -33.42 v 19.875 z"
   id="path3"
   style="fill:#ffffff" />&#10;</g>&#10;</svg>
