<?xml version="1.0" encoding="UTF-8" standalone="no"?>
<svg
   version="1.2"
   width="161.00787"
   height="161.00787"
   viewBox="0 0 4260.0001 4260.0001"
   preserveAspectRatio="xMidYMid"
   fill-rule="evenodd"
   stroke-width="28.222"
   stroke-linejoin="round"
   xml:space="preserve"
   id="svg70"
   sodipodi:docname="dane-hobrecht-icon-002.svg"
   inkscape:export-filename="DaneHobrechtIcon(002).svg"
   inkscape:export-xdpi="96"
   inkscape:export-ydpi="96"
   xmlns:inkscape="http://www.inkscape.org/namespaces/inkscape"
   xmlns:sodipodi="http://sodipodi.sourceforge.net/DTD/sodipodi-0.dtd"
   xmlns="http://www.w3.org/2000/svg"
   xmlns:svg="http://www.w3.org/2000/svg"><sodipodi:namedview
   id="namedview72"
   pagecolor="#ffffff"
   bordercolor="#000000"
   borderopacity="0.25"
   inkscape:showpageshadow="2"
   inkscape:pageopacity="0.0"
   inkscape:pagecheckerboard="0"
   inkscape:deskcolor="#d1d1d1"
   inkscape:document-units="mm"
   showgrid="false" />
 <defs
   class="ClipPathGroup"
   id="defs8"><clipPath
     id="presentation_clip_path"
     clipPathUnits="userSpaceOnUse">
   <rect
   x="0"
   y="0"
   width="4260"
   height="4260"
   id="rect2" />
  </clipPath></defs>
 <defs
   class="TextShapeIndex"
   id="defs12" />
 <defs
   class="EmbeddedBulletChars"
   id="defs44" />
 
 <g
   class="SlideGroup"
   id="g68"
   style="display:inline;fill:#ffffff">
  <g
   id="g66"
   style="display:inline;fill:#ffffff">
   <g
   id="container-id1"
   style="fill:#ffffff">
    <g
   id="id1"
   class="Slide"
   clip-path="url(#presentation_clip_path)"
   style="fill:#ffffff">
     <g
   class="Page"
   id="g62"
   style="display:inline;fill:#ffffff">
      <g
   class="Graphic"
   id="g60"
   style="fill:#ffffff">
       <g
   id="id3"
   style="display:inline;fill:#ffffff">
        
        <path
   fill="#4b4b4b"
   stroke="none"
   d="M 2131,-2 C 953,-2 -2,953 -2,2131 -2,3308 953,4263 2131,4263 3308,4263 4263,3308 4263,2131 4263,953 3308,-2 2131,-2 Z m 0,328 c 996,0 1804,808 1804,1805 0,996 -808,1804 -1804,1804 C 1134,3935 326,3127 326,2131 326,1134 1134,326 2131,326 Z"
   id="path53"
   style="display:inline;fill:#ffffff" />
        
        
       </g>
      </g>
     </g>
    <path
   d="m 2288.7223,981.95108 c 0,-218.64795 -317.4447,-218.64795 -317.4447,0 V 2881.8934 l -681.2363,-704.1562 c -149.8339,-154.8029 -374.58478,77.4013 -224.7508,232.2041 l 952.3339,983.9163 c 62.0174,64.2362 162.7338,64.2362 224.7512,0 l 952.3338,-983.9163 c 149.8339,-154.8028 -74.9169,-387.007 -224.7508,-232.2041 l -681.2363,704.1562 z"
   style="display:inline;fill:#ffffff;fill-opacity:1;fill-rule:evenodd;stroke-width:322.665"
   id="path7886" /></g>
   </g>
  </g>
 </g>
</svg>
