<?xml version="1.0" encoding="UTF-8" standalone="no"?>
<!-- Created with Inkscape (http://www.inkscape.org/) -->

<svg
   width="1000.0001"
   height="183.85988"
   version="1.1"
   viewBox="0 0 1000 183.85988"
   id="svg22"
   sodipodi:docname="Playbill_logo.svg"
   xmlns:inkscape="http://www.inkscape.org/namespaces/inkscape"
   xmlns:sodipodi="http://sodipodi.sourceforge.net/DTD/sodipodi-0.dtd"
   xmlns="http://www.w3.org/2000/svg"
   xmlns:svg="http://www.w3.org/2000/svg">
  <sodipodi:namedview
     id="namedview22"
     pagecolor="#ffffff"
     bordercolor="#000000"
     borderopacity="0.25"
     inkscape:showpageshadow="2"
     inkscape:pageopacity="0.0"
     inkscape:pagecheckerboard="0"
     inkscape:deskcolor="#d1d1d1" />
  <defs
     id="defs10">
    <clipPath
       id="clipPath3561-3">
      <path
         d="M 498.18,493.05 H 662.82 V 585 H 498.18 Z"
         id="path1" />
    </clipPath>
    <clipPath
       id="clipPath3557-7">
      <path
         d="M -115.97,-5.201 H 48.67 v 91.95 h -164.64 z"
         id="path2" />
    </clipPath>
    <clipPath
       id="clipPath3553-1">
      <path
         d="M -121.9,-2.8786 H 42.74 v 91.95 H -121.9 Z"
         id="path3" />
    </clipPath>
    <clipPath
       id="clipPath3549-5">
      <path
         d="M -127.45,-4.4097 H 37.19 v 91.95 h -164.64 z"
         id="path4" />
    </clipPath>
    <clipPath
       id="clipPath3545-9">
      <path
         d="M -134.26,-4.2721 H 30.38 v 91.95 h -164.64 z"
         id="path5" />
    </clipPath>
    <clipPath
       id="clipPath3541-3">
      <path
         d="M -139.45,-3.042 H 25.19 v 91.95 h -164.64 z"
         id="path6" />
    </clipPath>
    <clipPath
       id="clipPath3537-4">
      <path
         d="M -146.86,-7.9191 H 17.78 v 91.95 h -164.64 z"
         id="path7" />
    </clipPath>
    <clipPath
       id="clipPath3533-6">
      <path
         d="M -150.09,-2.8786 H 14.55 v 91.95 h -164.64 z"
         id="path8" />
    </clipPath>
    <clipPath
       id="clipPath3529-5">
      <path
         d="M -155.96,-2.8786 H 8.68 v 91.95 h -164.64 z"
         id="path9" />
    </clipPath>
    <clipPath
       id="clipPath3525-7">
      <path
         d="M -158.68,-7.6402 H 5.96 v 91.95 h -164.64 z"
         id="path10" />
    </clipPath>
  </defs>
  <g
     transform="matrix(1.6343762,0,0,-1.6343762,-973.68148,779.68315)"
     id="g22">
    <g
       transform="matrix(11.002,0,0,11.002,-5962.2,-4773.3)"
       id="g21">
      <path
         transform="translate(-10.608,-26.057)"
         d="m 662.29,493.05 h -55.613 v 10.225 h 55.613 z"
         clip-path="url(#clipPath3561-3)"
         fill="#fde300"
         id="path11" />
      <g
         transform="translate(603.54,472.19)"
         clip-path="url(#clipPath3557-7)"
         id="g12">
        <path
           d="m 0,0 0.009,-0.017 c 0.206,-0.017 0.283,-0.026 0.61,-0.026 0.611,0 0.895,0.224 0.895,0.972 0,0.826 -0.37,1.032 -0.903,1.032 -0.319,0 -0.396,0.009 -0.594,-0.017 L 0,1.927 Z m -2.374,-3.045 -0.009,0.017 1.05,0.714 V 1.97 l -1.084,0.722 0.009,0.017 h 3.337 c 0.877,0 1.935,-0.344 1.935,-1.84 C 2.864,-0.103 2.4,-0.86 0.594,-0.86 0.378,-0.86 0,-0.843 0,-0.843 V -2.297 L 1.032,-3.028 1.024,-3.045 Z"
           fill="#110f0d"
           id="path12" />
      </g>
      <g
         transform="translate(609.47,469.87)"
         clip-path="url(#clipPath3553-1)"
         id="g13">
        <path
           d="M 0,0 H 1.54 L 2.606,1.669 2.632,1.66 v -2.408 h -4.903 l -0.017,0.025 0.963,0.835 v 4.154 l -0.954,0.723 0.008,0.026 H 1.075 L 1.084,4.989 0,4.266 Z"
           fill="#110f0d"
           id="path13" />
      </g>
      <g
         transform="translate(615.02,471.4)"
         clip-path="url(#clipPath3549-5)"
         id="g14">
        <path
           d="M 0,0 H 0.895 L 0.912,0.026 0.516,1.772 H 0.49 L -0.026,0.026 Z m -2.322,-2.228 0.972,0.757 1.161,4.37 -0.86,0.585 0.008,0.025 H 2.305 L 2.314,3.484 1.436,2.864 2.555,-1.471 3.492,-2.228 3.484,-2.254 h -2.83 l -0.018,0.026 0.706,0.645 -0.224,0.775 h -1.35 L -0.396,-1.522 0.473,-2.228 0.464,-2.254 h -2.769 z"
           fill="#110f0d"
           id="path14" />
      </g>
      <g
         transform="translate(621.84,471.26)"
         clip-path="url(#clipPath3545-9)"
         id="g15">
        <path
           d="M 0,0 V -1.325 L 1.049,-2.09 1.041,-2.116 h -3.303 l -0.017,0.026 0.954,0.834 v 1.419 l -1.221,2.71 -1.032,0.748 0.008,0.017 h 3.019 l 0.018,-0.017 -0.74,-0.576 0.774,-1.927 h 0.017 l 0.809,1.884 -0.749,0.619 0.009,0.017 H 2.34 L 2.357,3.621 1.325,2.873 Z"
           fill="#110f0d"
           id="path15" />
      </g>
      <g
         transform="translate(627.02,470.03)"
         clip-path="url(#clipPath3541-3)"
         id="g16">
        <path
           d="m 0,0 0.017,-0.017 c 0.224,-0.026 0.224,-0.035 0.594,-0.035 0.636,0 0.894,0.379 0.894,0.852 0,0.55 -0.275,0.929 -0.903,0.929 -0.361,0 -0.361,0.009 -0.585,-0.026 L 0,1.686 Z M 0,2.606 0.017,2.589 C 0.215,2.563 0.215,2.563 0.542,2.563 1.135,2.563 1.333,2.89 1.333,3.303 1.333,3.845 1.11,4.12 0.542,4.12 0.215,4.12 0.215,4.129 0.017,4.103 L 0,4.086 Z m -2.451,-3.492 -0.009,0.017 1.049,0.714 V 4.129 L -2.486,4.851 V 4.868 H 0.86 c 1.144,0 1.789,-0.55 1.789,-1.35 C 2.649,2.95 2.288,2.271 1.626,2.202 V 2.159 c 0.903,-0.163 1.29,-0.809 1.29,-1.428 0,-1.092 -0.834,-1.617 -1.72,-1.617 z"
           fill="#110f0d"
           id="path16" />
      </g>
      <g
         transform="translate(634.43,474.91)"
         clip-path="url(#clipPath3537-4)"
         id="g17">
        <path
           d="m 0,0 v -0.026 l -1.092,-0.731 v -4.215 l 1.049,-0.765 -0.017,-0.026 h -3.303 l -0.009,0.026 0.955,0.834 v 4.146 L -3.372,-0.026 -3.363,0 Z"
           fill="#110f0d"
           id="path17" />
      </g>
      <g
         transform="translate(637.66,469.87)"
         clip-path="url(#clipPath3533-6)"
         id="g18">
        <path
           d="M 0,0 H 1.54 L 2.606,1.669 2.632,1.66 v -2.408 h -4.903 l -0.017,0.025 0.963,0.835 v 4.154 l -0.954,0.723 0.008,0.026 H 1.075 L 1.084,4.989 0,4.266 Z"
           fill="#110f0d"
           id="path18" />
      </g>
      <g
         transform="translate(643.53,469.87)"
         clip-path="url(#clipPath3529-5)"
         id="g19">
        <path
           d="M 0,0 H 1.54 L 2.606,1.669 2.632,1.66 v -2.408 h -4.903 l -0.017,0.025 0.963,0.835 v 4.154 l -0.954,0.723 0.008,0.026 H 1.075 L 1.084,4.989 0,4.266 Z"
           fill="#110f0d"
           id="path19" />
      </g>
      <g
         transform="translate(646.26,474.63)"
         clip-path="url(#clipPath3525-7)"
         id="g20">
        <path
           d="m 0,0 c -0.025,0.014 -0.065,0.021 -0.119,0.021 h -0.084 v -0.203 h 0.089 c 0.041,0 0.073,0.004 0.093,0.013 0.039,0.015 0.058,0.044 0.058,0.087 C 0.037,-0.041 0.025,-0.014 0,0 m -0.106,0.088 c 0.069,0 0.12,-0.007 0.152,-0.02 0.058,-0.024 0.087,-0.071 0.087,-0.142 0,-0.05 -0.018,-0.087 -0.055,-0.11 -0.019,-0.013 -0.046,-0.022 -0.08,-0.027 0.043,-0.007 0.075,-0.025 0.096,-0.055 0.02,-0.03 0.03,-0.058 0.03,-0.087 v -0.04 c 0,-0.013 0,-0.027 0.001,-0.042 C 0.126,-0.45 0.128,-0.46 0.13,-0.464 L 0.134,-0.471 H 0.041 c 0,0.002 -0.001,0.004 -0.001,0.005 0,0.002 -0.001,0.004 -0.001,0.007 l -0.003,0.018 v 0.044 c 0,0.064 -0.017,0.107 -0.052,0.128 -0.021,0.012 -0.058,0.018 -0.11,0.018 h -0.077 v -0.22 h -0.099 v 0.559 z m -0.3,0.029 c -0.085,-0.086 -0.128,-0.189 -0.128,-0.311 0,-0.122 0.043,-0.226 0.127,-0.312 0.085,-0.086 0.189,-0.129 0.31,-0.129 0.122,0 0.225,0.043 0.31,0.129 0.086,0.086 0.128,0.19 0.128,0.312 0,0.122 -0.042,0.225 -0.128,0.311 -0.085,0.086 -0.188,0.129 -0.31,0.129 -0.12,0 -0.224,-0.043 -0.309,-0.129 m 0.67,-0.671 c -0.099,-0.1 -0.22,-0.15 -0.361,-0.15 -0.141,0 -0.261,0.05 -0.36,0.15 -0.098,0.099 -0.147,0.22 -0.147,0.361 0,0.14 0.049,0.26 0.149,0.36 0.099,0.098 0.218,0.148 0.358,0.148 0.141,0 0.262,-0.05 0.361,-0.148 0.1,-0.099 0.149,-0.219 0.149,-0.36 0,-0.141 -0.049,-0.261 -0.149,-0.361"
           fill="#110f0d"
           id="path20" />
      </g>
    </g>
  </g>
</svg>
