<?xml version="1.0" encoding="UTF-8" standalone="no"?>
<svg
   id="svg"
   width="392.49496"
   height="59.455379"
   viewBox="0 0 392.49496 59.455382"
   version="1.1"
   sodipodi:docname="tickets.svg"
   inkscape:export-filename="../documents/git/www.danehobrecht.com/assets/images/extras/tickets.svg"
   inkscape:export-xdpi="96"
   inkscape:export-ydpi="96"
   xmlns:inkscape="http://www.inkscape.org/namespaces/inkscape"
   xmlns:sodipodi="http://sodipodi.sourceforge.net/DTD/sodipodi-0.dtd"
   xmlns="http://www.w3.org/2000/svg"
   xmlns:svg="http://www.w3.org/2000/svg">
  <defs
     id="defs1" />
  <sodipodi:namedview
     id="namedview1"
     pagecolor="#ffffff"
     bordercolor="#000000"
     borderopacity="0.25"
     inkscape:showpageshadow="2"
     inkscape:pageopacity="0.0"
     inkscape:pagecheckerboard="0"
     inkscape:deskcolor="#d1d1d1" />
  <g
     id="svgg"
     transform="translate(-1.5970668,-1.9249507)"
     style="fill:#000000">
    <path
       id="path0"
       d="m 127.846,2.168 c -6.469,0.914 -12.974,4.189 -17.688,8.903 l -1.941,1.941 v 18.577 18.576 l 1.42,1.58 c 12.045,13.397 35.065,12.562 45.724,-1.659 2.942,-3.925 4,-6.915 2.727,-7.711 -0.756,-0.473 -1.311,0.116 -2.794,2.965 -4.195,8.064 -12.614,12.97 -22.426,13.067 l -4.341,0.043 -0.079,-26.73 -0.079,-26.73 1.136,-0.213 c 7.349,-1.379 17.922,3.015 22.827,9.487 2.657,3.504 5.461,2.976 3.289,-0.621 C 151.009,6.004 138.186,0.706 127.846,2.168 m 238.612,0.755 c -9.072,1.61 -11.9,4.21 -11.826,10.875 0.086,7.894 1.769,10.847 14.833,26.047 9.54,11.099 11.011,14.121 9.499,19.517 -0.44,1.572 -0.468,1.56 1.853,0.782 9.924,-3.33 15.107,-11.204 12.684,-19.267 C 392.199,36.547 391.316,35.345 380,22.489 370.389,11.571 367.988,7.173 370.678,5.411 c 2.555,-1.675 12.369,0.731 15.769,3.865 2.03,1.871 3.883,1.514 3.015,-0.582 C 387.788,4.651 374.916,1.422 366.458,2.923 M 216.041,4.159 c -1.097,0.582 -4.771,2.792 -8.165,4.912 -6.659,4.159 -13.33,8.145 -14.174,8.469 -0.482,0.185 -0.524,-0.365 -0.524,-6.969 V 3.402 l -9.535,0.082 -9.534,0.082 V 31.473 59.38 l 9.532,0.082 9.533,0.082 0.079,-19.456 0.08,-19.457 3.212,-1.962 c 1.766,-1.079 3.258,-1.915 3.316,-1.857 0.372,0.372 18.788,36.033 19.901,38.537 1.74,3.913 2.028,4.242 3.609,4.123 0.677,-0.051 1.277,-0.232 1.333,-0.402 0.055,-0.171 -4.985,-10.078 -11.201,-22.016 -9.523,-18.29 -11.23,-21.76 -10.845,-22.055 0.251,-0.192 4.355,-2.634 9.119,-5.426 7.994,-4.685 9.354,-5.666 8.301,-5.991 -1.643,-0.506 -2.125,-0.437 -4.037,0.577 M 2.222,3.906 C 1.728,4.252 1.544,4.649 1.61,5.221 1.762,6.528 2.765,6.788 6.512,6.493 8.302,6.352 11.685,6.229 14.029,6.219 l 4.262,-0.017 0.079,26.589 0.08,26.589 h 1.085 1.085 L 20.699,31.395 20.778,3.411 h -8.924 c -7.672,0 -9.025,0.069 -9.632,0.495 m 21.42,27.489 0.079,27.985 h 9.457 9.458 l 0.079,-26.589 0.079,-26.589 4.262,0.032 c 2.344,0.018 5.727,0.131 7.518,0.251 4.073,0.271 4.651,0.101 4.651,-1.369 0,-1.709 0.045,-1.705 -18.627,-1.705 H 23.563 l 0.079,27.984 m 43.335,-0.077 v 27.907 h 1.24 1.24 V 31.318 3.411 h -1.24 -1.24 v 27.907 m 5.271,0 v 27.907 h 9.612 9.613 V 31.318 3.411 H 81.86 72.248 V 31.318 M 168.833,3.779 c -0.086,0.224 -0.12,12.826 -0.076,28.004 l 0.08,27.597 h 1.085 1.086 V 31.473 3.566 l -1.01,-0.097 c -0.625,-0.061 -1.069,0.058 -1.165,0.31 m 63.415,27.539 v 27.907 h 1.24 1.241 V 31.318 3.411 h -1.241 -1.24 v 27.907 m 5.271,-0.002 v 27.909 h 22.598 c 24.127,0 23.526,0.037 23.239,-1.45 -0.24,-1.248 -1.116,-1.332 -13.976,-1.336 L 257.054,56.434 V 39.07 21.705 h 11.649 c 12.175,0 12.847,-0.07 12.847,-1.344 0,-1.439 -0.059,-1.446 -12.62,-1.446 H 257.054 V 12.558 6.202 h 10.794 c 11.823,0 11.984,-0.024 11.791,-1.721 L 279.535,3.566 258.527,3.486 237.519,3.407 v 27.909 m 50.595,-27.41 c -0.526,0.368 -0.683,0.74 -0.612,1.452 0.126,1.271 0.816,1.429 4.901,1.123 1.791,-0.135 5.175,-0.252 7.519,-0.262 l 4.264,-0.017 v 26.685 26.685 l 1.163,-0.096 1.163,-0.096 0.079,-27.985 0.079,-27.984 h -8.925 c -7.67,0 -9.024,0.069 -9.631,0.495 m 21.419,27.489 0.079,27.985 h 9.458 9.457 l 0.079,-26.589 0.08,-26.589 4.106,0.019 c 2.259,0.011 5.642,0.13 7.518,0.265 4.192,0.301 4.806,0.125 4.806,-1.37 0,-1.709 0.045,-1.705 -18.626,-1.705 h -17.036 l 0.079,27.984 m 41.458,-16.976 c -0.646,1.337 -0.749,1.998 -0.749,4.806 0,6.236 0.754,7.515 12.898,21.871 10.676,12.62 10.963,12.992 11.249,14.514 1.1,5.864 -13.587,3.828 -20.22,-2.803 -2.417,-2.415 -2.775,-2.585 -3.578,-1.697 -3.297,3.643 8.358,9.841 19.176,10.198 5.797,0.192 5.704,0.235 6.533,-3.001 1.162,-4.534 0.706,-5.348 -10.256,-18.307 -3.534,-4.178 -7.248,-8.619 -8.253,-9.868 -3.209,-3.99 -5.396,-9.525 -5.841,-14.783 l -0.21,-2.481 -0.749,1.551 m -246.155,3.82 c -4.089,7.64 -4.171,19.024 -0.19,26.412 l 0.752,1.396 0.014,-14.187 c 0.008,-7.802 -0.051,-14.186 -0.13,-14.186 -0.079,0 -0.28,0.254 -0.446,0.565"
       stroke="none"
       fill="#000000"
       fill-rule="evenodd"
       style="fill:#000000" />
  </g>
</svg>
