<svg id="svg" xmlns="http://www.w3.org/2000/svg" xmlns:xlink="http://www.w3.org/1999/xlink" width="400" height="71.29455909943715" viewBox="0, 0, 400,71.29455909943715"><g id="svgg"><path id="path0" d="M116.145 1.136 C 89.397 10.961,86.380 56.010,111.638 68.444 C 129.872 77.420,148.950 67.808,149.921 49.156 C 150.440 39.166,146.992 34.407,145.978 43.715 C 144.601 56.353,139.692 61.521,129.052 61.534 C 122.297 61.543,116.805 57.140,114.638 49.980 C 113.155 45.080,113.416 24.636,115.028 19.374 C 119.918 3.421,134.882 6.501,144.868 25.516 L 148.218 31.895 148.421 16.964 C 148.654 -0.100,148.682 -0.002,144.874 4.463 L 142.030 7.799 139.495 5.659 C 133.213 0.356,123.429 -1.540,116.145 1.136 M359.568 1.236 C 351.784 4.088,347.876 11.329,348.330 22.056 C 348.809 33.360,353.463 37.995,369.573 43.207 C 382.981 47.545,386.996 51.389,385.016 57.996 C 381.769 68.835,360.693 59.383,352.340 43.341 C 349.083 37.086,348.968 37.475,348.968 54.784 C 348.968 63.452,349.266 70.544,349.630 70.544 C 349.994 70.544,351.929 69.230,353.930 67.625 L 357.569 64.706 360.585 66.781 C 374.400 76.285,394.887 71.239,398.928 57.337 C 403.386 42.001,397.011 33.296,376.737 27.038 C 363.752 23.030,360.952 20.928,360.999 15.223 C 361.105 2.659,379.687 8.873,391.175 25.315 C 393.853 29.147,393.996 28.566,393.996 13.884 C 393.996 6.248,393.828 -0.000,393.623 -0.000 C 393.417 -0.000,391.608 1.179,389.602 2.620 L 385.955 5.240 381.158 2.838 C 375.276 -0.107,365.262 -0.850,359.568 1.236 M0.024 13.321 L 0.047 25.141 1.712 23.198 C 2.628 22.129,5.153 18.668,7.324 15.506 L 11.271 9.756 15.016 9.756 L 18.762 9.756 18.762 34.357 L 18.762 58.957 12.986 63.813 L 7.211 68.668 17.114 68.877 C 22.561 68.992,31.381 68.992,36.714 68.877 L 46.411 68.668 40.841 63.887 L 35.272 59.105 35.272 34.431 L 35.272 9.756 38.888 9.756 L 42.504 9.756 47.581 17.261 C 50.373 21.388,52.798 24.765,52.970 24.765 C 53.142 24.765,53.283 19.531,53.283 13.133 L 53.283 1.501 26.642 1.501 L 0.000 1.501 0.024 13.321 M62.120 6.592 L 67.580 11.632 67.561 35.369 L 67.542 59.105 61.973 63.887 L 56.404 68.668 66.100 68.877 C 71.434 68.992,80.233 68.992,85.655 68.877 L 95.512 68.668 89.782 63.872 L 84.053 59.077 84.053 35.352 L 84.053 11.627 89.721 6.564 L 95.389 1.501 76.025 1.527 L 56.660 1.552 62.120 6.592 M157.411 6.475 L 162.852 11.406 162.852 35.234 L 162.852 59.062 158.212 63.114 C 155.660 65.343,153.043 67.578,152.396 68.081 C 151.462 68.807,155.210 69.000,170.558 69.019 L 189.897 69.043 184.629 64.074 L 179.362 59.105 179.362 53.856 L 179.362 48.606 183.976 43.401 C 186.514 40.539,188.840 38.467,189.144 38.798 C 189.448 39.129,191.794 44.253,194.358 50.184 L 199.020 60.969 195.033 65.006 L 191.046 69.043 208.633 69.043 L 226.219 69.043 221.978 64.728 C 218.067 60.750,201.107 29.207,201.132 25.960 C 201.143 24.621,213.484 10.579,218.793 5.867 L 223.712 1.501 207.854 1.501 L 191.996 1.501 195.751 5.782 L 199.506 10.063 192.909 17.227 C 189.280 21.167,184.761 26.079,182.866 28.143 L 179.422 31.895 179.392 21.650 L 179.362 11.406 184.803 6.475 L 190.244 1.545 171.107 1.545 L 151.970 1.545 157.411 6.475 M233.208 6.475 L 238.649 11.406 238.649 35.234 L 238.649 59.062 234.009 63.114 C 231.457 65.343,228.840 67.578,228.193 68.081 C 227.263 68.804,233.091 69.000,256.098 69.019 L 285.178 69.043 285.178 57.036 C 285.178 50.432,284.889 45.028,284.536 45.028 C 284.182 45.028,281.227 48.561,277.969 52.880 L 272.045 60.731 263.602 60.759 L 255.159 60.788 255.159 49.531 L 255.159 38.274 258.472 38.274 C 261.671 38.274,261.920 38.448,265.736 43.340 C 267.909 46.126,269.965 48.726,270.303 49.118 C 270.642 49.510,270.913 43.094,270.905 34.859 L 270.891 19.887 266.330 24.578 C 262.097 28.931,261.532 29.268,258.464 29.268 L 255.159 29.268 255.159 19.512 L 255.159 9.756 263.227 9.794 L 271.295 9.833 276.923 16.914 C 280.019 20.808,282.805 23.999,283.114 24.005 C 283.424 24.010,283.677 18.949,283.677 12.758 L 283.677 1.501 255.722 1.523 L 227.767 1.545 233.208 6.475 M289.705 13.321 L 289.728 25.141 291.393 23.198 C 292.309 22.129,294.834 18.668,297.005 15.506 L 300.952 9.756 304.697 9.756 L 308.443 9.756 308.443 34.357 L 308.443 58.957 302.667 63.813 L 296.892 68.668 306.795 68.877 C 312.242 68.992,321.062 68.992,326.395 68.877 L 336.092 68.668 330.522 63.887 L 324.953 59.105 324.953 34.431 L 324.953 9.756 328.569 9.756 L 332.185 9.756 337.262 17.261 C 340.054 21.388,342.479 24.765,342.651 24.765 C 342.824 24.765,342.964 19.531,342.964 13.133 L 342.964 1.501 316.323 1.501 L 289.681 1.501 289.705 13.321 " stroke="none" fill="#000000" fill-rule="evenodd"></path></g></svg>