<?xml version="1.0" encoding="UTF-8" standalone="no"?>
<svg
   width="16"
   height="16"
   fill="currentColor"
   class="bi bi-arrow-down-circle"
   viewBox="0 0 16 16"
   version="1.1"
   id="svg44"
   sodipodi:docname="DaneHobrechtIcon(002).svg"
   xmlns:inkscape="http://www.inkscape.org/namespaces/inkscape"
   xmlns:sodipodi="http://sodipodi.sourceforge.net/DTD/sodipodi-0.dtd"
   xmlns="http://www.w3.org/2000/svg"
   xmlns:svg="http://www.w3.org/2000/svg">
  <defs
     id="defs48" />
  <sodipodi:namedview
     id="namedview46"
     pagecolor="#ffffff"
     bordercolor="#000000"
     borderopacity="0.25"
     inkscape:showpageshadow="2"
     inkscape:pageopacity="0.0"
     inkscape:pagecheckerboard="0"
     inkscape:deskcolor="#d1d1d1"
     showgrid="false" />
  <path
     fill-rule="evenodd"
     d="M 1,8 A 7,7 0 1 0 15,8 7,7 0 0 0 1,8 Z M 16,8 A 8,8 0 1 1 0,8 8,8 0 0 1 16,8 Z M 8.5,4.5 a 0.5,0.5 0 0 0 -1,0 v 5.793 L 5.354,8.146 A 0.5006316,0.5006316 0 1 0 4.646,8.854 l 3,3 a 0.5,0.5 0 0 0 0.708,0 l 3,-3 A 0.5006316,0.5006316 0 0 0 10.646,8.146 L 8.5,10.293 Z"
     id="path42"
     style="fill:#000000;fill-opacity:1" />
</svg>
