<?xml version="1.0" encoding="UTF-8" standalone="no"?>
<svg
   id="svg"
   width="399.39307"
   height="374.32874"
   viewBox="0 0 399.39307 374.32874"
   version="1.1"
   sodipodi:docname="image2vector.svg"
   xmlns:inkscape="http://www.inkscape.org/namespaces/inkscape"
   xmlns:sodipodi="http://sodipodi.sourceforge.net/DTD/sodipodi-0.dtd"
   xmlns="http://www.w3.org/2000/svg"
   xmlns:svg="http://www.w3.org/2000/svg">
  <defs
     id="defs511" />
  <sodipodi:namedview
     id="namedview509"
     pagecolor="#ffffff"
     bordercolor="#000000"
     borderopacity="0.25"
     inkscape:showpageshadow="2"
     inkscape:pageopacity="0.0"
     inkscape:pagecheckerboard="0"
     inkscape:deskcolor="#d1d1d1"
     showgrid="false" />
  <g
     id="svgg"
     style="fill:#ffffff"
     transform="translate(0,-0.39498719)">
    <path
       id="path0"
       d="m 161.638,1.147 c -6.176,1.778 -3.677,-0.527 -53.982,49.772 -43.187,43.182 -46.49,46.58 -47.843,49.222 -3.448,6.734 -3.581,13.719 -0.392,20.538 1.612,3.445 91.024,93.749 96.195,97.154 10.272,6.764 19.989,4.597 31.797,-7.089 l 6.993,-6.922 -4.385,-4.404 -4.384,-4.404 -6.012,5.967 c -6.736,6.686 -8.162,7.59 -11.993,7.598 -4.695,0.009 -2.282,2.216 -51.619,-47.199 l -45.226,-45.296 -0.668,-2.336 c -0.762,-2.666 -0.55,-5.198 0.622,-7.445 0.91,-1.745 90.837,-91.612 92.501,-92.44 2.101,-1.045 4.689,-1.219 7.249,-0.487 l 2.336,0.667 45.464,45.426 c 49.028,48.987 47.199,46.995 47.187,51.401 -0.013,4.273 0.495,3.696 -30.953,35.189 l -29.134,29.176 4.401,4.387 4.4,4.386 29.411,-29.367 c 18.697,-18.669 29.982,-30.234 30.98,-31.747 4.624,-7.018 4.577,-16.903 -0.114,-24.269 C 271.494,93.956 181.939,4.901 178.38,3.074 173.224,0.427 166.734,-0.32 161.638,1.147 m 64.935,-0.139 c -5.156,1.417 -6.955,2.679 -14.585,10.23 l -7.193,7.118 4.38,4.4 4.38,4.399 6.409,-6.309 c 8.509,-8.375 11.604,-9.612 16.832,-6.727 3.679,2.029 91.801,90.646 92.625,93.145 2.219,6.731 5.511,2.857 -46.762,55.019 -50.708,50.601 -46.334,46.688 -51.642,46.206 -3.5,-0.317 -1.302,1.737 -49.696,-46.451 -47.323,-47.122 -46.638,-46.387 -46.963,-50.431 -0.399,-4.978 -2.05,-3.05 30.822,-35.985 l 29.617,-29.672 -4.396,-4.396 -4.395,-4.395 -30.227,30.272 c -32.543,32.591 -31.591,31.521 -33.308,37.428 -0.976,3.355 -0.677,10.745 0.563,13.916 1.79,4.583 3.756,6.661 49.871,52.707 l 45.876,45.807 3.397,1.653 c 7.486,3.642 15.782,3.07 22.671,-1.563 4.539,-3.053 93.655,-92.876 95.148,-95.904 3.369,-6.828 3.362,-14.8 -0.019,-21.343 C 338.504,97.279 248.611,6.8 244.561,4.094 239.676,0.83 232.008,-0.486 226.573,1.008 M 61.447,264.778 c -20.522,4.407 -25.485,31.518 -7.855,42.913 8.123,5.25 17.865,5.077 26.15,-0.464 3.488,-2.333 3.545,-2.561 1.168,-4.654 l -1.807,-1.591 -2.603,1.746 c -15.448,10.358 -34.124,-6.082 -26.124,-22.997 4.792,-10.133 17.887,-13.073 27.074,-6.079 l 1.325,1.01 2.007,-2.007 2.006,-2.006 -1.976,-1.45 c -5.888,-4.322 -12.642,-5.864 -19.365,-4.421 m 266.825,0.014 c -18.108,3.827 -24.848,26.574 -11.753,39.668 14.64,14.641 40.324,4.383 40.324,-16.106 v -3.039 h -7.193 -7.192 v 2.597 2.597 h 4.427 4.427 l -0.255,1.299 c -3.203,16.282 -26.759,19.213 -33.783,4.204 -8.441,-18.038 12.2,-34.323 27.837,-21.962 l 1.999,1.58 1.969,-1.751 1.97,-1.75 -2.107,-1.981 c -5.185,-4.876 -13.162,-6.943 -20.67,-5.356 M 155.281,265.5 c -9.226,3.893 -10.167,15.835 -1.642,20.83 0.941,0.552 3.879,1.88 6.528,2.951 7.045,2.849 9.277,5.031 9.255,9.047 -0.046,8.228 -11.201,10.244 -19.42,3.51 l -1.789,-1.467 -1.779,1.746 c -2.237,2.195 -2.226,2.34 0.319,4.281 11.714,8.933 27.192,4.921 28.173,-7.302 0.519,-6.459 -2.877,-11.013 -10.564,-14.167 -10.571,-4.337 -12.517,-6.341 -10.722,-11.042 1.824,-4.775 9.511,-5.569 14.805,-1.528 1.025,0.782 1.902,1.365 1.95,1.295 0.047,-0.07 0.749,-0.955 1.559,-1.967 1.878,-2.346 1.873,-2.385 -0.625,-4.095 -4.485,-3.07 -11.549,-3.991 -16.048,-2.092 m -44.155,0.334 c -0.188,0.495 -4.319,10.632 -9.181,22.527 -4.861,11.895 -8.838,21.838 -8.838,22.096 0,0.324 0.873,0.431 2.849,0.35 l 2.849,-0.118 1.446,-3.7 1.447,-3.7 11.919,0.104 11.919,0.104 1.471,3.596 1.471,3.596 2.894,0.118 c 1.749,0.071 2.894,-0.042 2.894,-0.284 0,-0.407 -17.358,-43.597 -18.041,-44.889 -0.609,-1.153 -4.643,-0.995 -5.099,0.2 m 75.088,1.894 v 2.801 h 7.592 7.593 v 20.199 20.198 l 2.697,-0.119 2.697,-0.118 0.104,-20.071 0.103,-20.071 7.489,-0.109 7.489,-0.108 v -2.598 -2.597 l -17.882,-0.104 -17.882,-0.104 v 2.801 m 48.941,-2.312 c -0.109,0.285 -0.151,10.588 -0.094,22.896 l 0.104,22.377 h 2.797 2.797 v -22.777 -22.777 l -2.703,-0.118 c -1.933,-0.085 -2.759,0.029 -2.901,0.399 m 23.386,22.496 v 22.977 h 2.793 2.793 l 0.104,-16.976 0.105,-16.976 12.935,16.397 c 15.132,19.18 13.75,17.63 15.586,17.476 l 1.449,-0.121 0.103,-22.877 0.103,-22.877 h -2.8 -2.801 v 16.783 c 0,9.231 -0.135,16.774 -0.3,16.763 -0.164,-0.012 -6.219,-7.564 -13.455,-16.783 l -13.155,-16.763 h -1.73 -1.73 v 22.977 m -139.847,-1.385 4.646,11.575 h -9.712 -9.712 l 0.349,-0.899 c 0.192,-0.495 2.275,-5.575 4.63,-11.289 2.354,-5.714 4.372,-10.622 4.485,-10.906 0.334,-0.841 0.469,-0.55 5.314,11.519 m 109.927,41.776 c -17.301,4.653 -23.103,26.535 -10.439,39.37 12.89,13.062 35.027,7.097 39.569,-10.664 4.443,-17.373 -11.79,-33.37 -29.13,-28.706 m 152.706,-0.015 c -5.666,1.526 -8.882,5.643 -8.882,11.372 0,6.195 2.561,8.945 11.759,12.625 7.1,2.842 9.352,4.812 9.706,8.492 0.836,8.709 -10.579,11.405 -19.056,4.501 l -2.178,-1.774 -1.722,1.903 c -2.145,2.369 -2.154,2.264 0.375,4.276 11.701,9.313 28.036,4.514 28.064,-8.244 0.015,-7.026 -2.62,-9.944 -12.834,-14.209 -7.271,-3.036 -9.283,-4.97 -8.813,-8.473 0.829,-6.183 9.241,-7.704 15.734,-2.846 1.594,1.193 1.299,1.295 3.096,-1.062 l 1.536,-2.013 -0.875,-0.931 c -3.115,-3.317 -10.659,-5.032 -15.91,-3.617 M 0,351.266 v 22.795 l 2.897,-0.117 2.897,-0.118 0.2,-16.65 0.2,-16.649 13.187,16.74 13.186,16.74 1.699,0.01 1.698,0.009 V 351.249 328.472 H 33.171 30.378 L 30.274,345.21 30.17,361.948 16.995,345.21 3.82,328.472 H 1.91 0 v 22.794 m 53.946,-0.017 v 22.777 H 66.933 79.92 v -2.597 -2.598 H 69.73 59.54 v -7.592 -7.593 h 9.591 9.59 v -2.597 -2.597 h -9.59 -9.591 v -7.393 -7.393 h 9.99 9.99 v -2.597 -2.597 H 66.733 53.946 v 22.777 m 37.562,-20.18 v 2.597 h 7.593 7.592 v 20.18 20.18 h 2.798 2.797 v -20.18 -20.18 h 7.592 7.593 v -2.597 -2.597 H 109.491 91.508 v 2.597 m 51.787,12.471 c 2.723,8.306 6.076,18.518 7.451,22.694 l 2.501,7.592 2.425,0.117 2.425,0.117 6.175,-18.666 6.174,-18.667 5.841,18.55 5.842,18.549 h 2.495 2.496 l 7.669,-22.577 7.669,-22.578 -2.588,-0.119 c -3.263,-0.151 -2.22,-2.244 -9.071,18.197 -3.259,9.724 -5.986,17.618 -6.06,17.543 -0.075,-0.074 -2.617,-8.119 -5.648,-17.878 l -5.513,-17.743 -3.046,-0.116 -3.047,-0.116 -3.65,11.305 c -7.101,21.991 -7.948,24.469 -8.166,23.884 -0.121,-0.325 -2.723,-8.323 -5.782,-17.774 l -5.563,-17.183 -2.99,-0.116 -2.99,-0.116 4.951,15.101 m 131.63,7.685 v 22.801 h 2.797 2.797 v -9.191 -9.191 h 2.91 2.91 l 6.93,9.023 c 7.816,10.177 6.953,9.435 10.803,9.278 l 2.898,-0.119 -6.825,-8.791 c -7.807,-10.057 -7.365,-9.221 -5.061,-9.566 12.842,-1.926 15.563,-19.742 3.893,-25.491 l -2.653,-1.307 -10.699,-0.123 -10.7,-0.124 v 22.801 m 48.751,0.024 v 22.777 h 2.798 2.797 v -7.654 -7.653 l 3.272,-3.635 c 1.799,-2 3.402,-3.791 3.561,-3.98 0.16,-0.19 3.408,4.889 7.218,11.287 l 6.928,11.632 3.342,0.002 3.343,0.001 -0.577,-0.899 c -0.318,-0.495 -4.052,-6.702 -8.3,-13.795 l -7.722,-12.895 0.798,-0.891 c 3.947,-4.406 14.029,-15.824 14.461,-16.375 0.512,-0.655 0.319,-0.699 -3.027,-0.699 h -3.573 l -9.762,11.037 -9.762,11.037 -0.107,-11.037 -0.106,-11.037 h -2.791 -2.791 v 22.777 m -85.687,-17.95 c 9.416,1.714 16.162,11.28 14.581,20.677 -2.498,14.85 -20.38,20.432 -30.653,9.57 -11.843,-12.522 -0.793,-33.318 16.072,-30.247 m 55.677,0.396 c 8.048,1.726 9.683,12.278 2.486,16.038 -2.094,1.093 -2.274,1.116 -8.885,1.116 h -6.748 v -8.791 -8.791 h 5.575 c 3.066,0 6.474,0.193 7.572,0.428"
       stroke="none"
       fill="#000000"
       fill-rule="evenodd"
       style="fill:#ffffff" />
  </g>
</svg>
