<?xml version="1.0" encoding="UTF-8" standalone="no"?>
<svg
   height="249.6322"
   width="923.0769"
   viewBox="-72.03675 -32.46875 480.24499 60.789342"
   version="1.1"
   id="svg4"
   sodipodi:docname="GitHub-Wordmark-White-Logo.wine.svg"
   xmlns:inkscape="http://www.inkscape.org/namespaces/inkscape"
   xmlns:sodipodi="http://sodipodi.sourceforge.net/DTD/sodipodi-0.dtd"
   xmlns="http://www.w3.org/2000/svg"
   xmlns:svg="http://www.w3.org/2000/svg">
  <defs
     id="defs8" />
  <sodipodi:namedview
     id="namedview6"
     pagecolor="#ffffff"
     bordercolor="#000000"
     borderopacity="0.25"
     inkscape:showpageshadow="2"
     inkscape:pageopacity="0.0"
     inkscape:pagecheckerboard="0"
     inkscape:deskcolor="#d1d1d1"
     showgrid="false" />
  <path
     d="m 20.46025,-11.621904 h -40.356 a 1.887,1.887 0 0 0 -1.886,1.8869998 V 9.9950921 c 0,1.0419999 0.845,1.8879999 1.886,1.8879999 h 15.743 v 24.515 c 0,0 -3.535,1.204 -13.308,1.204 -11.53,0 -27.636,-4.212 -27.636,-39.6299976 0,-35.4260134 16.772,-40.0870184 32.517,-40.0870184 13.63,0 19.502,2.400002 23.238,3.556004 1.174,0.358 2.26,-0.810001 2.26,-1.851002 l 4.502,-19.064019 c 0,-0.488 -0.165,-1.075001 -0.72,-1.473001 -1.517,-1.083001 -10.774,-6.263006 -34.161,-6.263006 -26.94,0 -54.576,11.463011 -54.576,66.56304223 0,55.10099777 31.64,63.31199777 58.303,63.31199777 22.076,0 35.468,-9.434 35.468,-9.434 0.552,-0.304 0.612,-1.076 0.612,-1.429 V -9.7349042 a 1.886,1.886 0 0 0 -1.886,-1.8869998 m 207.978,-48.986038 a 1.88,1.88 0 0 0 -1.873,-1.897001 h -22.723 a 1.889,1.889 0 0 0 -1.881,1.897001 l 0.005,43.914038 h -35.418 v -43.914038 c 0,-1.050001 -0.836,-1.897001 -1.876,-1.897001 h -22.722 a 1.888,1.888 0 0 0 -1.876,1.897001 V 58.296092 c 0,1.048 0.843,1.902 1.876,1.902 h 22.722 c 1.04,0 1.876,-0.854 1.876,-1.902 V 7.4360927 h 35.418 l -0.061,50.8599993 c 0,1.048 0.841,1.902 1.883,1.902 h 22.775 c 1.04,0 1.872,-0.854 1.874,-1.902 z m -165.099,15.603015 c 0,-8.181008 -6.56,-14.793014 -14.653,-14.793014 -8.085,0 -14.65,6.612006 -14.65,14.793014 0,8.174008 6.565,14.804015 14.65,14.804015 8.093,0 14.653,-6.630007 14.653,-14.804015 m -1.625,78.219019 v -54.886996 c 0,-1.041 -0.84,-1.893 -1.88,-1.893 h -22.65 c -1.04,0 -1.97,1.07 -1.97,2.113 v 78.635996 c 0,2.31 1.44,2.998 3.304,2.998 h 20.408 c 2.239,0 2.788,-1.1 2.788,-3.035 z m 253.081,-56.601996 h -22.548 c -1.035,0 -1.876,0.852 -1.876,1.902 v 58.300996 c 0,0 -5.73,4.192 -13.86,4.192 -8.13,0 -10.288,-3.69 -10.288,-11.65 v -50.843996 c 0,-1.05 -0.84,-1.902 -1.875,-1.902 h -22.885 c -1.032,0 -1.879,0.852 -1.879,1.902 v 54.691996 c 0,23.646 13.179,29.432 31.308,29.432 14.875,0 26.867,-8.218 26.867,-8.218 0,0 0.57,4.331 0.83,4.844 0.257,0.512 0.93,1.03 1.658,1.03 l 14.559,-0.064 c 1.032,0 1.878,-0.854 1.878,-1.899 l -0.008,-79.816996 c 0,-1.05 -0.842,-1.902 -1.881,-1.902 m 52.736,64.323996 c -7.822,-0.239 -13.127,-3.787 -13.127,-3.787 V -0.50690597 c 0,0 5.233,-3.20799943 11.655,-3.78099923 8.12,-0.7269998 15.944,1.7249996 15.944,21.0959972 0,20.425 -3.53,24.457 -14.472,24.127 m 8.893,-66.994 c -12.807,0 -21.517,5.715004 -21.517,5.715004 v -40.264038 c 0,-1.050001 -0.84,-1.897001 -1.875,-1.897001 h -22.788 a 1.887,1.887 0 0 0 -1.877,1.897001 V 58.296092 c 0,1.05 0.841,1.903 1.88,1.903 h 15.81 c 0.712,0 1.251,-0.368 1.65,-1.011 0.393,-0.639 0.96,-5.481 0.96,-5.481 0,0 9.317,8.829 26.956,8.829 20.71,0 32.585,-10.504 32.585,-47.155 0,-36.649996 -18.968,-41.44 -31.784,-41.44 m -249.403,2.482004 h -17.045 l -0.026,-22.519024 c 0,-0.852001 -0.438,-1.278001 -1.425,-1.278001 h -23.227 c -0.902,0 -1.388,0.398 -1.388,1.266001 v 23.270024 c 0,0 -11.64,2.809 -12.426,3.037 a 1.886,1.886 0 0 0 -1.362,1.812 v 14.6229986 c 0,1.0499998 0.84,1.8999996 1.879,1.8999996 h 11.91 V 33.712092 c 0,26.128 18.327,28.695 30.694,28.695 5.652,0 12.412,-1.815 13.528,-2.227 0.675,-0.248 1.068,-0.946 1.068,-1.704 l 0.019,-16.086 c 0,-1.05 -0.887,-1.9 -1.884,-1.9 -0.994,0 -3.535,0.405 -6.151,0.405 -8.372,0 -11.21,-3.892 -11.21,-8.93 V -1.4669058 h 17.046 a 1.89,1.89 0 0 0 1.881,-1.8999996 V -21.681904 c 0,-1.05 -0.842,-1.895 -1.881,-1.895"
     fill="#ffffff"
     id="path2" />
</svg>
