<?xml version="1.0" encoding="UTF-8" standalone="no"?>
<!-- Generator: Adobe Illustrator 26.1.0, SVG Export Plug-In . SVG Version: 6.00 Build 0)  -->

<svg
   version="1.1"
   id="Capa_1"
   x="0px"
   y="0px"
   viewBox="0 0 389.40668 173.08749"
   xml:space="preserve"
   sodipodi:docname="1actorsacces.svg"
   width="389.40668"
   height="173.08749"
   inkscape:export-filename="../dane-hobrecht-logo-004.svg"
   inkscape:export-xdpi="96"
   inkscape:export-ydpi="96"
   xmlns:inkscape="http://www.inkscape.org/namespaces/inkscape"
   xmlns:sodipodi="http://sodipodi.sourceforge.net/DTD/sodipodi-0.dtd"
   xmlns="http://www.w3.org/2000/svg"
   xmlns:svg="http://www.w3.org/2000/svg"><defs
   id="defs642" /><sodipodi:namedview
   id="namedview640"
   pagecolor="#ffffff"
   bordercolor="#000000"
   borderopacity="0.25"
   inkscape:showpageshadow="2"
   inkscape:pageopacity="0.0"
   inkscape:pagecheckerboard="0"
   inkscape:deskcolor="#d1d1d1"
   showgrid="false" />
<style
   type="text/css"
   id="style608">
	.st0{fill:#FFFFFF;}
</style>

<g
   transform="matrix(0.1,0,0,-0.1,-61.294596,155.96)"
   id="g637"
   style="fill:#ffffff">
	<path
   d="M 2410.9,1453.4 V 1347 h -42.5 -42.5 v -54.7 -54.7 h 42.5 42.5 V 973.3 709 h 60.8 60.8 v 264.3 264.3 h 51.7 51.7 v 54.7 54.7 h -51.7 -51.7 v 106.3 106.3 h -60.8 -60.8 z"
   id="path613"
   style="fill:#ffffff" />
	<path
   d="M 1090.4,1355.5 C 996.2,1333 913,1265.6 872.2,1179.3 807.8,1042.6 835.1,885.2 939.7,786.1 c 51,-48 104.5,-74.7 172.6,-87.5 108.8,-18.8 215.1,14.6 266.2,84.5 l 17.6,24.9 V 758.8 709 h 60.8 60.8 v 319 319 h -60.8 -60.8 v -43.1 -43.8 l -23.7,26.7 c -58.4,66.3 -175,94.9 -282,68.7 z m 186,-122.7 c 46.2,-23.1 78.4,-55.9 100.9,-103.9 14,-30.4 15.8,-41.3 15.8,-100.9 0,-79 -9.7,-106.3 -55.3,-155 -64.4,-68.7 -171.4,-88.7 -255.2,-48 -38.9,18.2 -80.8,63.2 -102.1,108.8 -17,35.9 -18.8,45 -18.8,97.2 0,49.8 2.4,62.6 16.4,92.4 28.6,62 85.7,111.2 147.1,127 10.3,3 40.1,4.3 65.6,3 37.6,-1.2 54,-5.4 85.6,-20.6 z"
   id="path615"
   style="fill:#ffffff" />
	<path
   d="m 1884,1356.1 c -137.3,-37.1 -231.5,-155 -242.5,-302 C 1630,898.6 1721.2,757 1864,708.4 c 55.3,-18.8 144.6,-19.4 203.6,-1.2 83.3,26.1 158,89.9 196.3,167.1 10.9,21.9 19.4,41.3 19.4,43.8 0,1.8 -29.8,3.6 -66.2,3.6 h -66.2 L 2135.1,895 c -19.4,-33.4 -46.2,-55.9 -88.1,-75.4 -26.1,-12.2 -41.9,-14.6 -80.8,-14.6 -41.9,0 -54.1,3 -86.9,18.8 -45.6,22.5 -71.1,49.8 -96.6,103.9 -17.6,36.5 -18.8,44.4 -18.8,103.3 0,58.9 1.2,66.8 18.8,103.3 10.3,21.9 29.2,50.4 41.9,63.2 48.6,49.2 134.9,70.5 204.8,49.8 38.9,-10.9 87.5,-51 109.4,-89.3 l 13.4,-23.7 h 66.2 c 65.6,0 65.6,0 62,14 -26.7,91.8 -124,179.9 -231.5,207.8 -43.9,11.6 -122.3,11 -164.9,0 z"
   id="path617"
   style="fill:#ffffff" />
	<path
   d="m 2943.2,1355.5 c -108.8,-26.1 -205.4,-114.2 -241.2,-219.4 -20.7,-60.8 -20.1,-151.9 1.8,-212.7 49.2,-137.9 177.4,-229.1 323.9,-229.1 30.4,0 69.9,3.6 88.1,7.9 110.6,27.3 207.2,116.1 243.7,223.6 20.1,58.3 20.1,151.9 0,210.3 -47.4,137.9 -180.5,229.7 -331.8,228.5 -26.8,0 -64.4,-4.2 -84.5,-9.1 z m 181.1,-119.7 c 43.1,-20.1 91.2,-68.1 111.8,-112.4 14,-29.8 16.4,-42.5 16.4,-92.4 0,-53.5 -1.8,-61.4 -20.1,-98.4 -40.1,-81.4 -113,-127.6 -201.7,-127.6 -88.7,0 -161.6,46.2 -201.7,127.6 -18.8,37.7 -20.1,45 -19.4,98.4 0,63.2 8.5,89.9 44.4,137.9 23.1,31.6 76,68.1 114.8,79 43.1,12.2 114.8,6.8 155.5,-12.1 z"
   id="path619"
   style="fill:#ffffff" />
	<path
   d="m 3715.6,1358.6 c -32.8,-7.9 -58.9,-21.9 -84.5,-46.8 l -23.1,-21.9 v 28.6 28.6 h -54.7 -54.7 V 1028.1 709 h 60.8 60.8 v 202.4 c 0,225.4 3,247.3 37.7,283.2 24.3,24.9 44.4,35.2 83.9,43.8 l 30.4,6.7 v 60.2 60.2 l -16.4,-0.6 c -9.9,-0.9 -27.5,-3.3 -40.2,-6.3 z"
   id="path621"
   style="fill:#ffffff" />
	<path
   d="m 3998.7,1354.3 c -87.5,-31 -129.4,-89.9 -129.4,-179.9 0,-34.6 3,-50.4 15.8,-75.4 27.3,-54.7 50.4,-69.9 185.9,-119.1 45,-16.4 76.6,-42.5 83.3,-69.3 18.2,-66.8 -41.3,-119.7 -116.1,-103.9 -34.6,7.9 -61.4,35.2 -72.3,73.5 -3.6,14.6 -7.9,29.8 -9.1,34 -1.2,4.9 -18.8,7.3 -60.8,7.3 h -58.9 l 3.6,-35.9 c 4.3,-46.8 21.3,-84.5 56.5,-122.1 66.8,-71.7 185.9,-91.2 275.9,-45.6 38.3,19.4 81.4,68.7 94.2,106.9 14.6,42.5 10.3,126.4 -7.3,161 -26.1,49.2 -80.2,86.9 -172,118.5 -71.7,24.3 -88.7,35.9 -97.8,65.6 -18.8,62.6 59.6,110.6 116.7,71.7 13.4,-9.1 23.7,-23.1 29.8,-39.5 l 8.5,-25.5 h 60.2 60.2 l -4.3,29.2 c -8.5,60.2 -45,110 -102.1,139.2 -42.6,21.5 -114.3,25.7 -160.5,9.3 z"
   id="path623"
   style="fill:#ffffff" />
	<path
   d="M 859.5,492.6 C 770.2,471.3 685.7,405.7 645.6,326.1 617.6,270.8 611,234.3 613.4,147.4 L 615.2,66.6 640.7,15 c 47.4,-95.4 134.3,-159.8 240.7,-179.2 108.8,-18.8 215.1,14.6 266.2,84.5 l 17.6,24.9 v -49.2 -49.8 h 60.8 60.8 v 319 319 H 1226 1165.2 V 441 397.2 l -23.7,26.7 c -58.4,66.3 -175,94.9 -282,68.7 z m 186,-122.7 c 46.2,-23.1 78.4,-55.9 100.9,-103.9 14,-30.4 15.8,-41.3 15.8,-100.9 0,-79 -9.7,-106.3 -55.3,-155 -64.4,-68.7 -171.4,-88.7 -255.2,-48 -38.9,18.2 -80.8,63.2 -102.1,108.8 -17,35.9 -18.8,45 -18.8,97.2 0,49.8 2.4,62.6 16.4,92.4 28.6,62 85.7,111.2 147.1,127 10.3,3 40.1,4.3 65.6,3 37.6,-1.2 54,-5.4 85.6,-20.6 z"
   id="path625"
   style="fill:#ffffff" />
	<path
   d="m 1653.1,493.2 c -137.3,-37.1 -231.5,-155 -242.5,-302 -11.5,-155.6 79.6,-297.2 222.4,-345.8 55.3,-18.8 144.6,-19.4 203.6,-1.2 83.3,26.1 158,89.9 196.3,167.1 10.9,21.9 19.4,41.3 19.4,43.8 0,1.8 -29.8,3.6 -66.2,3.6 h -66.2 L 1904.1,32 c -19.4,-33.4 -46.2,-55.9 -88.1,-75.4 -26.1,-12.2 -41.9,-14.6 -80.8,-14.6 -41.9,0 -54.1,3 -86.9,18.8 -45.6,22.5 -71.1,49.8 -96.6,103.9 -17.6,36.5 -18.8,44.4 -18.8,103.3 0,58.9 1.2,66.8 18.8,103.3 10.3,21.9 29.2,50.4 41.9,63.2 48.6,49.2 134.9,70.5 204.8,49.8 38.9,-10.9 87.5,-51 109.4,-89.3 l 13.4,-23.7 h 66.2 c 65.6,0 65.6,0 62,14 -26.7,91.8 -124,179.9 -231.5,207.8 -43.8,11.7 -122.2,11.1 -164.8,0.1 z"
   id="path627"
   style="fill:#ffffff" />
	<path
   d="m 2376.3,493.2 c -137.3,-37.1 -231.5,-155 -242.5,-302 -11.5,-155.6 79.6,-297.2 222.4,-345.8 55.3,-18.8 144.6,-19.4 203.6,-1.2 83.3,26.1 158,89.9 196.3,167.1 10.9,21.9 19.4,41.3 19.4,43.8 0,1.8 -29.8,3.6 -66.2,3.6 H 2643 L 2627.2,32 C 2607.8,-1.4 2581,-23.9 2539.1,-43.4 2513,-55.6 2497.2,-58 2458.3,-58 c -41.9,0 -54.1,3 -86.9,18.8 -45.6,22.5 -71.1,49.8 -96.6,103.9 -17.6,36.5 -18.8,44.4 -18.8,103.3 0,58.9 1.2,66.8 18.8,103.3 10.3,21.9 29.2,50.4 41.9,63.2 48.6,49.2 134.9,70.5 204.8,49.8 38.9,-10.9 87.5,-51 109.4,-89.3 l 13.4,-23.7 h 66.2 c 65.6,0 65.6,0 62,14 -26.7,91.8 -124,179.9 -231.5,207.8 -43.8,11.7 -122.2,11.1 -164.7,0.1 z"
   id="path629"
   style="fill:#ffffff" />
	<path
   d="M 3101.2,492.6 C 2999.1,467.7 2906.1,377.8 2872.1,272 c -18.2,-55.9 -18.2,-151.9 0,-207.8 35.9,-113 134.3,-203.6 246.7,-227.3 53.5,-10.9 74.1,-10.9 127.6,0 58.9,12.8 112.4,40.7 156.8,82 35.2,32.8 83.3,102.1 83.3,119.7 0,6.1 -15.8,7.9 -60.2,7.9 -54.1,0 -60.8,-1.2 -64.4,-11.5 -4.9,-15.8 -51,-57.7 -80.2,-72.3 -54.1,-28 -131.3,-28.6 -186.6,-1.2 -45.6,21.9 -88.1,69.9 -107.6,120.9 l -11.5,31 266.2,1.2 265.6,1.8 1.8,46.8 c 3.6,93.6 -28,173.2 -96,242.5 -81.5,82.7 -196.9,114.9 -312.4,86.9 z m 167.7,-119.1 c 62,-28.6 108.2,-85.1 117.9,-143.4 l 4.3,-25.5 h -207.8 c -113.6,0 -207.2,2.4 -207.2,4.9 0,16.4 20.7,69.9 36.5,93.6 21.3,31.6 70.5,68.1 110,81.4 40,12.7 105,7.9 146.3,-11 z"
   id="path631"
   style="fill:#ffffff" />
	<path
   d="m 3737.4,491.4 c -87.5,-31 -129.4,-89.9 -129.4,-179.9 0,-34.6 3,-50.4 15.8,-75.4 27.3,-54.7 50.4,-69.9 185.9,-119.1 45,-16.4 76.6,-42.5 83.3,-69.3 18.2,-66.8 -41.3,-119.7 -116.1,-103.9 -34.6,7.9 -61.4,35.2 -72.3,73.5 -3.6,14.6 -7.9,29.8 -9.1,34 -1.2,4.9 -18.8,7.3 -60.8,7.3 h -58.9 l 3.6,-35.9 c 4.3,-46.8 21.3,-84.5 56.5,-122.1 66.8,-71.7 185.9,-91.2 275.9,-45.6 38.3,19.4 81.4,68.7 94.2,106.9 14.6,42.5 10.3,126.4 -7.3,161 -26.1,49.2 -80.2,86.9 -172,118.5 -71.7,24.3 -88.7,35.9 -97.8,65.6 -18.8,62.6 59.6,110.6 116.7,71.7 13.4,-9.1 23.7,-23.1 29.8,-39.5 l 8.5,-25.5 h 60.2 60.2 l -4.3,29.2 c -8.5,60.2 -45,110 -102.1,139.2 -42.6,21.5 -114.3,25.7 -160.5,9.3 z"
   id="path633"
   style="fill:#ffffff" />
	<path
   d="m 4229.7,491.4 c -87.5,-31 -129.4,-89.9 -129.4,-179.9 0,-34.6 3,-50.4 15.8,-75.4 27.3,-54.7 50.4,-69.9 185.9,-119.1 45,-16.4 76.6,-42.5 83.3,-69.3 18.2,-66.8 -41.3,-119.7 -116.1,-103.9 -34.6,7.9 -61.4,35.2 -72.3,73.5 -3.6,14.6 -7.9,29.8 -9.1,34 -1.2,4.9 -18.8,7.3 -60.8,7.3 h -59 l 3.6,-35.9 c 4.3,-46.8 21.3,-84.5 56.5,-122.1 66.8,-71.7 185.9,-91.2 275.9,-45.6 38.3,19.4 81.4,68.7 94.2,106.9 14.6,42.5 10.3,126.4 -7.3,161 -26.1,49.2 -80.2,86.9 -172,118.5 -71.7,24.3 -88.7,35.9 -97.8,65.6 -18.8,62.6 59.6,110.6 116.7,71.7 13.4,-9.1 23.7,-23.1 29.8,-39.5 l 8.5,-25.5 h 60.2 60.2 l -4.3,29.2 c -8.5,60.2 -45,110 -102.1,139.2 -42.6,21.5 -114.3,25.7 -160.4,9.3 z"
   id="path635"
   style="fill:#ffffff" />
</g>
</svg>
