<?xml version="1.0" encoding="UTF-8" standalone="no"?>
<svg
   version="1.1"
   viewBox="0 0 42.900002 17.5"
   xml:space="preserve"
   id="svg19"
   sodipodi:docname="social.svg"
   width="42.900002"
   height="17.5"
   xmlns:inkscape="http://www.inkscape.org/namespaces/inkscape"
   xmlns:sodipodi="http://sodipodi.sourceforge.net/DTD/sodipodi-0.dtd"
   xmlns="http://www.w3.org/2000/svg"
   xmlns:svg="http://www.w3.org/2000/svg"><defs
     id="defs23" /><sodipodi:namedview
     id="namedview21"
     pagecolor="#ffffff"
     bordercolor="#000000"
     borderopacity="0.25"
     inkscape:showpageshadow="2"
     inkscape:pageopacity="0.0"
     inkscape:pagecheckerboard="0"
     inkscape:deskcolor="#d1d1d1"
     showgrid="false" /><style
     type="text/css"
     id="style2">
	.st0{fill:#231F20;}
	.st1{fill-rule:evenodd;clip-rule:evenodd;fill:#231F20;}
	.st2{fill-rule:evenodd;clip-rule:evenodd;}
</style><g
     id="Layer_1"
     transform="translate(-27.799999,-41.4)"><g
       id="IMDB"
       style="fill:#ffffff"><rect
         class="st2"
         height="17.200001"
         width="4.4000001"
         x="27.799999"
         y="41.5"
         id="rect9"
         style="fill:#ffffff" /><path
         class="st2"
         d="m 41.7,41.5 -1,8 -0.7,-4.3 c -0.2,-1.4 -0.4,-2.6 -0.5,-3.7 h -5.8 v 17.2 h 3.9 V 47.4 l 1.6,11.3 H 42 l 1.6,-11.6 v 11.6 h 3.9 V 41.5 Z"
         id="path11"
         style="fill:#ffffff" /><path
         class="st2"
         d="m 54.3,58.7 c 1.1,0 1.9,-0.1 2.4,-0.2 0.5,-0.1 1,-0.3 1.3,-0.6 0.4,-0.3 0.6,-0.7 0.8,-1.2 0.1,-0.5 0.2,-1.6 0.2,-3.1 v -6 c 0,-1.6 -0.1,-2.7 -0.2,-3.3 -0.1,-0.6 -0.3,-1.1 -0.7,-1.5 -0.4,-0.5 -1,-0.8 -1.7,-1 -0.7,-0.2 -2,-0.3 -4.1,-0.3 H 49 v 17.2 z m 0.1,-14.1 c 0.2,0.1 0.3,0.3 0.3,0.5 0.1,0.2 0.1,0.7 0.1,1.5 v 6.7 c 0,1.1 -0.1,1.8 -0.2,2.1 -0.1,0.3 -0.5,0.4 -1.2,0.4 V 44.5 c 0.5,0 0.8,0 1,0.1 z"
         id="path13"
         style="fill:#ffffff" /><path
         class="st2"
         d="m 60.6,41.5 v 17.2 h 4 l 0.3,-1.1 c 0.4,0.4 0.8,0.8 1.2,1 0.4,0.2 1.1,0.3 1.6,0.3 0.7,0 1.3,-0.2 1.8,-0.6 0.5,-0.4 0.8,-0.8 1,-1.3 0.1,-0.5 0.2,-1.3 0.2,-2.3 v -4.8 c 0,-1 0,-1.7 -0.1,-2 0,-0.3 -0.2,-0.6 -0.4,-1 -0.2,-0.3 -0.6,-0.6 -1,-0.8 -0.4,-0.2 -0.9,-0.3 -1.5,-0.3 -0.5,0 -1.2,0.1 -1.6,0.3 -0.4,0.2 -0.8,0.5 -1.2,0.9 v -5.6 h -4.3 z m 5.7,13 c 0,0.8 0,1.3 -0.1,1.6 -0.1,0.2 -0.4,0.3 -0.7,0.3 -0.3,0 -0.4,-0.1 -0.5,-0.3 -0.1,-0.2 -0.1,-0.7 -0.1,-1.5 v -4.5 c 0,-0.8 0,-1.3 0.1,-1.5 0.1,-0.2 0.3,-0.3 0.5,-0.3 0.3,0 0.6,0.1 0.7,0.3 0.1,0.2 0.1,0.7 0.1,1.4 z"
         id="path15"
         style="fill:#ffffff" /></g></g></svg>
