<?xml version="1.0" encoding="UTF-8" standalone="no"?>
<svg
   version="1.0"
   width="229.5pt"
   height="168.91449pt"
   viewBox="0 0 229.5 168.91449"
   preserveAspectRatio="xMidYMid"
   id="svg76"
   sodipodi:docname="picsvg_download.svg"
   inkscape:export-filename="picsvg_download.svg"
   inkscape:export-xdpi="96"
   inkscape:export-ydpi="96"
   xmlns:inkscape="http://www.inkscape.org/namespaces/inkscape"
   xmlns:sodipodi="http://sodipodi.sourceforge.net/DTD/sodipodi-0.dtd"
   xmlns="http://www.w3.org/2000/svg"
   xmlns:svg="http://www.w3.org/2000/svg">
  <defs
     id="defs80" />
  <sodipodi:namedview
     id="namedview78"
     pagecolor="#ffffff"
     bordercolor="#000000"
     borderopacity="0.25"
     inkscape:showpageshadow="2"
     inkscape:pageopacity="0.0"
     inkscape:pagecheckerboard="0"
     inkscape:deskcolor="#d1d1d1"
     inkscape:document-units="pt"
     showgrid="false" />
  <g
     transform="matrix(0.05,0,0,-0.05,-28,207.95199)"
     fill="#ffffff"
     stroke="none"
     id="g74"
     style="fill:#ffffff">
    <path
       d="m 1710,4082 -200,-76 v -73 c 0,-83 -1,-84 -88,-41 -121,60 -295,-27 -278,-139 8,-55 56,-67 56,-15 0,54 79,74 152,39 209,-103 203,-511 -10,-609 -118,-55 -106,-59 143,-52 138,5 295,-4 405,-23 l 180,-29 109,107 c 115,113 126,150 29,99 -39,-20 -116,-30 -238,-30 h -180 v 400 c 0,426 0,426 100,360 82,-54 108,-50 200,32 73,64 75,70 28,60 -31,-7 -82,5 -129,28 -43,22 -78,40 -78,39 -1,0 -91,-35 -201,-77 z m 50,-430 v -407 l -129,-33 c -171,-42 -172,-42 -85,30 124,102 134,138 134,484 0,308 4,334 53,334 22,0 27,-81 27,-408 z"
       id="path2"
       style="fill:#ffffff" />
    <path
       d="m 2087,3909 c -49,-75 -60,-233 -19,-274 27,-27 28,-36 5,-49 -15,-9 -32,-54 -38,-100 -14,-109 79,-188 159,-135 56,37 66,36 66,-1 0,-25 15,-23 85,14 63,32 75,46 49,52 -32,7 -36,30 -33,240 l 4,232 -98,35 c -131,46 -141,45 -180,-14 z m 134,-70 c 31,-16 39,-42 39,-120 v -99 h -69 c -96,0 -138,47 -121,138 21,110 59,131 151,81 z m 39,-328 c 0,-103 -17,-121 -77,-79 -77,54 -56,168 30,168 42,0 47,-9 47,-89 z"
       id="path4"
       style="fill:#ffffff" />
    <path
       d="m 2525,3913 -83,-40 -6,-209 c -6,-208 -6,-209 49,-248 l 56,-39 -91,-101 c -90,-100 -109,-158 -28,-85 41,38 43,37 122,-6 l 81,-44 96,54 c 118,66 124,86 83,270 -19,80 -33,188 -33,240 -1,107 -8,113 -63,53 -30,-34 -37,-68 -33,-170 5,-137 -10,-154 -96,-107 -34,18 -39,43 -39,202 v 182 l 70,-12 c 39,-7 101,-19 140,-26 54,-9 72,-5 82,21 30,77 -188,123 -307,65 z m 191,-562 c 11,-126 -3,-139 -96,-91 -97,49 -98,63 -15,128 82,65 103,58 111,-37 z"
       id="path6"
       style="fill:#ffffff" />
    <path
       d="m 2893,3918 c -22,-32 -26,-53 -11,-70 12,-14 19,-116 17,-238 l -4,-213 65,-40 c 59,-36 68,-36 99,-8 43,39 61,39 61,1 0,-40 10,-38 96,20 40,28 62,50 49,50 -18,0 -25,62 -25,236 v 235 l -57,34 c -55,32 -59,32 -92,-4 -31,-34 -31,-39 -1,-56 60,-33 55,-445 -5,-445 -66,0 -89,79 -82,285 4,156 0,181 -36,217 l -42,42 z"
       id="path8"
       style="fill:#ffffff" />
    <path
       d="m 3503,3928 c -40,-28 -54,-29 -95,-7 -67,36 -124,-14 -90,-77 12,-23 22,-143 22,-273 v -231 h 49 50 l 5,263 c 6,272 19,311 84,246 26,-26 32,-77 32,-270 0,-178 6,-239 25,-239 34,1 131,79 99,80 -21,0 -26,50 -22,232 5,225 3,234 -44,270 -59,46 -58,45 -115,6 z"
       id="path10"
       style="fill:#ffffff" />
    <path
       d="m 3792,3892 c -54,-115 -61,-186 -22,-244 28,-43 29,-56 8,-69 -15,-9 -29,-53 -32,-97 -7,-111 83,-184 163,-131 47,31 51,31 51,1 0,-41 5,-41 106,12 60,31 74,46 49,51 -31,7 -35,35 -35,243 v 235 l -107,33 c -141,45 -143,45 -181,-34 z m 151,-65 c 25,-22 37,-61 37,-120 v -87 h -76 c -115,0 -148,59 -111,195 14,55 96,61 150,12 z m 33,-315 c 7,-87 -23,-121 -80,-90 -36,20 -52,136 -22,166 41,41 96,0 102,-76 z"
       id="path12"
       style="fill:#ffffff" />
    <path
       d="m 2480,2912 c 0,-125 -36,-157 -85,-75 -17,29 -54,74 -82,100 l -51,48 -106,-101 c -58,-56 -98,-108 -89,-118 9,-9 28,0 42,19 91,124 131,13 131,-360 v -317 l -61,-46 c -78,-57 -128,-162 -111,-230 18,-71 45,-66 45,9 0,150 163,208 396,142 157,-45 159,-44 327,81 l 106,78 -6,164 -6,164 -103,68 -103,68 113,98 c 145,126 144,121 19,205 -128,86 -148,87 -237,12 -90,-78 -99,-76 -99,19 0,44 -9,80 -20,80 -11,0 -20,-49 -20,-108 z m 242,-116 c 101,-56 101,-54 -57,-188 l -135,-115 -6,145 c -8,209 40,247 198,158 z m -242,-336 v -300 h -58 c -32,0 -75,-6 -95,-13 -25,-9 -15,10 28,56 l 65,69 v 231 c 0,127 6,236 13,244 39,38 47,-13 47,-287 z m 209,-28 c 94,-40 146,-229 91,-332 -19,-36 -24,-36 -140,6 l -120,44 v 155 c 0,175 19,189 169,127 z"
       id="path14"
       style="fill:#ffffff" />
    <path
       d="m 4146,2973 c -53,-26 -59,-88 -50,-498 l 6,-275 h 49 49 v 270 c 0,282 3,291 88,258 27,-10 32,-53 32,-269 v -256 l 80,32 c 44,17 80,39 80,49 0,10 -9,13 -20,6 -13,-8 -20,73 -20,228 v 241 l -62,32 c -55,29 -65,29 -109,0 -70,-46 -73,-42 -66,89 4,66 3,119 -3,118 -5,-2 -30,-13 -54,-25 z"
       id="path16"
       style="fill:#ffffff" />
    <path
       d="m 3080,2781 -70,-37 -10,-233 -10,-233 82,-46 82,-46 78,41 78,40 -78,17 c -172,37 -177,115 -21,326 88,119 103,150 74,150 -21,0 -55,13 -76,29 -48,37 -44,37 -129,-8 z m 86,-91 c 35,-49 34,-52 -15,-124 l -51,-75 v 124 c 0,136 11,149 66,75 z"
       id="path18"
       style="fill:#ffffff" />
    <path
       d="m 3412,2805 c -68,-67 -91,-251 -39,-308 30,-33 30,-37 0,-49 -60,-23 -44,-177 22,-225 49,-34 61,-36 94,-11 50,36 71,35 71,-2 0,-25 15,-23 85,14 64,33 76,46 48,52 -34,7 -37,27 -30,244 l 7,236 -102,32 c -114,36 -135,38 -156,17 z m 124,-109 c 13,-13 24,-67 24,-120 v -96 h -70 c -109,0 -158,115 -96,225 13,24 116,17 142,-9 z m 24,-326 c 0,-94 -40,-122 -96,-66 -57,57 -26,156 49,156 42,0 47,-9 47,-90 z"
       id="path20"
       style="fill:#ffffff" />
    <path
       d="m 3835,2775 -75,-43 v -234 c 0,-297 57,-358 240,-258 l 70,38 -63,1 c -125,2 -127,5 -127,241 v 216 l 70,-16 c 69,-16 110,12 110,74 0,36 -152,23 -225,-19 z"
       id="path22"
       style="fill:#ffffff" />
    <path
       d="m 698,1842 c -50,-49 -78,-96 -78,-128 0,-72 36,-87 44,-19 7,61 51,67 263,34 95,-14 97,-16 85,-77 -45,-243 -54,-342 -42,-505 7,-113 5,-188 -8,-196 -15,-9 -165,48 -220,84 -5,3 11,27 36,53 33,35 38,52 21,63 -14,8 -31,2 -41,-13 -8,-15 -57,-82 -107,-148 -50,-66 -91,-140 -91,-165 0,-59 35,-59 44,0 6,48 61,55 181,24 43,-11 86,4 207,73 l 152,87 -14,331 -13,330 51,69 c 67,88 66,95 -15,85 -41,-5 -116,12 -197,44 -165,67 -166,66 -258,-26 z"
       id="path24"
       style="fill:#ffffff" />
    <path
       d="m 1920,1880 c -16,-11 -61,-15 -100,-10 -69,9 -69,9 -15,-14 62,-27 83,-149 26,-149 -16,0 -65,-16 -109,-36 l -80,-36 -6,-233 c -8,-293 26,-341 189,-272 25,10 35,5 35,-18 0,-42 11,-41 98,13 54,33 63,46 37,51 -31,6 -35,44 -40,365 -4,312 -9,355 -35,339 z m -95,-268 c 41,-31 54,-432 14,-432 -85,0 -99,36 -99,251 0,218 9,239 85,181 z"
       id="path26"
       style="fill:#ffffff" />
    <path
       d="m 3910,1879 c -7,-11 -46,-16 -87,-10 -71,10 -71,9 -18,-13 44,-19 55,-37 55,-91 0,-38 -8,-62 -19,-55 -11,6 -62,-10 -113,-36 l -94,-48 v -236 c 0,-269 39,-345 140,-279 56,36 66,36 66,-1 0,-43 31,-37 116,20 47,32 61,50 39,50 -32,0 -35,32 -35,360 0,330 -11,403 -50,339 z m -94,-270 c 49,-35 70,-429 23,-429 -85,0 -99,36 -99,251 0,219 4,228 76,178 z"
       id="path28"
       style="fill:#ffffff" />
    <path
       d="m 4873,1717 c -66,-54 -72,-66 -44,-82 28,-15 33,-52 30,-241 l -4,-222 65,-45 66,-45 82,43 82,43 -77,13 c -104,18 -114,40 -108,249 l 5,180 80,10 c 53,7 80,20 80,40 0,22 -22,30 -80,30 -70,0 -80,6 -78,45 2,59 -8,57 -99,-18 z"
       id="path30"
       style="fill:#ffffff" />
    <path
       d="m 1375,1689 c -43,-24 -62,-25 -92,-6 -57,36 -111,7 -91,-48 9,-25 18,-153 21,-285 l 4,-240 52,-6 51,-7 v 272 c 0,221 5,271 29,271 74,0 91,-56 91,-301 0,-132 5,-239 11,-239 40,0 132,66 110,79 -18,11 -23,79 -18,247 8,252 15,231 -103,288 -5,2 -35,-9 -65,-25 z"
       id="path32"
       style="fill:#ffffff" />
    <path
       d="m 2150,1677 -80,-40 v -237 -237 l 81,-39 c 80,-39 80,-39 160,3 74,39 76,42 29,48 -197,26 -213,116 -60,327 98,134 118,172 82,149 -9,-6 -40,7 -68,29 -59,47 -45,47 -144,-3 z m 110,-135 c -1,-18 -18,-54 -40,-82 l -39,-50 -1,118 c 0,117 0,118 40,82 22,-20 40,-51 40,-68 z"
       id="path34"
       style="fill:#ffffff" />
    <path
       d="m 2434,1685 c -22,-25 -26,-45 -13,-65 26,-43 24,-414 -4,-465 -17,-32 -17,-45 0,-51 13,-4 23,-50 23,-108 0,-84 5,-97 28,-78 21,18 40,17 80,-1 69,-31 86,-11 32,43 -63,63 -47,132 30,124 133,-12 169,54 172,323 l 3,237 -64,38 c -60,37 -66,37 -121,5 -55,-33 -61,-33 -96,-1 -35,32 -39,32 -70,-1 z m 209,-78 c 41,-37 56,-413 18,-436 -88,-55 -121,8 -121,228 0,253 17,286 103,208 z"
       id="path36"
       style="fill:#ffffff" />
    <path
       d="m 2915,1679 -75,-40 v -208 c 0,-114 -5,-220 -11,-235 -6,-18 21,-42 76,-69 l 86,-42 80,41 79,42 -85,15 c -168,30 -175,113 -25,319 98,134 118,172 82,149 -9,-6 -40,7 -68,29 -60,47 -46,48 -139,-1 z m 105,-137 c -1,-18 -18,-54 -40,-82 l -39,-50 -1,118 c 0,117 0,118 40,82 22,-20 40,-51 40,-68 z"
       id="path38"
       style="fill:#ffffff" />
    <path
       d="m 3194,1684 c -27,-29 -28,-42 -9,-61 17,-17 25,-102 25,-274 l -1,-249 h 56 55 v 270 c 0,284 12,316 87,233 27,-29 33,-80 33,-270 0,-128 5,-233 11,-233 39,0 132,66 111,79 -17,10 -23,83 -21,241 5,270 -34,336 -160,271 -55,-29 -66,-29 -108,-1 -42,28 -49,27 -79,-6 z"
       id="path40"
       style="fill:#ffffff" />
    <path
       d="m 4135,1679 -75,-40 v -208 c 0,-114 -5,-220 -11,-235 -6,-18 21,-42 76,-69 l 86,-42 80,41 79,42 -74,13 c -170,29 -180,119 -36,317 96,132 120,177 82,153 -9,-6 -40,7 -68,29 -60,47 -46,48 -139,-1 z m 104,-117 c 11,-22 1,-55 -31,-101 l -48,-70 v 127 c 0,129 26,144 79,44 z"
       id="path42"
       style="fill:#ffffff" />
    <path
       d="m 4593,1687 c -41,-22 -63,-25 -79,-9 -65,65 -141,3 -99,-82 23,-46 28,-110 21,-278 l -9,-218 h 57 56 v 270 c 0,221 5,270 29,270 74,0 91,-56 91,-301 0,-132 5,-239 11,-239 39,0 132,66 111,79 -17,10 -23,83 -21,241 4,216 2,228 -44,263 -56,43 -53,43 -124,4 z"
       id="path44"
       style="fill:#ffffff" />
  </g>
</svg>
