<?xml version="1.0" encoding="UTF-8" standalone="no"?>
<svg
   version="1.0"
   width="900pt"
   height="915pt"
   viewBox="0 0 900 915"
   preserveAspectRatio="xMidYMid"
   id="svg452"
   sodipodi:docname="picsvg_download.svg"
   xmlns:inkscape="http://www.inkscape.org/namespaces/inkscape"
   xmlns:sodipodi="http://sodipodi.sourceforge.net/DTD/sodipodi-0.dtd"
   xmlns="http://www.w3.org/2000/svg"
   xmlns:svg="http://www.w3.org/2000/svg">
  <defs
     id="defs456" />
  <sodipodi:namedview
     id="namedview454"
     pagecolor="#ffffff"
     bordercolor="#000000"
     borderopacity="0.25"
     inkscape:showpageshadow="2"
     inkscape:pageopacity="0.0"
     inkscape:pagecheckerboard="0"
     inkscape:deskcolor="#d1d1d1"
     inkscape:document-units="pt"
     showgrid="false" />
  <g
     transform="matrix(0.1,0,0,-0.1,0,915)"
     fill="#ffffff"
     stroke="none"
     id="g450">
    <path
       d="m 4152,9133 c 2,-12 14,-19 36,-21 29,-3 32,-6 32,-38 0,-19 5,-146 11,-282 12,-270 9,-295 -37,-313 -60,-22 -6,-30 196,-29 112,0 207,3 211,6 5,2 11,21 15,42 4,20 11,43 16,49 16,20 1,45 -23,41 -14,-2 -25,-15 -33,-38 l -11,-35 h -109 -110 l -7,30 c -10,41 -30,531 -23,550 4,8 14,15 24,15 29,0 50,11 50,26 0,11 -24,14 -121,14 -109,0 -120,-2 -117,-17 z"
       id="path280" />
    <path
       d="m 4814,9134 c 3,-9 6,-18 6,-20 0,-2 9,-4 20,-4 42,0 52,-87 25,-215 -8,-39 -15,-95 -15,-125 0,-30 -7,-80 -15,-110 -8,-30 -15,-73 -15,-95 0,-50 -23,-85 -56,-85 -14,0 -24,-6 -24,-15 0,-15 17,-21 85,-28 22,-3 83,-13 135,-22 52,-10 115,-18 139,-19 41,-1 45,1 54,29 5,17 16,37 23,46 18,20 18,38 -1,45 -8,4 -27,-9 -46,-31 l -32,-36 -66,7 c -36,3 -78,13 -93,21 -25,12 -28,19 -28,67 0,30 4,76 10,103 5,26 12,65 15,86 6,35 9,38 28,32 12,-4 45,-10 74,-15 65,-10 71,-14 80,-51 11,-39 26,-38 36,3 5,18 13,48 18,66 14,43 7,49 -36,33 -25,-9 -44,-9 -72,-2 -21,6 -57,11 -80,11 -50,0 -50,2 -28,95 8,33 15,79 15,102 0,23 4,44 8,47 16,10 157,-16 175,-31 9,-9 17,-25 17,-35 0,-18 26,-36 37,-25 3,3 7,31 10,61 5,61 3,62 -73,65 -23,1 -57,6 -75,11 -19,6 -64,10 -101,10 -75,0 -98,6 -98,26 0,9 -11,14 -31,14 -24,0 -30,-3 -25,-16 z"
       id="path282" />
    <path
       d="m 3635,9069 c -31,-13 -61,-18 -78,-15 -38,8 -77,-3 -77,-20 0,-9 12,-14 35,-14 33,0 38,-4 55,-42 11,-24 20,-59 20,-79 0,-20 7,-58 15,-85 8,-27 15,-65 15,-85 0,-19 6,-58 14,-85 8,-27 18,-90 22,-140 6,-92 6,-92 -20,-110 -24,-15 -25,-19 -13,-32 13,-13 19,-12 49,3 18,10 69,22 113,26 145,14 237,34 252,55 20,28 14,118 -9,122 -14,3 -19,-6 -24,-36 -5,-35 -11,-42 -48,-57 -22,-9 -73,-19 -112,-22 l -71,-6 -16,42 c -10,23 -17,56 -17,75 0,18 -7,55 -15,82 -8,27 -15,65 -15,85 0,20 -7,58 -15,85 -8,27 -15,65 -15,84 0,19 -4,51 -10,70 -13,46 -5,66 30,79 28,9 42,31 21,31 -5,0 -15,2 -23,4 -7,3 -35,-4 -63,-15 z"
       id="path284" />
    <path
       d="m 5344,9048 c -4,-6 1,-17 12,-24 36,-25 62,-57 67,-83 3,-14 9,-39 15,-56 6,-16 15,-46 22,-65 7,-19 15,-51 19,-70 4,-19 13,-45 19,-57 17,-30 15,-152 -3,-183 -8,-14 -14,-35 -15,-48 0,-12 -9,-41 -20,-62 -17,-33 -26,-40 -50,-40 -46,0 -38,-27 13,-39 100,-24 119,-30 136,-45 22,-20 32,-20 56,-2 18,13 18,15 -15,28 -66,28 -67,31 -14,198 8,25 14,52 14,60 1,22 22,44 150,155 63,55 117,103 120,106 12,16 78,36 91,29 18,-12 29,-3 29,24 0,21 -6,24 -56,29 -31,3 -62,11 -67,16 -14,14 -57,14 -57,2 0,-6 5,-13 10,-16 6,-3 10,-12 10,-20 0,-17 -225,-240 -243,-240 -7,0 -14,21 -18,55 -3,31 -11,65 -17,77 -7,12 -12,34 -12,50 -1,15 -7,39 -15,53 -20,35 -19,106 1,114 24,9 6,26 -27,26 -16,0 -46,9 -66,20 -42,22 -78,26 -89,8 z"
       id="path286" />
    <path
       d="m 2928,8548 c -2,-270 -6,-352 -15,-356 -7,-2 -13,-10 -13,-18 0,-8 -13,-17 -30,-21 -21,-4 -30,-11 -28,-22 5,-24 47,-25 79,-2 15,12 37,21 48,21 26,0 81,32 81,48 0,7 -13,12 -30,12 h -30 v 104 c 0,112 3,120 55,131 28,6 54,16 117,45 29,14 47,6 74,-30 7,-8 33,-37 58,-65 25,-27 49,-61 52,-73 7,-26 6,-26 109,-2 54,12 93,46 76,63 -7,7 -19,6 -36,-3 -21,-11 -29,-11 -50,0 -29,15 -146,135 -246,252 -39,44 -83,93 -97,108 -15,15 -45,49 -67,75 -59,71 -73,85 -89,85 -12,0 -15,-56 -18,-352 z m 123,132 c 18,-25 38,-49 44,-55 55,-54 68,-75 56,-89 -7,-9 -29,-18 -50,-22 -20,-4 -45,-13 -56,-20 -11,-8 -27,-14 -37,-14 -15,0 -17,14 -20,116 -3,108 5,157 21,137 4,-4 23,-28 42,-53 z"
       id="path288" />
    <path
       d="m 2630,8771 c 0,-5 -8,-12 -17,-15 -36,-13 -137,-74 -141,-85 -2,-6 9,-11 27,-11 18,0 33,-6 35,-12 17,-62 29,-133 36,-206 5,-48 13,-114 18,-147 26,-157 22,-199 -17,-159 -35,37 -101,95 -227,199 -172,142 -157,126 -140,160 9,16 14,31 11,33 -7,7 -46,-10 -63,-27 -9,-10 -39,-26 -67,-37 -63,-23 -104,-59 -88,-75 9,-9 18,-8 37,5 44,29 60,22 176,-69 35,-27 71,-57 80,-66 9,-8 53,-44 99,-80 183,-142 204,-160 228,-185 44,-47 52,-29 47,103 -3,65 -9,145 -15,178 -5,33 -14,112 -20,175 -5,63 -13,140 -18,170 -10,64 -8,72 30,113 15,17 26,34 23,39 -7,11 -34,10 -34,-1 z"
       id="path290" />
    <path
       d="m 6515,8521 c -22,-9 -54,-24 -71,-33 -37,-20 -124,-106 -124,-123 0,-7 -7,-18 -15,-25 -8,-7 -15,-22 -15,-34 0,-11 -7,-30 -15,-40 -21,-27 -19,-135 1,-183 36,-82 51,-106 96,-153 66,-69 232,-170 279,-170 19,0 129,96 129,112 0,23 -35,18 -75,-11 -52,-38 -64,-38 -136,-3 -104,50 -170,125 -198,225 -34,118 5,234 114,339 11,11 40,29 65,40 51,24 134,21 185,-6 17,-9 36,-16 43,-16 6,0 12,-4 12,-10 0,-5 6,-10 13,-10 20,0 104,-78 121,-112 20,-39 20,-58 0,-86 -15,-22 -11,-62 6,-62 12,0 60,71 60,87 0,7 4,13 9,13 5,0 14,13 19,29 9,26 8,32 -12,45 -13,8 -39,29 -57,46 -43,39 -150,110 -166,110 -7,0 -13,4 -13,10 0,5 -18,13 -40,16 -22,4 -43,11 -46,15 -9,15 -127,8 -169,-10 z"
       id="path292" />
    <path
       d="m 7125,8045 c -16,-7 -37,-16 -45,-20 -58,-23 -140,-104 -167,-163 -46,-103 -53,-179 -24,-265 38,-117 105,-185 242,-247 34,-15 192,-8 240,11 84,34 185,134 218,218 23,59 25,154 5,208 -39,106 -117,198 -199,237 -22,10 -48,23 -57,27 -28,14 -179,9 -213,-6 z m 244,-67 c 61,-30 95,-62 128,-117 23,-39 27,-57 27,-121 0,-97 -26,-153 -108,-236 -86,-86 -134,-107 -228,-103 -54,3 -80,9 -92,22 -10,9 -21,17 -25,17 -18,0 -76,70 -98,120 -32,71 -28,141 11,223 32,67 121,163 181,194 56,30 143,30 204,1 z"
       id="path294" />
    <path
       d="m 1486,8012 c -6,-18 -151,-163 -229,-229 -20,-17 -37,-36 -37,-42 0,-16 36,-13 50,4 7,8 21,15 31,15 22,0 354,-336 408,-412 11,-16 11,-24 1,-43 -7,-13 -10,-31 -6,-40 5,-13 21,-1 78,57 40,40 106,104 146,141 63,58 73,72 68,92 -7,26 -62,95 -76,95 -16,0 -19,-30 -5,-44 29,-29 17,-68 -39,-125 -76,-77 -88,-75 -198,36 -48,50 -88,94 -87,99 0,5 27,30 59,57 57,45 92,58 105,37 10,-15 35,-12 35,5 0,8 -4,15 -8,15 -4,0 -21,20 -36,44 -31,49 -43,50 -69,7 -20,-34 -108,-131 -119,-131 -10,0 -179,173 -176,181 2,4 31,30 64,58 63,52 90,61 112,39 10,-10 15,-10 22,2 14,21 14,22 -26,63 -40,41 -60,46 -68,19 z"
       id="path296" />
    <path
       d="m 4323,7678 c -95,-98 -123,-143 -148,-240 -14,-54 -14,-65 1,-116 22,-76 55,-125 131,-198 60,-58 63,-63 56,-95 -10,-47 -9,-239 1,-266 6,-18 5,-23 -8,-23 -9,0 -16,5 -16,10 0,6 -7,10 -15,10 -8,0 -15,6 -15,13 0,8 -33,47 -72,87 -98,99 -108,115 -108,177 0,125 -54,260 -133,334 -50,47 -152,99 -193,99 -16,0 -43,4 -60,9 -21,6 -56,4 -108,-7 l -78,-15 5,-46 c 13,-121 27,-205 37,-215 5,-5 10,-20 10,-32 0,-13 7,-29 15,-38 8,-8 15,-21 15,-29 0,-15 86,-106 131,-139 12,-10 30,-18 39,-18 9,0 22,-6 29,-12 13,-14 145,-17 194,-4 29,7 31,6 181,-159 43,-48 89,-138 111,-222 18,-63 17,-175 -1,-631 -5,-116 -3,-156 11,-214 15,-59 15,-72 4,-79 -17,-10 -8,-19 -116,126 -120,163 -183,300 -183,402 0,32 5,44 26,59 69,49 124,95 124,103 0,4 9,18 20,31 11,13 20,33 20,46 0,13 5,26 10,29 6,3 10,17 10,31 0,30 -29,123 -44,142 -46,58 -106,116 -158,152 -34,23 -74,51 -89,62 l -28,21 -20,-24 c -11,-13 -20,-30 -21,-37 0,-7 -7,-15 -15,-18 -8,-4 -15,-14 -15,-24 0,-9 -9,-25 -20,-35 -11,-10 -20,-26 -20,-35 0,-10 -7,-23 -15,-30 -8,-7 -15,-20 -15,-30 0,-10 -7,-31 -15,-46 -23,-45 -20,-160 6,-209 25,-47 66,-93 94,-106 74,-35 89,-54 99,-123 4,-27 9,-54 12,-60 2,-6 0,-17 -5,-25 -7,-11 -30,7 -98,77 -48,50 -126,123 -173,163 -47,39 -87,75 -90,78 -3,4 -68,63 -145,133 -78,69 -154,145 -169,167 -16,23 -32,41 -36,41 -4,0 -10,8 -14,18 -3,9 -15,31 -26,47 -11,17 -21,35 -23,40 -2,6 -10,26 -17,45 -14,36 -26,227 -16,264 4,18 13,21 60,22 36,1 66,9 88,22 68,42 127,129 129,188 1,22 4,50 8,63 8,28 -12,180 -28,207 -5,11 -20,41 -32,67 l -23,48 -41,-6 c -47,-8 -60,-18 -49,-37 10,-15 6,-48 -8,-65 -13,-16 -78,-146 -78,-156 0,-5 -6,-23 -13,-40 -28,-66 -39,-104 -48,-160 -10,-66 -15,-77 -32,-77 -27,0 -107,148 -107,197 0,67 75,168 165,223 22,13 42,27 45,31 3,4 18,12 33,18 38,15 34,31 -8,31 -19,0 -35,-4 -35,-9 0,-5 -13,-12 -30,-16 -16,-4 -30,-10 -30,-15 0,-4 -10,-10 -22,-13 -27,-7 -116,-89 -143,-132 -12,-19 -20,-55 -23,-101 -6,-89 9,-124 93,-211 l 62,-65 6,-139 c 3,-80 1,-141 -4,-145 -5,-3 -81,68 -169,157 -159,161 -185,200 -146,215 8,3 17,23 21,45 4,21 11,41 16,45 14,8 10,62 -10,139 -21,84 -34,110 -76,152 -41,41 -157,103 -193,103 -15,0 -32,4 -38,10 -5,5 -54,10 -109,12 l -100,3 -6,-55 c -3,-31 -11,-66 -18,-79 -19,-34 1,-242 25,-262 8,-6 14,-17 14,-25 0,-21 60,-103 88,-122 15,-9 29,-19 32,-23 3,-4 27,-17 54,-29 43,-19 62,-22 133,-18 l 83,4 134,-130 c 73,-72 170,-167 215,-210 74,-72 96,-108 60,-97 -8,3 -38,9 -66,15 -48,9 -54,14 -64,45 -14,42 -89,119 -144,147 -60,31 -186,58 -237,50 -24,-3 -72,-10 -107,-15 -34,-5 -68,-14 -74,-20 -6,-6 -21,-11 -33,-11 -12,0 -27,-7 -34,-15 -7,-8 -18,-15 -24,-15 -17,0 -133,-87 -140,-105 -3,-9 12,-28 41,-52 26,-21 62,-51 79,-68 43,-40 106,-83 174,-120 52,-28 62,-29 170,-30 h 115 l 55,36 c 30,20 75,55 100,78 42,38 49,41 106,41 72,0 152,-32 204,-81 9,-8 25,-22 36,-30 10,-8 25,-25 32,-38 13,-22 12,-23 -5,-16 -42,17 -162,40 -208,39 -66,0 -162,-21 -194,-42 -14,-9 -37,-29 -51,-43 -15,-16 -50,-33 -85,-43 -33,-10 -76,-25 -95,-34 -48,-22 -120,-80 -131,-106 -5,-11 -13,-28 -18,-36 -32,-55 -41,-96 -41,-192 0,-124 17,-167 100,-248 51,-50 86,-69 158,-87 30,-7 166,24 229,53 71,33 106,68 142,141 27,55 31,72 31,148 0,81 -10,125 -41,175 -5,8 -13,25 -19,38 -16,36 -93,108 -146,134 -56,28 -63,49 -19,59 17,4 48,12 70,18 50,13 184,13 250,0 28,-6 70,-13 95,-16 25,-3 54,-12 65,-19 11,-8 26,-14 34,-14 19,0 82,-53 171,-145 41,-42 120,-123 175,-179 55,-56 134,-139 175,-186 41,-47 85,-96 98,-110 51,-54 170,-208 198,-255 43,-72 69,-211 60,-318 -19,-238 -19,-283 -1,-340 28,-91 7,-115 -41,-44 -16,23 -31,44 -34,47 -3,3 -9,13 -15,22 -41,69 -197,281 -238,323 -37,38 -136,170 -159,212 -10,17 -18,40 -18,52 0,13 -8,23 -23,26 -22,6 -100,100 -142,173 -11,17 -22,32 -26,32 -4,0 -21,22 -37,48 -16,26 -36,54 -44,62 -8,8 -32,40 -53,70 -21,30 -41,57 -44,60 -3,3 -24,28 -45,55 -22,28 -46,56 -55,63 -12,9 -12,15 -3,24 10,10 19,9 45,-5 17,-9 47,-20 65,-23 17,-4 32,-10 32,-15 0,-5 5,-9 11,-9 16,0 101,-42 117,-57 7,-7 17,-13 21,-13 13,0 91,-80 115,-118 33,-53 54,-134 60,-231 3,-47 10,-89 16,-95 12,-12 17,2 29,85 18,132 -33,270 -127,346 -26,21 -49,41 -52,44 -10,13 -140,79 -155,79 -8,0 -15,4 -15,10 0,5 -17,12 -37,16 -21,4 -42,10 -48,14 -5,5 -31,11 -58,15 -26,4 -50,11 -53,16 -39,63 -93,-166 -79,-334 10,-122 45,-197 130,-282 60,-60 129,-105 163,-105 10,0 24,-6 30,-12 9,-9 42,-12 102,-11 l 89,2 22,-37 c 13,-20 51,-75 86,-121 89,-118 85,-133 -22,-82 -94,45 -134,61 -154,61 -10,0 -35,7 -54,15 -20,8 -53,15 -74,15 -21,0 -70,7 -108,15 -45,9 -127,15 -229,15 h -158 l -41,41 c -69,69 -156,102 -267,101 -63,0 -158,-15 -186,-30 -10,-5 -44,-21 -75,-36 -51,-23 -135,-82 -178,-125 -41,-41 -112,-143 -108,-154 3,-7 24,-19 48,-27 24,-8 73,-29 109,-47 35,-18 69,-33 76,-33 6,0 25,-7 40,-15 16,-8 36,-15 45,-15 8,0 21,-6 27,-12 9,-9 53,-13 145,-13 h 132 l 50,34 c 28,18 61,47 75,64 14,17 33,39 43,49 9,10 17,24 17,32 0,7 7,19 15,26 8,7 15,21 15,31 0,39 36,49 180,49 147,0 180,-5 180,-26 0,-10 -14,-14 -48,-14 -49,0 -144,-28 -165,-49 -6,-6 -15,-11 -20,-11 -17,0 -128,-92 -169,-142 -24,-27 -79,-88 -122,-135 l -80,-84 -103,7 c -86,6 -106,4 -127,-10 -14,-9 -30,-16 -37,-16 -28,0 -158,-120 -159,-147 0,-7 -4,-13 -9,-13 -5,0 -13,-15 -17,-32 -3,-18 -13,-43 -21,-55 -12,-17 -14,-46 -12,-120 l 4,-98 -80,-6 c -144,-11 -185,-19 -185,-37 -1,-10 0,-245 0,-524 1,-487 0,-508 -18,-508 -10,0 -27,7 -38,15 -13,10 -44,14 -97,15 -146,0 -201,-53 -307,-295 -7,-16 -17,-50 -21,-75 -4,-25 -14,-65 -21,-90 -23,-80 -106,-176 -210,-243 -27,-17 -28,-17 -33,6 -5,17 3,38 22,68 54,82 65,119 61,205 -4,75 -41,227 -74,301 -8,17 -14,34 -14,37 0,12 -83,142 -109,169 -46,51 -106,72 -193,70 -90,-2 -131,-23 -215,-110 -61,-62 -69,-96 -60,-232 7,-101 -1,-126 -29,-84 -42,64 -49,93 -49,242 0,107 3,145 13,149 6,2 12,9 12,15 0,41 175,248 265,315 17,12 51,38 77,57 51,38 69,42 91,21 20,-21 89,-56 109,-56 9,0 28,-5 41,-11 20,-9 30,-8 51,6 33,22 33,35 -1,88 -32,50 -44,144 -21,161 21,16 76,111 93,159 22,62 20,205 -4,259 -19,46 -86,113 -127,128 -14,6 -52,10 -85,10 -72,0 -134,-26 -191,-78 -53,-49 -112,-89 -177,-119 -46,-21 -65,-24 -135,-21 l -81,3 1,-70 c 0,-59 5,-77 28,-115 37,-59 73,-97 119,-127 21,-13 37,-29 35,-35 -2,-6 -22,-17 -45,-24 -37,-13 -45,-12 -85,5 -24,10 -63,36 -88,57 -24,22 -61,55 -83,74 -41,36 -77,104 -77,145 0,27 -22,48 -43,39 -24,-9 -51,-55 -57,-94 l -5,-35 -65,-5 c -36,-3 -71,-9 -78,-13 -7,-5 -24,0 -41,12 -16,12 -32,21 -36,21 -14,0 -35,-72 -35,-120 0,-50 22,-110 40,-110 20,0 20,-42 1,-86 -26,-58 -26,-111 -2,-144 17,-21 22,-23 44,-13 14,7 27,23 30,40 3,15 18,40 32,56 21,22 35,27 72,27 44,0 113,-30 113,-50 0,-4 11,-11 25,-14 14,-4 25,-13 25,-20 0,-8 8,-17 18,-19 15,-4 15,-5 0,-6 -9,0 -20,3 -23,9 -3,6 -15,10 -25,10 -10,0 -23,8 -29,17 -9,17 -12,16 -35,-6 -22,-21 -26,-33 -26,-86 0,-56 3,-65 35,-102 42,-49 43,-57 10,-79 -21,-14 -39,-16 -95,-10 -67,6 -70,5 -86,-20 -16,-24 -16,-29 1,-77 20,-58 99,-143 137,-149 17,-2 24,-11 26,-31 4,-33 16,-58 61,-120 40,-54 112,-105 189,-132 45,-17 58,-17 95,-7 76,23 72,28 69,-78 -3,-134 -20,-207 -52,-230 -28,-20 -88,-45 -133,-54 -21,-5 -27,-12 -27,-33 0,-63 87,-133 165,-133 43,0 100,24 119,51 12,18 14,18 28,2 29,-34 50,-126 45,-199 -6,-86 -22,-158 -42,-187 -20,-28 -19,-52 2,-72 22,-22 92,-12 144,21 54,34 70,32 63,-8 -15,-82 -91,-209 -168,-281 -54,-49 -55,-50 -103,-78 -59,-34 -70,-55 -43,-84 59,-63 290,-40 415,40 28,18 61,44 74,59 14,14 30,26 38,26 15,0 17,-21 4,-35 -13,-14 -43,-134 -36,-145 3,-6 10,-37 16,-70 5,-33 20,-81 34,-106 25,-47 25,-64 -1,-64 -22,0 -87,-44 -129,-87 -63,-64 -80,-113 -79,-223 1,-89 4,-99 37,-160 27,-50 41,-66 60,-68 22,-3 26,1 33,40 7,42 8,42 14,13 17,-78 130,-196 172,-180 33,13 51,80 52,192 1,106 0,109 -32,159 -17,28 -32,56 -32,61 0,5 -7,24 -16,41 -20,42 -16,128 7,124 9,-1 60,-46 115,-100 54,-54 119,-112 144,-128 25,-16 47,-31 50,-35 3,-3 26,-16 53,-29 56,-28 115,-84 124,-118 18,-72 -24,-222 -63,-222 -7,0 -21,-12 -30,-26 -16,-24 -16,-28 4,-69 l 21,-43 -27,-7 c -39,-10 -85,-47 -107,-89 -11,-20 -23,-36 -26,-36 -4,0 -10,-13 -14,-30 -4,-16 -11,-32 -16,-35 -5,-4 -9,-29 -9,-57 0,-93 43,-99 250,-36 163,49 233,109 273,235 22,66 22,198 2,246 -18,43 -20,90 -4,85 18,-6 109,-189 109,-220 0,-7 7,-31 15,-53 8,-22 14,-77 15,-124 0,-65 5,-95 21,-128 25,-51 66,-83 107,-83 32,0 62,32 103,109 21,42 22,42 43,23 60,-52 134,-75 246,-76 77,0 198,20 215,35 5,5 16,9 25,9 8,1 33,9 55,20 22,11 45,19 51,20 6,0 25,7 41,15 17,9 53,16 79,17 60,2 104,29 104,64 0,20 -9,29 -45,45 -25,11 -82,55 -128,98 -125,119 -209,189 -244,206 -31,15 -45,35 -24,35 17,0 64,56 82,98 11,24 19,62 18,85 -1,80 -58,135 -91,88 -17,-24 -83,-47 -163,-56 -33,-3 -68,-8 -77,-11 -13,-4 -18,0 -18,15 0,11 4,23 10,26 12,8 13,72 1,79 -4,3 -11,18 -14,33 -6,31 -47,79 -88,105 -24,16 -27,15 -44,-4 -9,-12 -20,-38 -22,-59 -11,-77 -89,-130 -193,-128 -66,0 -212,31 -235,48 -5,5 -23,11 -38,15 -16,4 -46,18 -68,31 -21,14 -41,25 -44,25 -12,0 -73,51 -79,66 -4,11 8,21 41,36 38,17 59,20 113,15 36,-3 77,-10 90,-15 14,-5 59,-20 100,-33 108,-33 140,-53 165,-103 6,-12 22,-22 36,-24 21,-2 31,5 54,40 25,37 28,53 29,118 0,67 -3,81 -32,133 -40,73 -96,125 -142,133 -19,4 -60,3 -92,-2 -76,-13 -76,1 1,54 32,23 61,50 64,61 4,17 -3,23 -48,36 -63,18 -91,19 -150,4 -48,-12 -103,-59 -118,-102 -12,-35 -27,-19 -27,30 0,17 -4,34 -9,38 -5,3 -13,20 -17,37 -3,18 -10,39 -15,48 -5,8 -18,38 -29,65 -11,28 -25,57 -30,65 -6,8 -14,25 -20,37 -13,31 -114,133 -132,133 -15,0 -48,34 -48,50 0,13 17,13 25,-1 4,-5 17,-14 28,-20 24,-10 55,-29 73,-44 6,-5 22,-17 34,-25 12,-8 42,-30 66,-47 23,-18 45,-33 48,-33 3,0 22,-12 43,-26 21,-14 47,-30 58,-35 11,-5 34,-18 50,-28 17,-11 80,-45 140,-76 61,-31 139,-73 175,-92 65,-35 118,-57 175,-73 40,-11 92,-29 133,-46 18,-8 43,-14 55,-14 12,0 31,-7 41,-15 11,-8 34,-15 51,-15 17,0 36,-5 43,-12 6,-6 30,-14 54,-18 24,-5 57,-12 73,-18 68,-23 112,-36 150,-43 51,-10 117,-27 175,-45 25,-8 57,-14 72,-14 15,0 39,-5 55,-11 15,-6 55,-15 88,-19 33,-4 85,-13 115,-18 106,-21 196,-34 300,-43 58,-4 137,-13 175,-18 88,-13 592,-13 705,0 47,5 144,13 215,18 72,5 146,14 165,20 19,6 57,11 85,11 28,0 66,5 85,11 19,6 62,14 95,18 33,5 81,13 108,20 125,30 145,34 187,42 53,9 122,26 165,41 17,6 48,14 70,18 22,4 55,13 73,19 17,6 47,16 65,22 17,6 43,13 57,16 14,3 39,11 57,19 17,8 39,14 48,14 9,0 26,5 38,12 12,6 35,15 52,19 34,8 85,26 130,45 17,7 50,20 75,29 63,24 95,37 170,72 36,17 105,47 153,68 132,54 357,176 365,197 4,9 42,11 42,2 0,-3 -13,-23 -28,-43 -25,-32 -92,-161 -92,-177 0,-3 -6,-20 -14,-37 -7,-18 -21,-53 -31,-79 -9,-27 -20,-48 -24,-48 -4,0 -14,15 -22,32 -10,23 -30,41 -69,61 -49,25 -62,27 -123,22 -79,-6 -107,-18 -107,-44 0,-16 58,-71 74,-71 10,0 56,-43 56,-53 0,-5 -14,-6 -32,-3 -80,17 -99,17 -133,6 -41,-14 -125,-90 -125,-114 0,-9 -4,-16 -8,-16 -11,0 -42,-105 -42,-143 0,-18 7,-42 15,-53 8,-10 15,-26 15,-34 0,-20 47,-70 65,-70 8,0 21,13 30,29 22,43 70,76 145,100 36,12 86,29 112,37 70,23 222,17 241,-11 25,-33 2,-54 -133,-122 -36,-18 -72,-33 -80,-33 -9,0 -20,-4 -26,-10 -30,-30 -232,-49 -300,-29 -58,18 -77,39 -104,122 -17,51 -27,67 -42,67 -27,0 -81,-53 -108,-106 -19,-39 -22,-56 -16,-106 l 6,-59 -53,7 c -28,4 -62,11 -75,15 -13,5 -38,9 -57,9 -26,0 -42,8 -67,35 l -34,36 -22,-24 c -15,-15 -25,-42 -29,-75 -9,-79 3,-116 52,-169 47,-49 54,-63 32,-63 -19,0 -68,-38 -166,-129 -137,-125 -205,-181 -222,-181 -37,0 -66,-68 -37,-87 7,-4 33,-10 58,-14 67,-11 134,-29 145,-40 5,-5 16,-9 25,-9 8,-1 33,-9 55,-20 22,-11 49,-19 60,-20 12,0 25,-4 31,-10 5,-5 50,-14 100,-20 146,-16 261,6 340,66 l 31,24 6,-35 c 3,-19 10,-40 16,-47 6,-7 22,-28 37,-45 33,-42 69,-43 109,-4 54,53 57,60 65,164 10,120 25,206 40,221 5,5 10,16 10,23 0,20 69,163 79,163 5,0 11,9 14,20 6,23 27,27 27,5 0,-9 -8,-28 -17,-42 -15,-22 -18,-51 -18,-163 0,-131 1,-139 29,-194 54,-107 155,-162 394,-216 45,-10 56,-10 77,4 21,14 25,24 25,67 0,47 -25,121 -53,156 -35,43 -82,84 -102,89 -31,8 -40,32 -19,55 23,26 14,71 -17,86 -14,7 -34,29 -44,50 -10,21 -22,46 -26,55 -16,31 -10,116 9,147 22,36 87,90 125,103 15,6 27,14 27,19 0,5 5,9 10,9 24,0 105,67 218,178 46,45 87,82 92,82 34,0 23,-122 -18,-190 -12,-19 -26,-46 -32,-60 -6,-14 -15,-34 -21,-46 -18,-36 7,-237 34,-271 19,-25 55,-13 106,35 28,26 56,62 62,80 l 11,33 22,-20 c 12,-12 27,-21 32,-21 24,0 77,82 89,137 3,18 11,35 16,38 13,8 11,91 -2,134 -33,106 -94,182 -179,222 -51,24 -63,46 -36,68 8,7 17,30 21,52 4,21 11,41 16,45 16,9 11,188 -6,210 -15,19 -20,56 -9,67 3,3 25,-13 48,-36 65,-64 102,-84 196,-111 122,-33 227,-30 276,9 25,20 27,25 17,47 -6,14 -28,33 -49,43 -78,37 -226,207 -249,286 -3,13 -13,39 -22,57 -20,45 -11,67 19,51 13,-7 25,-15 28,-18 15,-18 77,-41 109,-41 48,0 81,31 63,60 -6,10 -21,45 -32,77 -25,72 -28,232 -5,277 8,15 15,34 15,42 0,26 19,24 63,-6 80,-54 176,-36 245,45 15,16 22,36 20,53 -3,22 -11,29 -58,43 -140,43 -142,47 -154,275 l -6,91 98,-1 c 94,-1 98,0 152,34 30,19 63,43 74,54 35,35 86,120 86,143 0,16 16,33 57,60 65,43 109,101 118,155 8,48 0,72 -29,88 -20,10 -28,10 -47,-4 -32,-22 -65,-20 -105,5 -19,11 -34,22 -34,24 0,2 15,21 34,44 41,49 53,108 33,166 -15,44 -53,60 -69,31 -10,-18 -48,-22 -48,-6 0,6 8,13 18,17 9,3 33,18 52,33 43,32 84,50 114,50 28,0 68,-42 92,-98 15,-36 22,-42 44,-40 24,3 25,6 28,84 2,63 -1,84 -13,94 -8,7 -15,20 -15,29 0,20 40,61 58,61 8,0 12,28 12,93 0,90 -1,92 -27,104 -22,11 -29,10 -43,-2 -21,-19 -163,-21 -177,-2 -5,6 -15,31 -22,55 -12,41 -41,82 -59,82 -19,0 -42,-38 -42,-70 0,-58 -44,-110 -177,-211 -55,-42 -71,-49 -109,-49 -49,0 -84,14 -84,33 0,7 18,22 40,35 44,25 130,133 130,163 0,10 5,21 10,24 5,3 10,30 10,58 0,65 -22,85 -67,62 -15,-8 -40,-15 -55,-15 -57,0 -195,70 -263,135 -47,43 -95,71 -157,89 -53,15 -60,15 -112,-1 -56,-17 -106,-55 -141,-108 -17,-26 -20,-47 -20,-160 0,-128 0,-131 33,-188 18,-32 44,-70 57,-85 14,-15 26,-34 26,-42 2,-28 -3,-55 -12,-64 -5,-6 -9,-17 -9,-27 0,-9 -9,-28 -21,-43 -12,-15 -19,-37 -17,-53 3,-27 5,-28 63,-28 57,1 145,29 145,47 0,18 40,29 63,17 89,-48 277,-222 330,-306 76,-120 89,-154 90,-232 3,-121 -37,-261 -75,-269 -12,-2 -14,14 -10,102 5,122 -5,154 -72,225 -72,75 -110,94 -202,99 -71,4 -88,1 -129,-19 -51,-26 -132,-109 -141,-147 -4,-12 -10,-22 -15,-22 -5,0 -9,-5 -9,-11 0,-6 -7,-27 -16,-47 -9,-21 -22,-52 -30,-70 -8,-18 -14,-43 -14,-55 0,-12 -8,-35 -17,-52 -14,-24 -17,-56 -18,-150 0,-114 1,-122 27,-165 49,-80 53,-89 39,-103 -9,-9 -29,6 -92,68 -44,44 -84,89 -89,100 -6,11 -14,27 -18,35 -30,53 -37,70 -43,115 -19,147 -60,237 -151,328 -38,37 -74,67 -81,67 -6,0 -24,6 -38,14 -14,7 -46,16 -71,20 -25,4 -52,12 -59,19 -12,10 -13,87 -9,467 3,263 1,464 -4,478 -5,12 -18,22 -29,22 -10,0 -45,6 -76,14 -32,8 -128,16 -229,19 -205,5 -204,5 -206,99 -1,35 -7,72 -13,83 -6,11 -21,42 -33,69 -24,52 -49,85 -89,120 -13,12 -29,26 -36,33 -24,23 -90,53 -117,53 -15,0 -30,5 -34,11 -5,8 -39,10 -113,6 l -106,-5 -95,92 c -91,87 -197,174 -230,189 -8,4 -28,16 -45,27 -37,23 -114,60 -127,60 -6,0 -23,10 -40,21 -22,16 -26,24 -17,28 8,4 85,5 172,3 137,-3 159,-6 164,-20 41,-133 151,-231 283,-254 104,-19 327,-5 353,21 6,6 22,11 37,11 14,0 36,6 50,13 14,7 53,23 88,36 58,22 76,41 52,56 -6,3 -34,36 -64,73 -89,112 -211,219 -301,263 -39,20 -129,41 -170,41 -40,0 -140,-22 -143,-32 -2,-5 -11,-10 -19,-10 -9,0 -38,-22 -64,-49 -82,-84 -74,-81 -259,-81 -91,-1 -196,-5 -235,-11 -38,-5 -106,-13 -150,-18 -44,-5 -93,-14 -108,-20 -16,-6 -38,-11 -50,-11 -12,-1 -40,-9 -62,-20 -81,-39 -106,-15 -53,52 37,48 54,74 67,103 5,11 24,37 42,58 l 34,38 47,-12 c 36,-10 55,-10 86,-1 22,7 53,12 69,12 16,0 38,7 49,15 10,8 26,15 36,15 20,0 158,129 158,147 0,7 4,13 10,13 5,0 13,12 16,28 4,15 11,33 17,40 28,35 46,292 27,382 -6,30 -14,65 -16,78 -4,22 -8,23 -47,17 -23,-4 -46,-11 -52,-16 -5,-5 -23,-9 -40,-9 -16,0 -43,-7 -59,-15 -15,-8 -35,-15 -43,-15 -8,0 -31,-7 -51,-16 -215,-92 -327,-196 -353,-327 -14,-71 -2,-180 22,-208 10,-12 19,-30 19,-39 0,-10 7,-20 15,-24 15,-6 22,-56 7,-56 -5,0 -30,-29 -56,-65 -26,-36 -55,-73 -65,-82 -9,-9 -29,-36 -46,-59 -39,-56 -157,-208 -166,-214 -8,-6 -83,-100 -145,-182 -49,-66 -103,-81 -74,-21 14,30 32,450 23,533 -4,34 -1,49 11,59 9,7 16,18 16,23 0,9 145,205 165,223 6,6 27,30 45,55 41,55 350,368 403,409 22,16 82,70 135,119 110,102 146,132 160,132 5,0 15,7 22,15 7,9 29,15 50,15 21,0 40,5 42,12 4,11 49,19 206,34 35,4 74,2 90,-4 15,-6 38,-13 52,-16 14,-3 36,-15 50,-25 24,-19 24,-20 6,-40 -11,-12 -25,-21 -32,-21 -17,0 -104,-101 -104,-120 0,-9 -7,-25 -15,-36 -23,-31 -20,-174 5,-222 30,-58 82,-114 144,-157 55,-37 58,-38 144,-38 86,1 90,2 140,37 54,39 122,131 122,165 0,11 5,32 12,46 15,33 -3,127 -35,180 -36,62 -114,130 -175,153 -20,8 -64,17 -97,21 -49,5 -60,10 -64,26 -5,27 -38,58 -85,81 -51,24 -209,23 -255,0 -16,-9 -43,-16 -59,-16 -16,0 -35,-7 -42,-15 -14,-16 -55,-20 -64,-6 -3,5 13,21 37,37 23,16 44,31 47,34 20,20 172,82 258,106 55,15 72,12 72,-10 0,-33 129,-126 175,-126 12,0 26,-5 32,-11 16,-16 195,6 239,29 10,5 42,20 69,33 28,12 55,27 60,31 6,5 21,17 34,28 13,11 27,20 31,20 4,0 30,24 59,52 49,51 68,98 38,98 -8,0 -33,14 -55,30 -23,17 -49,30 -57,30 -8,0 -15,4 -15,9 0,12 -84,61 -104,61 -9,0 -16,4 -16,10 0,5 -17,12 -37,16 -21,4 -44,11 -51,17 -7,6 -55,11 -105,11 -111,1 -151,-15 -217,-84 -46,-47 -61,-67 -81,-107 -9,-16 -24,-23 -63,-28 -28,-4 -63,-13 -77,-20 -25,-14 -61,-4 -46,12 4,4 62,65 130,134 67,70 152,158 189,197 74,78 54,71 259,91 106,10 152,31 203,91 79,94 103,211 78,380 -21,138 -30,152 -90,144 -46,-6 -141,-32 -164,-45 -10,-5 -24,-9 -33,-9 -8,0 -41,-14 -73,-30 -133,-70 -221,-191 -222,-304 0,-45 29,-145 47,-164 20,-21 16,-29 -29,-75 -24,-23 -77,-81 -118,-127 -111,-127 -118,-133 -136,-126 -12,5 -14,13 -9,34 4,15 9,78 10,140 1,62 4,114 6,115 2,2 16,11 32,20 66,42 102,154 78,244 -27,98 -147,229 -258,282 -26,12 -55,26 -63,30 -9,5 -34,12 -57,15 -36,7 -43,4 -57,-16 -9,-12 -16,-29 -16,-38 0,-8 -8,-28 -17,-45 -12,-23 -17,-65 -21,-176 -4,-135 -2,-149 18,-195 13,-27 34,-63 47,-81 31,-41 119,-83 172,-83 36,0 41,-3 41,-22 0,-38 -31,-191 -46,-226 -8,-18 -14,-38 -14,-45 0,-25 -71,-151 -126,-225 -70,-94 -256,-279 -379,-377 -27,-22 -57,-46 -66,-55 -9,-8 -40,-35 -70,-60 -29,-25 -82,-73 -117,-107 -86,-86 -98,-82 -66,21 31,97 52,136 74,136 62,0 158,88 192,177 21,54 26,190 8,222 -5,11 -10,32 -10,46 0,15 -6,39 -13,53 -8,15 -24,48 -37,74 -13,26 -38,63 -55,84 l -32,38 -45,-22 c -56,-26 -157,-118 -183,-166 -11,-20 -23,-36 -27,-36 -5,0 -8,-6 -8,-12 0,-7 -7,-26 -15,-41 -8,-15 -17,-43 -21,-63 -3,-19 -10,-37 -15,-40 -5,-3 -9,-34 -9,-69 0,-35 4,-66 9,-69 5,-3 12,-20 15,-38 7,-38 59,-99 104,-122 42,-22 44,-27 31,-83 -18,-76 -89,-246 -109,-263 -4,-3 -33,-49 -64,-102 -42,-71 -62,-95 -73,-91 -16,6 -16,3 7,153 5,36 10,198 10,360 0,397 6,436 107,645 24,50 56,98 86,128 l 48,47 h 73 c 53,0 77,-4 86,-15 14,-17 135,-22 145,-5 3,6 15,10 26,10 26,0 120,94 147,148 12,23 22,55 22,70 0,16 5,33 12,40 7,7 14,57 17,119 3,60 9,113 13,119 4,7 2,17 -6,23 -16,14 -236,7 -265,-8 -11,-6 -32,-11 -48,-11 -15,0 -40,-6 -54,-14 -14,-7 -37,-16 -52,-20 -15,-3 -27,-11 -27,-16 0,-6 -6,-10 -13,-10 -38,0 -137,-122 -137,-169 0,-11 -4,-23 -10,-26 -16,-10 -12,-108 6,-133 15,-22 14,-25 -38,-80 -54,-59 -158,-205 -158,-222 0,-6 -7,-10 -15,-10 -13,0 -15,25 -15,168 v 167 l 34,28 c 19,15 38,27 41,27 11,0 75,75 81,95 4,11 12,23 18,27 19,12 14,207 -7,243 -9,17 -17,36 -17,43 0,6 -4,12 -10,12 -5,0 -10,5 -10,10 0,12 -34,62 -68,100 -12,14 -32,44 -44,68 -12,23 -24,42 -28,42 -3,0 -47,-42 -97,-92 z m 2082,-55 c -15,-16 -70,-84 -123,-153 -53,-69 -102,-130 -108,-137 -7,-7 -33,-42 -60,-77 -58,-80 -79,-78 -90,10 -20,166 41,274 196,345 19,8 51,23 70,32 19,9 54,21 78,26 24,5 47,12 50,16 4,4 8,-2 10,-14 2,-12 -8,-32 -23,-48 z m -3920,27 c 6,-4 26,-11 45,-15 94,-19 186,-90 221,-172 36,-84 34,-243 -2,-266 -13,-8 -23,-3 -47,24 -16,19 -42,47 -57,63 -14,16 -38,47 -53,70 -15,22 -30,43 -33,46 -3,3 -28,37 -54,75 -76,110 -88,127 -112,153 -13,13 -20,29 -17,34 7,11 92,1 109,-12 z m 1890,11 c 8,-15 -7,-521 -16,-521 -18,0 -98,93 -104,121 -4,16 -11,31 -16,34 -15,10 -10,149 7,191 21,54 47,106 59,120 6,7 19,24 29,38 20,27 31,32 41,17 z m 134,-96 c 74,-152 78,-257 13,-364 -23,-38 -68,-74 -82,-66 -11,7 -14,517 -3,529 10,10 38,-28 72,-99 z m 981,10 c 49,-105 75,-169 92,-225 30,-102 48,-167 48,-177 0,-17 -34,-21 -86,-12 -51,10 -114,59 -114,89 0,9 -7,25 -15,36 -11,14 -14,50 -15,148 0,112 5,155 27,226 6,20 26,-6 63,-85 z m 72,82 c 7,-7 29,-22 48,-34 94,-58 190,-201 190,-283 0,-42 -34,-114 -65,-138 -33,-26 -40,-23 -49,20 -7,41 -30,118 -51,178 -23,64 -103,228 -115,235 -6,3 -10,13 -10,21 0,17 34,18 52,1 z m 935,-159 c -4,-106 -9,-141 -25,-173 -23,-46 -98,-125 -118,-125 -3,0 -20,-7 -37,-15 -18,-8 -61,-19 -95,-24 -35,-6 -70,-15 -78,-21 -7,-7 -18,-9 -24,-5 -19,12 -10,37 29,78 66,71 291,358 291,373 0,3 10,19 21,36 35,49 42,24 36,-124 z m -3121,115 c 3,-10 11,-29 17,-42 7,-14 12,-73 12,-141 0,-131 -12,-169 -74,-227 -33,-31 -112,-59 -132,-48 -11,8 -1,81 17,117 8,15 14,35 14,45 0,10 7,31 15,47 8,15 15,34 15,42 0,7 6,28 14,46 8,18 25,60 37,93 33,86 53,107 65,68 z m -1019,-10 c 4,-10 11,-22 15,-28 5,-5 44,-64 88,-130 110,-167 157,-232 197,-275 12,-12 20,-27 16,-33 -8,-14 -122,-1 -158,17 -17,9 -34,16 -39,16 -15,0 -105,94 -106,110 0,9 -7,26 -16,39 -21,30 -34,301 -15,301 6,0 15,-8 18,-17 z m 1518,-213 c 33,-18 74,-47 90,-65 34,-37 92,-145 101,-190 3,-16 12,-47 20,-67 15,-42 4,-58 -24,-36 -29,22 -265,239 -292,268 -3,3 -33,30 -67,59 -35,30 -60,58 -56,64 3,6 38,8 87,5 66,-5 92,-11 141,-38 z m 1292,24 c 2,-5 -14,-20 -34,-31 -21,-12 -47,-30 -58,-40 -63,-59 -357,-273 -374,-273 -26,0 -26,14 -4,105 15,59 25,77 64,115 60,59 75,70 95,70 9,0 30,6 47,14 18,8 57,19 87,25 30,5 71,14 90,20 43,12 82,10 87,-5 z m 40,-103 c -3,-42 -13,-90 -21,-106 -9,-17 -16,-38 -16,-48 0,-26 -47,-97 -88,-134 -24,-20 -54,-35 -88,-42 -58,-11 -221,-4 -230,11 -3,5 9,22 28,38 183,158 302,264 348,311 30,32 59,55 64,52 5,-3 6,-40 3,-82 z M 3835,7160 c 215,-216 217,-219 111,-206 -119,14 -230,82 -258,159 -5,15 -14,27 -19,27 -5,0 -9,10 -9,23 0,12 -7,35 -15,51 -18,34 -32,146 -19,146 5,0 99,-90 209,-200 z m 2416,-301 c 39,-6 82,-17 97,-25 15,-8 35,-14 44,-14 9,0 20,-4 23,-10 3,-5 13,-10 21,-10 8,0 28,-10 44,-22 22,-16 27,-24 18,-30 -7,-4 -112,-8 -233,-8 -202,-1 -272,-6 -332,-25 -16,-5 -25,-3 -29,9 -14,36 91,120 170,136 60,11 98,11 177,-1 z m -3471,-29 c 30,-11 73,-32 94,-47 42,-30 83,-79 74,-89 -3,-3 -32,-1 -65,5 -32,6 -137,16 -233,22 -343,20 -370,22 -370,30 0,13 94,66 131,74 19,4 39,11 44,15 32,26 248,19 325,-10 z m 2056,-108 c -9,-17 -16,-38 -16,-48 0,-9 -7,-46 -15,-83 -24,-109 -43,-211 -55,-296 -13,-96 -19,-115 -30,-115 -21,0 -98,89 -113,130 -18,49 -22,115 -8,124 5,3 12,23 15,43 7,41 33,99 54,121 6,7 12,17 12,22 0,14 72,91 114,122 47,34 65,25 42,-20 z m -908,-52 c 10,-50 18,-167 24,-360 3,-65 1,-75 -15,-78 -23,-5 -93,65 -103,102 -3,14 -10,29 -15,32 -24,14 -2,184 32,246 5,10 9,26 9,37 0,10 7,24 15,31 8,7 15,20 15,30 0,20 11,33 20,23 4,-5 12,-33 18,-63 z m 992,23 c 13,-27 26,-55 30,-63 4,-8 13,-54 20,-100 10,-68 10,-100 0,-158 -10,-63 -17,-78 -56,-121 -40,-45 -95,-73 -111,-57 -3,3 0,36 6,73 32,178 41,236 57,343 16,109 20,130 29,130 2,0 13,-21 25,-47 z m -891,9 c 38,-31 119,-110 141,-137 22,-28 26,-145 6,-186 -21,-44 -109,-139 -128,-139 -18,0 -27,36 -38,160 -16,171 -33,295 -41,305 -32,34 16,32 60,-3 z m 2510,-19 c -30,-40 -86,-83 -148,-113 -36,-17 -81,-39 -100,-48 -42,-21 -267,-25 -291,-5 -66,52 -104,93 -95,101 15,14 108,32 168,32 29,0 68,5 87,10 19,6 100,15 179,20 79,5 146,11 149,15 3,3 19,5 35,5 26,0 28,-2 16,-17 z m -3854,-23 c 22,-5 82,-10 133,-11 51,-2 95,-6 98,-11 8,-12 -15,-48 -31,-48 -8,0 -15,-3 -15,-8 0,-7 -61,-41 -113,-61 -40,-16 -144,-13 -197,5 -54,18 -170,76 -170,84 0,4 -20,17 -45,29 -75,38 -50,44 134,37 91,-4 184,-11 206,-16 z m 215,-404 c 5,-14 20,-32 34,-41 13,-9 29,-29 36,-45 6,-16 20,-36 31,-46 11,-10 22,-35 26,-57 3,-21 12,-41 19,-44 23,-8 16,-41 -8,-45 -16,-2 -24,-12 -28,-33 -17,-81 -125,-180 -180,-164 -14,4 -42,4 -62,2 -56,-8 -112,35 -148,112 -52,113 -31,215 63,307 35,34 68,58 80,58 12,0 29,5 37,10 8,5 32,10 53,10 31,0 39,-4 47,-24 z m 3151,-27 c 36,-8 63,-22 87,-45 19,-19 38,-34 42,-34 13,0 29,-48 35,-107 7,-54 5,-60 -24,-97 -17,-21 -31,-42 -31,-45 0,-11 -89,-51 -113,-51 -32,1 -85,37 -140,96 l -47,51 2,77 c 1,70 3,78 23,86 12,5 32,25 43,44 24,40 38,43 123,25 z m -546,-129 c 6,-9 -39,-73 -82,-118 -7,-7 -13,-17 -13,-20 0,-4 -10,-18 -23,-32 -12,-14 -54,-65 -92,-115 -38,-49 -72,-92 -75,-95 -3,-3 -21,-25 -40,-50 -32,-43 -52,-67 -127,-153 -38,-44 -53,-47 -53,-9 0,15 -5,33 -12,40 -7,7 -11,50 -12,114 0,97 1,106 28,148 16,25 38,56 50,69 29,32 113,92 159,113 85,39 103,47 131,53 15,3 35,13 43,20 8,8 30,15 49,15 22,0 37,6 40,15 7,17 20,19 29,5 z m -2195,-80 c 0,-6 58,-93 202,-306 41,-61 77,-115 79,-120 2,-5 26,-42 52,-81 27,-40 46,-77 42,-83 -3,-5 -18,-10 -33,-10 -28,0 -138,36 -182,59 -75,40 -162,138 -176,199 -4,15 -11,32 -16,38 -13,17 -22,190 -14,267 7,62 9,65 27,54 10,-6 19,-14 19,-17 z m 2234,-55 c 7,-75 -7,-233 -24,-270 -5,-11 -14,-31 -20,-45 -25,-62 -119,-160 -152,-160 -8,0 -23,-6 -34,-14 -11,-8 -46,-17 -79,-21 -33,-3 -71,-8 -85,-11 -14,-2 -31,0 -39,5 -12,7 20,56 150,229 90,121 171,230 179,242 8,12 20,28 27,35 7,7 22,31 34,54 11,22 24,39 29,36 4,-2 10,-38 14,-80 z M 4425,5604 c 31,-21 31,-29 -2,-78 -15,-23 -28,-42 -29,-44 0,-1 -8,0 -17,4 -9,3 -21,22 -28,41 -10,33 -9,37 17,63 36,34 30,33 59,14 z M 2918,5323 c 30,-16 54,-34 54,-39 0,-12 -135,-43 -188,-44 -23,0 -54,-5 -70,-10 -16,-6 -58,-14 -94,-20 -91,-13 -238,-51 -300,-77 -48,-21 -45,6 7,54 68,65 87,78 152,109 137,64 133,63 281,59 95,-2 110,-5 158,-32 z m 3319,-5 c 61,-32 122,-78 188,-141 22,-22 48,-45 59,-53 33,-23 6,-38 -35,-21 -74,31 -308,91 -419,107 -36,6 -78,14 -94,20 -16,5 -44,10 -62,10 -42,0 -45,20 -6,50 97,77 254,89 369,28 z M 2992,5150 c -2,-14 -10,-32 -18,-41 -8,-8 -14,-19 -14,-23 0,-9 -66,-67 -102,-88 -15,-10 -61,-25 -100,-34 -60,-14 -83,-15 -133,-6 -33,7 -78,15 -100,18 -22,4 -44,10 -50,14 -5,4 -26,11 -45,15 -37,8 -45,11 -102,41 -52,26 -51,38 2,45 25,4 74,12 110,19 36,6 100,18 143,26 42,8 105,14 140,15 34,0 94,6 132,14 39,7 86,12 105,12 31,-2 35,-5 32,-27 z m 2968,1 c 47,-5 105,-14 130,-20 126,-29 277,-60 344,-71 80,-14 112,-41 64,-55 -13,-3 -32,-10 -43,-15 -87,-36 -134,-44 -295,-44 -142,-1 -168,1 -190,17 -13,9 -31,17 -40,17 -23,1 -105,90 -124,134 -23,56 -22,59 27,52 23,-3 80,-10 127,-15 z m -2332,-45 c 77,-17 98,-32 56,-41 -43,-9 -94,-36 -94,-50 0,-7 -7,-18 -15,-25 -8,-7 -15,-22 -15,-34 0,-31 -19,-46 -57,-46 -18,0 -52,-10 -75,-22 -45,-23 -168,-140 -168,-160 0,-6 -8,-20 -17,-30 -23,-26 -22,-186 1,-220 9,-12 16,-29 16,-38 0,-8 25,-44 55,-80 48,-55 53,-66 38,-72 -10,-3 -109,-7 -220,-7 -192,-1 -203,0 -203,18 0,10 6,24 14,30 22,18 38,109 30,171 -7,59 -34,118 -71,158 -13,14 -23,29 -23,33 0,16 140,165 206,219 36,30 74,62 82,70 41,40 180,101 272,121 105,21 110,21 188,5 z m 1641,-32 c 53,-9 110,-23 128,-30 17,-8 36,-14 41,-14 6,0 23,-7 39,-14 15,-8 35,-18 43,-21 8,-3 29,-14 45,-25 17,-11 37,-23 45,-27 24,-11 130,-93 184,-144 28,-26 62,-56 76,-67 23,-19 24,-22 10,-48 -8,-16 -22,-40 -32,-53 -10,-13 -18,-33 -18,-45 0,-12 -5,-27 -12,-34 -15,-15 -17,-164 -2,-183 6,-8 14,-27 18,-42 7,-29 18,-46 48,-74 9,-9 15,-20 12,-25 -8,-13 -93,-9 -159,7 -33,8 -82,15 -110,15 -27,0 -77,7 -110,15 -33,8 -108,14 -166,15 -123,0 -201,9 -193,21 3,5 21,9 41,9 19,0 47,6 61,14 15,8 47,22 72,32 62,26 150,111 173,169 3,6 9,33 15,60 12,53 -1,132 -26,157 -7,7 -12,17 -12,24 0,17 -92,98 -138,122 -21,11 -57,23 -80,27 -36,6 -46,13 -68,51 -14,24 -46,58 -70,76 -24,17 -41,35 -38,39 8,14 78,11 183,-7 z m -1430,-34 c 40,0 351,-265 351,-299 0,-5 7,-11 15,-15 8,-3 15,-12 15,-19 0,-8 7,-20 15,-27 8,-7 15,-19 15,-28 0,-8 6,-23 13,-31 31,-36 44,-339 16,-357 -5,-2 -16,0 -26,5 -85,44 -255,76 -366,68 -93,-6 -108,7 -58,50 17,15 31,33 31,41 0,7 7,24 16,37 24,37 25,197 1,223 -9,10 -17,24 -17,30 0,7 -30,43 -67,80 -68,68 -136,112 -173,112 -13,0 -22,9 -26,25 -4,14 -5,27 -3,28 2,1 19,15 37,32 24,21 50,32 100,41 37,7 73,10 80,8 8,-2 22,-4 31,-4 z m 1277,-32 c 31,-29 57,-75 49,-88 -3,-6 -21,-10 -39,-10 -60,0 -179,-104 -227,-196 -23,-47 -26,-141 -4,-170 8,-10 15,-25 15,-32 0,-24 65,-100 110,-130 25,-16 62,-32 83,-36 22,-4 37,-13 37,-21 0,-17 -12,-19 -143,-15 -98,2 -201,-15 -274,-46 -17,-8 -36,-14 -42,-14 -17,0 -113,-60 -147,-92 -19,-18 -34,-26 -38,-19 -4,6 -8,104 -9,219 -2,229 -1,234 67,327 63,85 321,315 354,315 5,0 15,6 22,14 27,33 148,29 186,-6 z m 99,-188 c 3,-5 19,-10 34,-10 20,0 41,-15 83,-59 48,-50 57,-65 63,-108 6,-44 3,-56 -19,-92 -42,-67 -145,-161 -175,-161 -33,0 -83,31 -107,65 -11,15 -30,41 -44,58 -37,46 -53,88 -40,101 5,5 10,27 10,48 0,34 7,45 56,91 71,66 124,92 139,67 z m -1545,-61 c 63,-52 119,-129 120,-164 0,-51 -27,-131 -55,-161 -37,-39 -89,-54 -201,-60 -77,-3 -85,-2 -112,21 -44,37 -76,118 -76,191 1,130 92,214 241,223 13,0 47,-20 83,-50 z m 732,-11 c 20,-24 19,-71 -2,-92 -32,-32 -73,63 -43,97 20,22 22,22 45,-5 z m 1753,-49 c 38,-5 90,-19 114,-31 46,-22 131,-102 131,-123 0,-7 7,-18 15,-25 8,-7 15,-22 15,-34 0,-11 7,-34 15,-50 9,-16 16,-50 18,-75 2,-45 1,-46 -30,-48 -18,0 -42,-8 -55,-17 -25,-18 -88,-22 -88,-6 0,6 -12,29 -27,53 -38,57 -51,79 -60,97 -4,8 -11,20 -15,25 -5,6 -37,48 -72,95 -35,47 -73,94 -85,104 -16,15 -18,22 -10,33 14,15 40,16 134,2 z m -3410,-8 c 3,-5 -8,-24 -25,-42 -16,-19 -30,-37 -30,-42 0,-5 -13,-26 -30,-47 -16,-21 -30,-40 -30,-43 0,-3 -19,-34 -42,-69 -62,-93 -66,-98 -90,-150 l -23,-46 -65,-4 c -36,-2 -69,-2 -74,0 -13,7 3,178 20,210 8,15 14,35 14,45 0,9 5,17 10,17 6,0 10,7 10,16 0,17 105,124 122,124 5,0 24,7 41,14 50,23 181,34 192,17 z m 3293,-166 c 25,-33 51,-64 58,-70 6,-5 26,-32 44,-60 18,-27 39,-54 46,-58 8,-4 14,-14 14,-20 0,-7 10,-21 21,-31 18,-15 19,-20 8,-31 -18,-18 -124,-35 -214,-35 -76,0 -98,12 -111,65 -3,14 -10,25 -14,25 -4,0 -13,33 -20,73 -14,82 -2,192 27,257 l 16,34 39,-44 c 22,-25 60,-72 86,-105 z m -3147,73 c 27,-54 32,-75 33,-143 1,-75 -17,-143 -42,-159 -8,-4 -56,5 -147,29 -27,7 -62,16 -77,19 -39,9 -35,30 17,89 25,29 45,57 45,64 0,7 6,16 14,20 7,4 28,31 46,58 27,41 66,84 78,85 1,0 16,-28 33,-62 z m 5054,-192 c 28,-13 67,-40 87,-59 62,-58 156,-110 246,-133 6,-2 12,-8 12,-14 0,-16 -118,-12 -158,6 -75,32 -104,49 -137,78 -58,53 -64,56 -95,63 -17,3 -33,10 -36,14 -3,5 -32,9 -65,9 -32,0 -59,2 -59,5 0,10 34,42 50,48 37,13 107,6 155,-17 z m -6720,-2 c 37,-24 30,-34 -24,-34 -28,0 -52,-4 -56,-9 -3,-5 -19,-13 -37,-16 -17,-4 -36,-11 -42,-16 -163,-128 -185,-139 -276,-139 -71,0 -102,15 -53,26 76,16 180,73 236,129 68,68 193,97 252,59 z m 6520,-54 c 3,-5 21,-10 38,-10 18,-1 50,-9 72,-20 22,-11 45,-20 50,-20 6,0 39,-25 75,-56 36,-30 76,-58 90,-61 14,-3 31,-11 39,-17 14,-11 186,-12 221,-1 9,3 22,17 28,30 12,26 19,30 39,17 10,-6 9,-18 -4,-53 -22,-58 -71,-122 -129,-167 -46,-36 -50,-37 -144,-40 -69,-3 -106,0 -132,11 -34,14 -37,14 -56,-6 -17,-18 -18,-26 -10,-41 13,-24 -6,-111 -31,-140 -20,-23 -94,-56 -127,-56 h -24 l 24,39 c 34,53 50,182 41,321 -8,121 -22,159 -76,202 -41,33 -47,46 -27,66 15,15 35,16 43,2 z m -6445,-15 c 10,-12 5,-22 -33,-57 -70,-66 -79,-98 -79,-270 1,-148 16,-231 50,-266 15,-16 7,-32 -16,-32 -29,0 -104,44 -126,73 -15,21 -21,45 -22,90 -1,34 -2,68 -3,75 -1,17 -51,15 -126,-5 -51,-14 -71,-15 -102,-5 -21,6 -51,14 -66,17 -59,12 -187,173 -187,236 0,27 34,24 48,-5 10,-22 18,-24 120,-30 104,-7 113,-6 163,17 30,14 74,43 99,66 25,22 61,48 80,56 19,9 44,21 54,27 16,8 78,22 122,27 6,0 17,-6 24,-14 z m 1326,-18 c 3,-8 0,-26 -5,-40 -8,-21 -17,-27 -41,-27 -35,0 -35,1 -15,40 19,38 51,52 61,27 z m 1454,-55 c 19,-6 58,-16 85,-22 75,-16 106,-26 145,-45 66,-31 85,-44 117,-77 l 33,-34 2,-897 c 3,-752 1,-897 -11,-897 -7,0 -30,8 -50,19 -42,21 -120,45 -206,63 -117,25 -517,10 -590,-22 -11,-5 -45,-11 -75,-15 -30,-3 -68,-10 -85,-15 -123,-36 -365,-79 -468,-82 -63,-3 -80,1 -137,28 -36,18 -86,41 -111,53 l -46,21 -7,388 c -3,213 -6,646 -7,962 l -1,575 24,-2 c 12,0 52,-9 88,-18 144,-36 435,-42 555,-10 28,7 82,16 122,19 39,3 82,10 95,16 30,13 481,6 528,-8 z m 2420,-921 c 3,-502 2,-921 -2,-932 -4,-11 -17,-19 -30,-19 h -23 l 2,927 c 2,953 2,951 38,940 7,-3 12,-321 15,-916 z m 1235,869 c 17,-32 32,-197 21,-226 -6,-15 -10,-13 -26,14 -11,17 -23,44 -26,59 -4,16 -11,33 -15,39 -12,15 -23,128 -15,149 8,22 41,4 61,-35 z m -6409,26 c 8,-21 -23,-166 -45,-212 -11,-22 -27,-47 -37,-55 -16,-13 -17,-9 -11,61 11,122 22,174 42,198 22,25 43,29 51,8 z m 5074,-903 c 0,-505 3,-927 6,-939 4,-16 -2,-26 -29,-41 -19,-12 -49,-24 -66,-28 -17,-3 -33,-11 -36,-16 -4,-5 -22,-9 -41,-9 -45,0 -83,-18 -63,-31 7,-4 10,-11 6,-15 -4,-4 -13,-2 -19,4 -8,8 -61,12 -168,12 -85,0 -173,5 -195,11 -22,6 -69,15 -105,20 -36,6 -73,14 -82,19 -9,5 -36,13 -59,16 -24,4 -54,13 -68,21 -14,7 -33,13 -41,13 -9,0 -21,5 -27,11 -6,6 -39,13 -74,16 -35,3 -70,10 -77,16 -16,13 -335,11 -360,-2 -9,-5 -43,-12 -74,-15 -32,-4 -60,-12 -63,-17 -4,-5 -16,-9 -28,-9 -12,-1 -40,-9 -62,-20 -22,-11 -45,-19 -52,-20 -6,0 -13,-3 -15,-7 -5,-12 -66,-53 -78,-53 -7,0 -10,286 -10,908 0,852 1,908 18,922 112,95 348,149 597,137 183,-9 285,-22 485,-59 36,-7 157,-14 270,-16 241,-4 350,13 460,74 14,7 31,14 38,14 9,0 12,-190 12,-917 z m 173,910 c 3,-5 8,-407 12,-894 l 8,-887 -21,-11 c -11,-6 -25,-11 -31,-11 -12,0 -16,1791 -4,1803 9,9 31,9 36,0 z m 107,-853 5,-855 -25,-22 c -14,-13 -28,-23 -32,-23 -10,0 -10,1744 -1,1754 4,4 16,6 28,4 20,-3 20,-7 25,-858 z m 88,20 c 2,-767 1,-826 -15,-837 -45,-33 -43,-60 -43,814 0,599 4,830 12,840 6,8 18,12 27,11 14,-3 16,-83 19,-828 z m 102,815 c 7,-8 28,-15 46,-15 h 34 l -2,-742 -3,-743 -27,-3 c -20,-2 -30,-10 -34,-27 -7,-27 -38,-59 -53,-54 -12,4 -29,1554 -18,1583 8,20 41,21 57,1 z M 2628,3295 c 1,-495 0,-906 -3,-912 -3,-10 -10,-10 -30,-1 l -25,11 v 898 c 0,935 -1,911 40,906 13,-2 15,-111 18,-902 z m -97,12 c 1,-483 -1,-881 -4,-883 -3,-3 -15,3 -26,13 l -21,17 v 869 868 l 25,-3 25,-3 z m -210,58 c 0,-472 -4,-801 -9,-803 -5,-1 -23,8 -39,22 -29,24 -30,27 -22,83 5,32 9,373 8,758 0,386 3,708 6,717 6,16 30,27 48,24 4,-1 8,-361 8,-801 z m 122,-43 c 1,-463 -1,-842 -5,-842 -4,0 -23,9 -42,21 l -36,21 2,816 3,816 25,7 c 14,4 31,6 38,6 11,-2 14,-156 15,-845 z m -235,71 c -2,-518 -6,-748 -14,-748 -5,0 -25,12 -42,27 l -32,27 -1,713 c 0,392 0,716 1,721 0,4 20,7 45,7 h 45 z m 6482,696 c 0,-17 5,-39 11,-50 9,-17 17,-19 51,-14 22,4 68,4 103,0 51,-5 64,-10 68,-26 3,-10 12,-19 21,-19 28,0 18,-41 -20,-82 -32,-35 -35,-44 -29,-75 3,-20 13,-42 21,-50 16,-17 18,-32 4,-53 -7,-12 -11,-8 -16,18 -4,17 -11,32 -15,32 -5,0 -14,11 -19,25 -5,14 -14,25 -19,25 -5,0 -12,9 -16,19 -3,10 -17,22 -30,25 -14,4 -25,11 -25,16 0,6 -13,10 -29,10 -79,0 0,45 103,59 28,3 51,12 54,19 3,11 -9,13 -59,10 -59,-4 -97,-14 -156,-41 -13,-6 -25,-8 -27,-6 -8,8 -10,114 -2,157 9,47 26,48 26,1 z M 320,4048 c 0,-51 4,-76 16,-89 27,-30 -8,-55 -38,-26 -15,14 -110,38 -182,44 -38,4 -47,2 -44,-8 3,-8 15,-15 29,-17 13,-2 50,-12 82,-23 31,-10 66,-19 76,-19 11,0 22,-4 25,-9 3,-4 20,-11 37,-15 25,-5 97,-51 119,-76 3,-3 23,-17 45,-30 22,-13 46,-30 53,-37 7,-7 22,-13 32,-13 10,0 22,-4 25,-10 3,-5 21,-10 40,-10 42,0 51,-13 28,-39 -60,-67 -76,-81 -88,-81 -7,0 -15,-5 -17,-11 -5,-16 -85,-29 -135,-22 -54,7 -60,33 -7,33 43,0 100,36 85,54 -5,6 -27,18 -48,25 -36,13 -106,60 -128,87 -17,19 -84,44 -121,44 -28,0 -44,-10 -89,-56 -60,-61 -67,-55 -30,21 33,66 32,89 -5,117 -17,12 -30,27 -30,34 0,6 -7,17 -15,24 -22,18 -18,40 6,40 12,0 27,7 34,16 10,14 31,17 113,17 l 102,1 v 46 c 0,26 3,50 7,53 17,18 23,1 23,-65 z m 95,-69 c 64,-66 143,-129 161,-129 8,0 14,-4 14,-10 0,-6 27,-10 60,-10 33,0 60,4 60,10 0,6 6,10 14,10 7,0 25,9 39,20 25,20 96,27 131,14 19,-7 11,-24 -10,-24 -8,0 -20,-5 -27,-10 -27,-23 -104,-76 -135,-93 -24,-14 -43,-17 -69,-12 -32,6 -141,59 -153,74 -3,4 -18,15 -35,25 -47,29 -85,68 -85,87 0,9 -7,22 -15,29 -15,13 -21,70 -7,70 4,0 30,-23 57,-51 z m 8215,1 c 0,-35 -6,-47 -39,-78 -51,-47 -58,-53 -106,-82 -22,-13 -41,-27 -43,-32 -2,-4 -28,-12 -58,-19 -59,-13 -141,-2 -169,23 -33,29 -82,57 -128,72 -31,10 -10,23 49,29 52,5 88,-2 104,-22 13,-16 75,-41 100,-41 45,0 120,45 201,120 40,38 77,69 82,70 4,0 7,-18 7,-40 z m -7600,-132 -1,-63 -71,-45 C 874,3687 755,3578 696,3500 597,3370 560,3279 560,3165 c 0,-41 -3,-56 -12,-53 -9,3 -14,38 -16,117 -3,115 -3,116 49,227 10,23 19,46 19,53 0,6 5,11 10,11 6,0 10,6 10,14 0,24 114,169 161,206 24,19 58,47 74,62 17,15 36,28 43,28 7,0 15,7 18,15 4,8 12,15 18,15 7,0 23,11 36,25 13,14 32,25 42,25 16,0 18,-9 18,-62 z m 6990,27 c 7,-8 19,-15 27,-15 7,0 16,-7 19,-15 4,-8 10,-15 15,-15 21,0 162,-106 201,-152 48,-57 108,-145 108,-159 0,-5 4,-17 9,-27 6,-9 18,-37 29,-62 11,-25 27,-62 36,-83 20,-46 20,-99 1,-152 -19,-51 -20,-138 -3,-133 7,3 16,23 20,46 4,23 12,50 17,61 6,11 11,46 11,79 0,32 3,62 6,65 4,3 18,-3 32,-13 13,-11 31,-20 38,-20 8,0 23,-6 34,-12 16,-10 29,-10 69,5 27,9 58,17 69,17 11,0 25,7 32,15 11,13 40,21 40,12 0,-2 -7,-18 -15,-35 -18,-36 -70,-82 -91,-82 -30,0 -62,-31 -69,-68 -9,-49 -30,-88 -72,-133 -37,-40 -139,-99 -171,-99 -31,0 -37,19 -13,44 12,12 21,28 21,34 0,7 7,15 15,18 18,7 20,61 3,66 -9,3 -13,38 -13,124 -1,70 -5,127 -12,139 -56,98 -89,152 -100,163 -7,7 -13,17 -13,21 0,29 -281,271 -315,271 -19,0 -24,22 -18,69 6,44 29,55 53,26 z m 685,-5 c 3,-5 20,-10 36,-10 16,0 32,-6 35,-14 3,-8 15,-16 26,-19 31,-8 11,-27 -28,-27 -37,0 -95,-26 -129,-57 -37,-33 -84,-63 -98,-63 -8,0 -25,-9 -38,-19 -23,-19 -23,-20 -6,-38 14,-14 34,-18 90,-18 40,0 78,-4 85,-8 29,-19 8,-70 -55,-137 -13,-13 -23,-27 -23,-30 0,-18 76,-80 99,-82 14,-1 33,-2 41,-4 8,-1 22,-2 30,-3 11,-1 11,-4 2,-13 -6,-6 -44,-12 -89,-12 -78,-1 -139,19 -178,58 -14,14 -55,99 -55,114 0,5 -7,15 -15,22 -8,7 -15,19 -15,26 0,17 27,18 33,2 6,-21 146,-16 162,5 7,9 17,17 23,17 14,0 23,28 11,36 -6,3 -21,-3 -33,-15 -18,-17 -35,-21 -83,-21 -39,0 -67,5 -75,14 -8,7 -23,16 -35,20 -22,7 -103,89 -103,104 0,4 24,14 53,21 61,16 96,35 192,108 50,38 79,53 102,53 17,0 35,-4 38,-10 z M 360,3560 c 32,-35 105,-55 143,-41 61,23 71,8 37,-56 -11,-21 -20,-43 -20,-50 0,-41 -128,-113 -201,-113 -41,0 -49,3 -49,19 0,12 9,20 28,24 28,6 92,58 92,76 0,6 -13,25 -29,43 -55,64 -82,145 -43,131 9,-3 28,-18 42,-33 z M 237,3290 c 11,0 26,-7 33,-15 14,-17 130,-22 130,-6 0,5 13,12 29,16 16,3 32,13 35,21 3,9 12,14 19,11 8,-2 12,-31 12,-98 0,-73 4,-99 18,-119 9,-13 17,-35 17,-48 0,-12 7,-25 15,-28 8,-4 15,-16 15,-28 0,-12 12,-34 26,-49 37,-40 27,-58 -26,-46 -95,22 -186,111 -219,217 -15,48 -22,57 -44,60 -30,4 -113,73 -122,102 -10,30 4,44 24,26 10,-9 27,-16 38,-16 z m 827,5 c 40,-17 126,-100 126,-122 0,-7 4,-13 10,-13 5,0 12,-11 16,-25 3,-14 10,-25 14,-25 10,0 20,-39 11,-44 -4,-3 -20,6 -35,20 -15,14 -62,43 -104,64 -99,50 -149,112 -116,145 19,19 32,19 78,0 z m 6954,-12 c 2,-12 -2,-28 -7,-35 -38,-45 -61,-68 -67,-68 -16,0 -134,-64 -150,-81 -45,-50 -45,-1 0,68 68,104 119,143 181,140 33,-2 41,-6 43,-24 z m 82,-3 c 11,-11 20,-28 20,-38 0,-11 7,-33 16,-51 15,-30 15,-34 -2,-50 -31,-28 -157,-91 -183,-91 -6,0 -11,-4 -11,-10 0,-5 -4,-10 -9,-10 -18,0 -95,-57 -138,-102 -65,-67 -93,-129 -93,-204 0,-68 -14,-93 -24,-43 -19,97 12,241 67,314 26,35 99,92 131,104 103,37 186,109 186,161 0,24 7,40 17,40 2,0 12,-9 23,-20 z M 904,3269 c 13,-7 30,-24 36,-39 7,-16 24,-41 38,-58 26,-28 42,-38 127,-78 131,-62 180,-125 210,-269 8,-38 15,-79 15,-90 -1,-20 -1,-20 -12,0 -6,11 -17,24 -25,28 -7,4 -13,17 -13,28 0,54 -153,219 -217,235 -13,4 -23,10 -23,15 0,5 -6,9 -12,9 -7,1 -31,9 -53,20 -22,11 -44,19 -48,20 -5,0 -22,9 -38,21 -25,17 -29,27 -29,65 0,30 5,46 15,50 18,7 20,40 3,47 -7,3 -10,6 -6,6 4,1 18,-4 32,-10 z m -44,-20 c 0,-7 -8,-17 -17,-24 -15,-11 -17,-32 -18,-152 0,-90 4,-145 11,-154 7,-8 15,-29 19,-46 3,-18 11,-33 16,-33 14,0 11,-43 -7,-86 -56,-142 -147,-274 -188,-274 -22,0 -20,19 4,28 11,4 30,25 42,47 22,38 23,50 24,295 1,140 2,267 3,281 0,16 19,47 47,78 45,50 64,62 64,40 z m 7380,-97 c 5,-20 6,-120 3,-238 -5,-174 -4,-214 12,-278 9,-42 23,-81 31,-87 8,-6 14,-17 14,-24 0,-7 14,-15 31,-19 35,-7 30,-26 -7,-26 -15,0 -24,6 -24,15 0,8 -7,15 -15,15 -8,0 -15,3 -15,8 0,4 -11,19 -25,34 -24,26 -95,154 -95,171 0,5 -7,16 -16,25 -13,12 -15,28 -11,70 3,31 11,58 17,62 6,4 14,26 17,49 3,23 10,44 14,47 5,3 9,50 9,105 0,75 -4,106 -16,124 -9,14 -13,33 -10,42 6,14 13,11 42,-22 19,-21 38,-54 44,-73 z m -1136,63 c 15,-8 35,-15 43,-15 35,0 163,-99 163,-125 0,-6 5,-16 12,-23 20,-20 38,-84 44,-152 6,-85 34,-211 51,-231 7,-8 13,-20 13,-25 0,-14 118,-122 142,-129 26,-8 67,-53 68,-73 0,-7 11,-33 25,-58 30,-53 32,-88 7,-111 -32,-31 -99,-89 -140,-121 -36,-29 -47,-32 -106,-32 -63,0 -69,2 -103,35 -43,42 -70,45 -79,9 -11,-45 3,-102 36,-144 l 32,-40 -24,-10 c -13,-6 -36,-19 -53,-30 -16,-11 -39,-24 -50,-30 -11,-6 -33,-19 -50,-30 -16,-11 -52,-31 -80,-46 -27,-14 -61,-33 -75,-41 -62,-36 -153,-85 -250,-133 -175,-87 -225,-110 -237,-110 -6,0 -24,-6 -40,-14 -15,-8 -44,-21 -63,-29 -19,-8 -51,-21 -70,-29 -45,-19 -97,-38 -135,-48 -39,-11 -91,-29 -133,-46 -18,-8 -40,-14 -48,-14 -9,0 -39,-7 -68,-16 -109,-34 -122,-38 -166,-45 -64,-11 -146,-29 -211,-45 -30,-8 -71,-14 -90,-14 -19,-1 -61,-7 -94,-15 -33,-8 -85,-15 -115,-15 -30,-1 -75,-5 -100,-11 -45,-9 -268,-23 -599,-35 -202,-8 -582,9 -686,31 -38,9 -86,15 -105,15 -19,0 -60,7 -90,15 -30,8 -74,15 -96,15 -23,0 -61,7 -84,15 -23,8 -56,15 -73,15 -17,0 -53,6 -81,14 -76,21 -136,36 -181,46 -22,4 -55,13 -72,19 -85,29 -100,34 -133,41 -84,21 -192,56 -233,76 -16,8 -36,14 -46,14 -9,0 -26,7 -37,15 -10,8 -27,15 -36,15 -9,0 -30,7 -47,15 -17,8 -45,22 -62,30 -17,8 -39,15 -49,15 -9,0 -23,7 -30,15 -7,8 -23,15 -35,15 -12,0 -28,7 -35,15 -7,8 -18,15 -24,15 -18,0 -309,149 -329,169 -6,6 -17,11 -24,11 -7,0 -41,19 -76,43 -34,24 -69,46 -77,50 -8,4 -28,16 -45,27 -16,11 -40,24 -53,30 l -24,10 23,38 c 12,20 26,41 31,46 17,20 9,85 -14,108 l -21,21 -30,-33 c -40,-45 -144,-64 -167,-30 -3,4 -36,33 -73,63 -94,77 -107,96 -107,152 0,45 3,49 62,103 165,151 208,213 208,295 0,15 7,44 15,64 8,19 15,44 15,54 0,18 15,55 54,137 35,73 44,87 70,111 21,20 42,28 124,48 24,6 96,-13 120,-30 6,-5 12,-25 12,-43 0,-30 -3,-34 -27,-34 -16,0 -37,7 -47,15 -27,20 -55,19 -110,-5 l -46,-21 v -69 c 0,-59 4,-77 31,-122 28,-48 153,-178 172,-178 4,0 15,-8 25,-17 31,-32 140,-113 151,-113 6,0 11,-5 11,-10 0,-6 10,-15 23,-21 27,-12 45,-23 122,-74 58,-38 103,-64 210,-119 28,-15 57,-30 65,-35 15,-9 127,-61 185,-86 17,-7 48,-21 70,-30 22,-10 53,-24 68,-31 16,-8 35,-14 44,-14 8,0 27,-6 41,-14 33,-16 88,-36 122,-43 14,-3 34,-12 45,-19 11,-8 31,-14 45,-14 14,-1 36,-7 50,-15 14,-8 33,-14 43,-15 11,0 33,-6 50,-14 31,-13 85,-28 157,-45 19,-5 55,-13 80,-19 25,-6 68,-16 95,-23 28,-6 73,-15 100,-19 28,-4 75,-12 105,-18 161,-31 232,-42 271,-42 24,0 89,-7 144,-15 117,-17 467,-20 565,-4 36,5 99,14 140,18 41,5 102,14 135,21 33,6 94,18 135,27 41,8 91,20 110,26 19,6 53,14 75,18 22,4 54,12 70,17 17,6 57,18 90,28 33,9 76,22 95,29 19,7 51,18 70,24 19,7 50,17 69,21 18,5 38,13 44,19 6,6 20,11 32,11 12,0 30,7 41,15 10,8 27,15 37,15 11,0 31,6 45,13 15,8 42,21 60,30 19,9 42,17 52,17 9,0 23,7 30,15 7,8 19,15 27,15 8,0 27,6 41,14 15,8 34,17 42,20 8,3 23,10 33,16 28,17 50,28 102,55 28,14 64,34 80,45 17,11 39,24 50,29 11,5 37,21 58,35 21,14 40,26 43,26 14,0 209,158 279,227 105,101 214,222 228,251 5,12 14,22 19,22 4,0 8,17 8,38 0,36 -24,95 -51,128 -17,21 -84,54 -109,54 -17,0 -20,6 -20,38 0,56 13,64 64,37 z M 576,3032 c -12,-11 -17,7 -9,34 l 8,29 3,-28 c 2,-16 1,-31 -2,-35 z m 6510,50 c 43,-30 56,-100 28,-155 -18,-36 -53,-77 -66,-77 -4,0 -8,54 -8,120 0,108 2,120 18,120 9,0 22,-4 28,-8 z m 1046,-79 c -12,-38 -22,-73 -22,-80 0,-6 -6,-24 -14,-40 -8,-15 -20,-41 -26,-58 -15,-37 -48,-111 -67,-147 -7,-14 -13,-34 -13,-45 0,-10 -7,-27 -15,-37 -8,-11 -15,-30 -15,-41 0,-12 -7,-37 -16,-54 -13,-27 -16,-56 -12,-152 2,-74 9,-124 16,-131 7,-7 12,-21 12,-31 0,-30 40,-107 83,-159 34,-43 36,-48 18,-48 -12,0 -21,5 -21,10 0,6 -6,10 -12,10 -7,0 -42,24 -78,53 -60,49 -107,104 -130,152 -6,11 -14,27 -19,35 -29,51 -41,81 -41,101 0,13 -5,49 -12,80 -12,57 -3,116 23,159 5,8 13,25 19,38 5,12 21,35 35,50 31,33 29,56 -6,60 -30,4 -49,-16 -58,-60 -4,-17 -12,-33 -19,-36 -9,-3 -12,16 -12,71 0,60 4,78 20,97 11,13 20,27 20,32 0,18 95,115 122,124 10,3 18,9 18,14 0,4 11,11 25,14 14,4 25,11 25,16 0,6 7,10 15,10 8,0 32,9 52,20 21,11 43,20 50,20 7,0 13,4 13,8 0,14 44,31 54,21 6,-5 1,-35 -12,-76 z m -7184,29 c 23,-12 47,-22 52,-22 18,0 115,-65 160,-106 25,-24 56,-64 70,-91 14,-26 31,-52 38,-56 17,-11 17,-157 -1,-157 -7,0 -18,20 -25,45 -13,51 -45,88 -70,83 -28,-5 -26,-45 3,-80 48,-57 75,-130 75,-204 0,-59 -18,-142 -41,-184 -4,-8 -18,-35 -30,-60 -29,-56 -151,-180 -206,-208 -50,-25 -62,-17 -26,18 14,13 29,33 34,45 5,11 13,27 19,35 39,62 63,164 63,275 0,81 -17,183 -32,198 -6,6 -11,20 -11,30 0,10 -6,31 -14,45 -28,56 -56,120 -56,131 0,6 -4,11 -10,11 -5,0 -10,10 -10,23 0,13 -7,32 -15,43 -8,10 -15,26 -15,34 0,8 -6,27 -14,41 -16,31 -30,134 -21,149 5,8 12,7 23,-3 10,-7 36,-23 60,-35 z m 1066,-68 c 13,-5 16,-23 16,-90 0,-46 -3,-84 -8,-84 -16,0 -79,60 -97,93 -18,33 -18,36 -2,61 17,26 54,34 91,20 z M 920,2724 c 0,-14 3,-22 33,-82 9,-19 17,-44 17,-56 0,-12 8,-33 18,-46 14,-21 17,-49 17,-186 0,-104 -4,-166 -11,-175 -6,-8 -14,-31 -18,-52 -8,-45 -90,-137 -107,-120 -7,7 -5,21 7,44 15,27 19,57 19,146 0,76 -4,116 -12,124 -7,7 -13,20 -13,29 0,27 -58,100 -80,100 -10,0 -24,-9 -30,-21 -16,-29 -70,-59 -106,-59 -33,0 -94,26 -94,40 0,4 18,11 41,15 30,5 38,10 30,18 -15,15 -14,27 4,27 8,0 15,-4 15,-10 0,-16 57,-12 64,5 3,8 10,15 16,15 10,0 53,42 85,83 21,26 75,139 75,156 0,10 3,21 6,24 10,9 24,-2 24,-19 z m 7176,8 c 6,-4 14,-20 18,-37 4,-16 11,-32 14,-35 4,-3 16,-22 26,-43 11,-21 27,-47 35,-58 55,-68 67,-79 83,-79 9,0 21,-6 25,-14 7,-13 68,-26 121,-26 26,0 28,-11 5,-32 -48,-42 -156,-29 -185,23 -25,43 -51,37 -85,-18 -60,-99 -81,-229 -48,-306 19,-46 19,-77 1,-77 -21,0 -76,58 -76,80 0,10 -4,22 -10,25 -5,3 -12,28 -16,56 -4,27 -11,52 -15,55 -16,9 -11,219 6,250 8,16 15,41 15,56 0,15 4,29 9,33 5,3 12,19 16,36 4,17 13,42 21,57 8,15 14,35 14,45 0,18 8,21 26,9 z M 5210,2379 c 25,-6 72,-15 105,-21 33,-5 65,-14 70,-18 6,-4 26,-11 45,-15 19,-4 40,-11 45,-15 14,-11 96,-30 179,-41 38,-5 77,-14 87,-19 10,-6 106,-10 214,-10 153,0 196,-3 193,-12 -4,-10 -54,-14 -194,-16 -184,-3 -299,8 -419,39 -22,6 -63,14 -91,18 -29,4 -58,12 -66,18 -7,7 -37,15 -66,19 -29,4 -55,11 -58,15 -3,5 -20,9 -37,9 -18,0 -67,7 -111,15 -71,14 -87,14 -165,-1 -47,-8 -96,-22 -108,-30 -12,-8 -33,-14 -46,-14 -13,0 -32,-7 -43,-15 -10,-8 -31,-15 -45,-15 -15,0 -32,-7 -39,-15 -7,-8 -20,-15 -30,-15 -18,0 -90,-76 -90,-96 0,-6 6,-17 14,-23 11,-10 18,-4 32,26 11,21 32,45 49,53 16,8 35,22 41,30 10,12 17,12 38,2 39,-17 62,-16 46,3 -18,21 -3,35 39,35 20,0 43,6 50,13 9,9 62,12 194,12 156,0 185,-3 207,-18 14,-9 43,-17 67,-17 23,0 45,-4 48,-10 3,-5 27,-10 53,-10 26,0 57,-6 68,-14 11,-8 45,-17 74,-21 29,-3 58,-9 64,-13 6,-4 93,-9 194,-12 109,-3 183,-9 184,-15 1,-5 -7,-12 -18,-13 -10,-2 -32,-10 -49,-16 -65,-27 -101,-39 -135,-43 -19,-3 -63,-18 -98,-34 -34,-16 -71,-29 -82,-29 -12,0 -37,-7 -57,-15 -19,-8 -47,-15 -62,-15 -14,-1 -37,-7 -51,-15 -14,-8 -39,-14 -57,-15 -17,0 -44,-5 -60,-11 -42,-16 -140,-32 -213,-34 -105,-3 -203,-16 -228,-32 -15,-9 -45,-13 -95,-11 l -71,3 -11,37 c -9,34 -34,68 -67,93 -21,16 -101,53 -129,60 -38,9 -112,-29 -159,-83 -31,-35 -43,-43 -52,-34 -7,7 -23,12 -36,12 -14,0 -30,7 -36,16 -7,8 -32,18 -56,21 -25,3 -51,10 -57,15 -7,6 -20,7 -29,4 -28,-11 50,-56 95,-56 23,0 44,-6 52,-16 8,-10 23,-14 41,-12 21,4 28,0 28,-13 0,-27 -26,-42 -63,-35 -17,4 -70,11 -117,16 -81,8 -125,15 -250,40 -30,6 -80,15 -110,19 -30,4 -71,12 -90,18 -50,16 -118,33 -172,43 -26,5 -56,13 -67,19 -11,6 -32,11 -48,11 -16,0 -40,8 -53,17 -13,9 -43,17 -65,18 -33,0 -40,3 -40,20 0,18 9,21 83,28 46,4 92,12 102,17 10,6 27,10 37,10 10,0 30,6 44,14 14,7 43,16 65,20 21,5 44,11 49,16 6,4 33,11 60,14 28,4 69,14 93,22 56,19 126,18 142,-1 16,-19 146,-22 152,-3 6,18 139,18 145,1 3,-9 -8,-13 -39,-13 -58,0 -94,-10 -76,-21 22,-14 107,-10 133,7 26,17 76,16 82,-2 2,-6 -11,-15 -29,-21 -28,-9 -30,-11 -14,-18 11,-5 28,-2 46,9 35,20 54,20 70,1 7,-8 23,-15 36,-15 12,0 25,-4 29,-9 3,-6 19,-16 35,-25 33,-16 40,-10 54,46 10,44 39,65 161,119 49,21 142,49 165,49 14,1 36,7 50,15 30,17 230,20 300,4 z m -1095,-43 c 50,-7 100,-18 112,-24 12,-7 34,-12 50,-12 15,0 37,-7 47,-15 11,-8 27,-15 37,-15 24,0 104,-37 119,-55 10,-13 11,-18 1,-28 -10,-9 -14,-8 -22,6 -6,9 -20,17 -33,17 -13,0 -29,7 -36,15 -7,8 -26,15 -42,15 -16,0 -31,6 -34,15 -4,10 -20,15 -45,15 -25,0 -42,5 -45,14 -5,12 -47,14 -257,13 -240,-2 -313,-10 -368,-37 -9,-5 -34,-12 -55,-16 -22,-3 -43,-10 -49,-14 -5,-4 -26,-11 -45,-15 -19,-4 -54,-13 -78,-21 -23,-8 -58,-14 -77,-14 -20,0 -43,-8 -53,-18 -15,-15 -28,-17 -87,-11 -76,7 -137,27 -132,44 2,5 41,13 88,16 96,7 212,25 249,40 14,5 48,14 75,19 100,19 191,38 235,49 25,6 83,11 130,12 47,1 99,5 115,9 46,12 101,11 200,-4 z m 3671,-158 c 4,-13 16,-35 26,-49 26,-35 11,-64 -40,-79 -47,-15 -191,-8 -257,12 l -50,14 40,7 c 22,4 56,7 76,7 20,0 42,7 49,15 7,8 17,15 22,15 10,0 53,44 75,77 12,18 19,20 33,13 10,-6 22,-20 26,-32 z m -6485,-28 c 41,-42 66,-60 84,-60 38,0 95,-27 95,-44 0,-14 -19,-16 -126,-16 -111,0 -131,3 -160,21 -36,22 -42,39 -21,61 22,23 47,67 47,83 0,27 21,16 81,-45 z m 6063,-80 c 5,-5 19,-10 31,-10 12,0 30,-7 41,-15 10,-8 35,-15 54,-15 19,0 46,-7 60,-15 16,-9 56,-14 113,-15 48,0 87,-3 87,-7 0,-10 -339,-354 -446,-453 -82,-76 -139,-114 -154,-105 -5,3 2,27 15,53 21,43 36,76 81,182 8,19 22,48 30,63 9,15 21,38 27,50 18,33 50,67 63,67 6,0 17,7 24,15 7,8 22,15 34,15 11,0 34,11 50,23 l 29,24 -21,21 c -13,13 -35,22 -52,22 -33,0 -77,23 -98,52 -7,9 -19,24 -27,32 -8,8 -15,21 -15,30 0,12 6,13 32,5 17,-5 36,-13 42,-19 z m -5664,-4 c 0,-29 -73,-96 -104,-96 -23,0 -106,-35 -106,-45 0,-9 39,-45 50,-45 19,0 92,-43 120,-72 27,-26 62,-91 115,-213 36,-83 57,-125 66,-131 5,-3 9,-12 9,-20 0,-19 -34,-18 -50,1 -7,8 -16,15 -20,15 -16,0 -88,68 -313,293 -125,125 -225,232 -222,237 4,6 53,10 109,10 80,0 106,3 116,15 7,8 27,15 46,15 32,0 79,16 134,46 37,20 50,17 50,-10 z m 6234,-113 c 8,-77 75,-227 116,-259 8,-7 12,-16 7,-20 -12,-12 -147,137 -147,163 0,7 -4,13 -10,13 -5,0 -13,12 -16,28 -4,15 -13,36 -19,47 -19,31 -28,114 -15,130 10,12 17,10 45,-12 29,-23 33,-33 39,-90 z m -6776,58 c 2,-27 -3,-52 -12,-66 -9,-14 -16,-29 -16,-35 0,-24 -82,-148 -138,-208 -61,-66 -92,-75 -43,-13 55,69 124,233 119,281 0,8 0,22 1,30 2,17 61,62 76,57 5,-2 11,-23 13,-46 z m 3413,0 c 8,-6 33,-25 57,-41 23,-17 42,-37 42,-45 0,-8 5,-15 10,-15 6,0 10,-7 10,-15 0,-13 -25,-15 -169,-15 -94,0 -172,4 -175,9 -9,14 41,74 99,119 24,19 39,23 71,19 23,-2 48,-9 55,-16 z m 3573,-16 c 6,-18 -2,-45 -15,-45 -5,0 -9,14 -9,30 0,32 14,40 24,15 z m -324,-45 c 0,-21 5,-42 10,-45 6,-3 10,-15 10,-25 0,-10 7,-25 15,-34 8,-8 15,-18 15,-23 0,-28 190,-221 242,-247 7,-3 27,-15 43,-26 17,-11 41,-25 55,-30 36,-16 6,-32 -45,-24 -148,23 -276,74 -332,132 -18,19 -35,42 -38,53 -12,36 -46,18 -76,-38 -15,-28 -38,-64 -51,-79 -35,-40 -136,-104 -166,-104 -15,0 -43,-4 -62,-9 -19,-5 -72,-12 -117,-15 -69,-4 -83,-3 -83,9 0,8 9,15 19,15 11,0 21,3 23,8 2,4 35,32 73,63 81,65 263,243 321,315 21,26 46,55 54,64 8,9 28,32 44,52 16,21 33,35 38,32 4,-3 8,-23 8,-44 z m -6600,15 c 0,-8 8,-23 18,-34 9,-10 46,-52 82,-92 140,-159 360,-363 413,-382 9,-4 17,-11 17,-17 0,-14 -194,-4 -260,12 -87,23 -182,107 -222,197 -24,57 -39,63 -65,25 -53,-77 -139,-135 -220,-150 -21,-3 -43,-11 -50,-16 -17,-14 -149,-23 -157,-10 -3,6 13,19 37,31 100,48 275,205 313,279 11,20 25,43 32,50 6,7 12,22 12,33 0,11 4,27 9,37 5,9 12,25 15,35 7,21 26,23 26,2 z m -325,-5 c 4,-6 -7,-10 -24,-10 -17,0 -31,5 -31,10 0,6 11,10 24,10 14,0 28,-4 31,-10 z m 394,-429 c 32,-32 44,-62 32,-74 -16,-16 -13,-99 4,-121 8,-11 15,-28 15,-38 0,-10 5,-18 10,-18 19,0 31,-49 17,-70 -15,-25 -46,-26 -53,-2 -3,9 -12,29 -20,44 -8,14 -14,35 -14,45 0,10 -5,24 -11,30 -13,13 -25,182 -16,207 8,21 13,20 36,-3 z m 6454,-20 c 13,-54 -17,-186 -66,-283 -22,-46 -46,-85 -51,-87 -6,-2 -43,-36 -83,-75 -60,-57 -129,-113 -228,-184 -6,-4 -26,-15 -45,-25 -45,-23 -78,-52 -115,-101 -27,-36 -30,-46 -30,-115 0,-78 15,-124 58,-183 22,-30 16,-48 -17,-48 -56,0 -137,97 -160,191 -5,21 -2,28 14,32 13,3 20,14 20,31 0,14 6,29 13,33 6,4 23,29 37,56 13,26 28,47 32,47 5,0 8,5 8,11 0,30 74,104 137,136 38,19 85,48 105,64 20,16 40,29 43,29 3,0 16,10 28,23 12,12 50,48 84,80 52,48 66,57 88,51 29,-7 35,12 8,31 -14,11 -15,15 -4,28 37,45 51,93 51,170 0,59 4,84 18,102 23,33 44,27 55,-14 z m -795,-16 c 54,-19 92,-44 92,-59 0,-7 7,-35 15,-63 14,-46 21,-54 76,-87 33,-20 64,-36 68,-36 4,0 24,-17 45,-37 32,-32 35,-39 22,-49 -21,-15 -20,-18 9,-50 31,-33 57,-83 49,-95 -3,-5 -11,-9 -19,-9 -7,0 -15,-4 -17,-8 -1,-5 -42,-28 -91,-52 -48,-23 -90,-46 -93,-51 -3,-5 -16,-9 -28,-9 -13,0 -29,-7 -36,-15 -7,-8 -23,-15 -35,-15 -12,0 -28,-7 -35,-15 -7,-8 -19,-15 -26,-15 -8,0 -22,-4 -32,-9 -101,-54 -169,-66 -208,-36 -10,8 -27,15 -37,15 -18,0 -61,21 -109,54 -20,13 -28,27 -28,47 0,30 17,39 26,14 3,-8 27,-24 52,-37 41,-20 62,-23 158,-23 66,1 118,5 125,12 8,6 30,14 49,18 19,4 41,11 50,16 8,4 51,25 95,46 78,37 165,109 165,136 0,7 -11,24 -25,37 -30,29 -32,40 -4,40 12,0 19,5 17,13 -6,17 -39,22 -49,6 -11,-19 -289,-21 -289,-2 0,10 29,12 129,10 90,-1 134,2 142,10 14,14 -9,21 -81,25 -40,3 -45,6 -48,28 -4,32 -33,92 -49,103 -7,4 -13,13 -13,19 0,6 -18,26 -39,45 -22,18 -46,47 -55,63 -13,27 -13,30 2,30 9,0 36,-7 60,-15 z m -4838,-18 c 0,-7 -25,-37 -55,-67 -30,-30 -55,-60 -55,-66 0,-6 -7,-17 -15,-24 -8,-7 -15,-20 -15,-30 0,-31 -39,-70 -70,-70 -36,0 -61,-10 -54,-21 3,-5 52,-9 110,-9 63,0 104,-4 104,-10 0,-17 -222,-16 -228,1 -6,16 -62,10 -62,-6 0,-8 9,-15 19,-15 31,0 35,-19 6,-26 -23,-6 -45,-37 -45,-65 0,-5 15,-26 34,-47 35,-38 148,-101 257,-141 167,-63 391,-33 413,54 8,31 26,24 26,-11 0,-37 -38,-82 -90,-106 -25,-11 -56,-26 -70,-34 -47,-23 -190,-19 -190,7 0,5 -7,9 -16,9 -9,0 -28,6 -42,13 -15,8 -44,21 -64,30 -21,10 -53,23 -70,31 -18,8 -40,17 -48,20 -8,3 -22,10 -30,15 -8,5 -22,12 -30,16 -58,23 -155,83 -158,97 -4,20 57,107 76,108 16,0 16,30 -1,30 -7,0 -18,-5 -25,-12 -18,-18 -14,4 5,32 21,31 40,47 78,66 99,50 135,85 135,134 0,39 22,66 75,94 37,19 95,21 95,3 z m -714,-38 c 19,-11 34,-28 34,-37 0,-31 30,-103 62,-153 43,-65 120,-123 164,-123 19,0 34,-3 34,-6 0,-3 -14,-23 -32,-44 -25,-31 -34,-36 -42,-25 -6,8 -33,32 -61,54 -44,35 -96,86 -131,128 -10,12 -36,59 -71,129 -19,39 -16,98 5,98 3,0 20,-9 38,-21 z m 6244,-33 c 0,-35 -5,-58 -15,-66 -8,-7 -15,-18 -15,-26 0,-39 -160,-213 -230,-249 -29,-15 -31,-15 -39,9 -6,13 -15,26 -22,28 -18,6 -1,28 22,28 11,0 41,14 67,31 74,48 142,156 142,224 0,26 7,37 33,54 50,32 57,28 57,-33 z m -130,-16 c 0,-53 -86,-170 -152,-205 -26,-14 -28,-14 -49,18 -35,49 -60,70 -117,97 -29,14 -52,28 -52,31 0,4 -9,9 -20,12 -37,10 -23,30 16,22 22,-4 56,0 87,9 29,8 102,19 162,24 61,5 113,9 118,10 4,1 7,-7 7,-18 z m -5775,-11 c 22,-6 48,-15 57,-20 28,-14 70,-11 90,8 17,15 18,15 18,0 0,-10 -6,-17 -14,-17 -8,0 -16,-6 -19,-13 -3,-7 -35,-28 -71,-46 -36,-18 -74,-44 -84,-57 -9,-14 -26,-37 -37,-50 -22,-28 -20,-29 -101,40 -38,31 -84,115 -84,151 0,23 1,23 103,19 56,-3 120,-10 142,-15 z m 542,-75 c 44,-33 67,-68 92,-142 23,-68 27,-127 9,-138 -6,-4 -33,15 -64,48 -29,31 -59,58 -66,62 -7,3 -33,17 -57,31 -24,14 -58,25 -75,25 -17,1 -42,7 -56,15 -14,8 -37,14 -52,15 -31,0 -45,15 -26,27 7,4 18,21 23,37 12,34 45,58 52,39 5,-15 54,-17 69,-4 28,27 105,20 151,-15 z m 4599,20 c 32,-15 36,-15 53,0 23,21 51,20 51,-1 0,-10 7,-27 15,-37 8,-11 15,-30 15,-43 0,-21 -5,-23 -48,-23 -27,0 -57,-6 -68,-15 -10,-8 -33,-15 -50,-15 -17,0 -37,-7 -44,-15 -7,-8 -18,-15 -24,-15 -6,-1 -31,-21 -56,-45 -25,-25 -48,-45 -53,-45 -4,0 -12,-12 -18,-27 -10,-27 -11,-27 -25,-9 -41,57 17,225 99,284 38,27 103,29 153,6 z M 1487,1115 c 42,-41 79,-75 83,-75 6,0 22,-12 67,-50 7,-5 14,-10 17,-10 3,0 25,-13 49,-30 25,-16 51,-30 59,-30 23,0 83,-69 118,-135 6,-11 19,-33 30,-50 11,-16 24,-40 29,-52 5,-11 15,-24 20,-28 6,-3 11,-39 11,-80 0,-55 4,-74 15,-79 12,-4 15,-25 15,-100 0,-59 4,-96 11,-98 6,-2 9,-17 7,-33 l -5,-30 -8,33 c -9,39 -29,37 -33,-4 -2,-16 -10,-33 -18,-37 -8,-4 -14,-14 -14,-21 0,-7 -10,-22 -22,-33 -29,-27 -152,-93 -173,-93 -8,0 -41,-9 -72,-20 -74,-26 -86,-17 -64,49 33,100 105,181 162,181 14,0 30,5 37,12 16,16 15,55 0,61 -7,3 1,6 19,6 46,1 74,14 111,52 34,34 43,79 17,79 -8,0 -15,-6 -15,-14 0,-26 -75,-76 -114,-76 -44,0 -45,10 -7,58 29,38 61,123 61,164 0,38 -36,120 -67,153 -16,17 -63,50 -104,74 -98,58 -138,89 -237,186 -46,44 -94,84 -107,88 -23,8 -24,10 -9,33 9,13 25,24 36,24 11,0 52,-32 95,-75 z m -207,36 c 0,-5 -7,-22 -14,-38 -8,-15 -17,-36 -20,-46 -3,-9 -14,-20 -23,-24 -22,-7 -93,-84 -93,-99 0,-6 -7,-17 -15,-24 -10,-8 -15,-31 -15,-66 0,-60 -16,-72 -26,-20 -11,61 22,174 66,224 57,65 140,120 140,93 z m 880,-6 c 0,-16 -20,-19 -57,-9 -37,10 -26,24 17,24 29,0 40,-4 40,-15 z m 4724,6 c 7,-11 -49,-25 -64,-16 -5,3 -10,10 -10,16 0,12 67,12 74,0 z m 889,-13 c 98,-69 137,-140 137,-245 0,-37 -3,-78 -6,-90 -11,-42 -24,-12 -24,55 0,58 -4,72 -32,113 -17,26 -44,54 -59,63 -15,9 -37,36 -48,59 -35,71 -25,85 32,45 z M 2570,911 c 0,-35 -6,-65 -15,-77 -16,-21 -20,-70 -6,-79 6,-3 43,3 83,14 40,10 102,21 136,25 41,4 74,13 93,27 26,18 30,19 35,4 4,-9 4,-36 1,-61 -5,-48 -39,-94 -86,-117 -39,-19 -48,-42 -27,-66 11,-12 27,-21 37,-21 22,0 95,-55 203,-154 48,-44 102,-91 121,-104 19,-14 35,-29 35,-35 0,-13 -149,-4 -158,10 -4,6 -21,15 -37,19 -17,4 -39,13 -50,20 -11,8 -26,14 -33,14 -7,0 -20,7 -28,15 -9,8 -24,15 -35,15 -10,0 -19,4 -19,9 0,5 -12,14 -27,20 -31,12 -60,29 -81,49 -7,6 -18,12 -23,12 -5,0 -15,5 -22,11 -11,9 -111,77 -155,104 -21,13 -32,22 -61,45 -13,11 -28,20 -33,20 -5,0 -16,6 -23,13 -28,24 -41,32 -88,55 -51,25 -54,42 -7,42 16,0 32,5 35,10 3,6 14,10 23,10 9,0 38,14 64,30 60,37 88,90 88,163 0,66 8,76 37,42 18,-21 23,-38 23,-84 z m 3904,93 c 3,-9 6,-24 6,-35 0,-24 9,-24 26,-1 12,15 13,14 14,-10 0,-16 -4,-28 -10,-28 -5,0 -10,-15 -10,-34 0,-26 9,-42 37,-70 21,-20 45,-36 55,-36 10,0 18,-4 18,-9 0,-5 15,-12 33,-16 69,-13 109,-55 52,-55 -14,0 -25,-4 -25,-10 0,-5 -6,-10 -13,-10 -12,0 -26,-9 -74,-50 -7,-5 -16,-10 -21,-10 -5,0 -18,-8 -30,-18 -25,-21 -38,-30 -132,-92 -41,-27 -80,-54 -87,-60 -7,-5 -17,-10 -22,-10 -5,0 -16,-6 -23,-12 -20,-19 -44,-33 -128,-73 -121,-59 -134,-64 -162,-71 -15,-3 -32,-12 -39,-20 -12,-15 -129,-20 -129,-6 0,5 17,22 37,38 33,25 190,163 248,217 11,11 46,31 78,45 70,31 71,43 0,91 -32,22 -57,49 -67,72 -18,40 -22,119 -6,119 6,0 10,-3 10,-7 0,-16 88,-42 160,-48 41,-4 90,-13 108,-22 68,-30 88,2 52,81 -21,48 -20,69 7,134 15,35 27,41 37,16 z M 1252,959 c -2,-32 1,-49 12,-58 9,-8 16,-24 16,-37 0,-13 6,-27 14,-31 8,-4 16,-21 18,-37 4,-39 21,-43 36,-9 13,31 13,39 -6,-92 -8,-51 -27,-95 -41,-95 -11,0 -71,86 -81,118 -28,86 -39,107 -62,112 -32,8 -35,50 -6,92 69,100 104,113 100,37 z m 6544,29 c 13,-13 24,-28 24,-34 0,-6 7,-17 15,-24 26,-22 19,-75 -15,-108 -16,-17 -30,-39 -30,-50 0,-44 -82,-172 -110,-172 -17,0 -24,85 -14,163 4,31 2,47 -5,47 -6,0 -11,10 -11,23 1,20 2,21 14,5 19,-25 36,-22 36,6 0,13 7,26 15,30 9,3 15,18 15,36 0,17 4,38 9,48 5,9 12,25 15,35 7,22 13,22 42,-5 z M 1296,903 c -11,-11 -17,4 -9,23 7,18 8,18 11,1 2,-10 1,-21 -2,-24 z m 5811,-54 c -33,-60 -53,-89 -59,-89 -5,0 -8,-13 -8,-30 0,-31 -16,-41 -26,-15 -4,8 -16,15 -29,15 -20,0 -50,-28 -115,-107 -28,-34 -96,-184 -106,-233 -3,-19 -12,-38 -18,-42 -7,-4 -12,-52 -14,-123 -2,-66 -8,-113 -13,-109 -13,8 -11,211 2,236 6,11 15,75 19,142 4,66 13,132 18,146 6,14 13,38 17,53 3,15 13,31 23,34 9,3 36,14 59,24 23,11 45,19 48,19 4,0 13,7 21,15 9,8 24,15 33,15 10,0 24,7 31,15 7,8 20,15 30,15 10,0 23,7 30,15 7,8 23,15 36,15 16,0 24,6 25,18 0,9 3,12 5,6 3,-6 -1,-22 -9,-35 z m -5183,2 c 7,-11 88,-51 103,-51 6,0 16,-6 22,-14 7,-8 26,-18 42,-21 16,-4 29,-11 29,-16 0,-5 7,-9 16,-9 26,0 93,-44 98,-65 3,-11 6,-41 6,-67 0,-26 7,-73 15,-105 15,-59 18,-167 6,-263 l -7,-55 -6,89 c -4,48 -15,109 -24,135 -21,59 -75,172 -91,189 -7,7 -13,17 -13,22 0,4 -23,31 -51,60 -46,47 -52,50 -67,37 -20,-18 -40,-7 -60,33 -18,38 -35,63 -51,76 -8,6 -11,16 -7,22 9,14 33,16 40,3 z M 7850,745 c 0,-8 -4,-17 -10,-20 -6,-4 -10,5 -10,20 0,15 4,24 10,20 6,-3 10,-12 10,-20 z M 2469,540 c 13,-8 32,-23 43,-32 12,-10 27,-18 33,-18 7,0 15,-7 19,-15 3,-8 12,-15 21,-15 8,0 15,-4 15,-9 0,-5 10,-13 22,-17 12,-3 26,-11 32,-16 27,-23 119,-78 131,-78 7,0 18,-7 25,-15 7,-8 21,-15 31,-15 11,0 19,-4 19,-10 0,-5 12,-13 27,-16 15,-4 38,-13 52,-20 14,-8 34,-14 43,-14 9,0 20,-4 23,-10 3,-5 33,-10 65,-10 32,0 61,-4 64,-9 5,-8 -48,-31 -104,-46 -14,-3 -34,-10 -45,-15 -76,-32 -146,-45 -255,-45 -134,0 -174,14 -260,90 -28,25 -55,45 -61,45 -17,0 -22,-31 -10,-68 10,-30 10,-42 -1,-62 -40,-73 -61,-88 -71,-50 -3,11 -12,20 -21,20 -12,0 -14,9 -11,48 17,192 12,354 -15,465 -20,82 -10,83 83,14 46,-34 94,-69 106,-77 z m 4261,127 c 0,-7 -4,-17 -9,-23 -14,-13 -33,-211 -38,-396 -4,-136 -7,-159 -23,-173 -20,-18 -40,-13 -40,9 0,8 -7,19 -15,26 -16,13 -19,62 -6,95 9,21 -3,55 -18,55 -5,0 -34,-24 -66,-54 -33,-32 -70,-58 -88,-62 -18,-3 -37,-11 -44,-16 -28,-22 -280,0 -358,32 -60,24 -114,40 -135,40 -14,0 -32,4 -39,9 -16,10 -6,14 64,25 43,6 113,25 133,35 21,10 81,37 102,45 8,3 42,22 75,41 33,19 70,40 83,45 12,5 22,14 22,20 0,5 6,10 12,10 14,0 121,70 126,83 2,4 10,7 18,7 8,0 17,7 20,15 4,8 10,15 16,15 7,0 76,48 163,115 24,18 45,19 45,2 z M 2020,583 c 0,-21 -3,-24 -9,-14 -5,8 -7,20 -4,28 8,21 13,15 13,-14 z m 4967,-62 c 4,-3 21,-26 38,-50 38,-56 84,-91 121,-91 42,0 62,-15 39,-28 -29,-15 -11,-38 44,-57 57,-18 109,-70 141,-138 29,-62 31,-101 4,-105 -11,-2 -27,4 -34,13 -7,9 -28,15 -50,15 -76,0 -250,110 -250,158 0,11 -7,22 -15,26 -10,3 -15,19 -15,45 0,46 -9,73 -21,65 -5,-3 -9,-17 -9,-32 0,-15 -4,-33 -9,-41 -5,-7 -8,49 -8,135 0,92 3,138 8,120 5,-16 12,-32 16,-35 z M 2047,388 c -2,-24 -4,-7 -4,37 0,44 2,63 4,43 2,-21 2,-57 0,-80 z M 7010,246 c 0,-8 -4,-18 -10,-21 -5,-3 -10,3 -10,14 0,12 5,21 10,21 6,0 10,-6 10,-14 z"
       id="path298" />
    <path
       d="m 3739,4069 c -6,-3 -9,-19 -7,-35 l 3,-29 h 80 c 68,0 80,3 83,18 2,10 -4,20 -15,23 -10,3 -27,10 -38,14 -27,12 -93,18 -106,9 z"
       id="path300" />
    <path
       d="m 3515,4058 c -10,-6 -47,-12 -80,-13 -33,-1 -66,-5 -73,-9 -21,-13 -13,-46 14,-58 22,-10 28,-10 39,5 9,12 27,17 63,17 41,0 54,4 66,22 30,42 15,61 -29,36 z"
       id="path302" />
    <path
       d="m 4012,4038 c -14,-14 2,-48 23,-48 8,0 20,-8 27,-19 8,-11 32,-21 62,-25 46,-7 55,-12 91,-44 23,-21 69,-11 73,15 3,18 -4,24 -38,34 -22,7 -45,18 -51,26 -6,7 -24,13 -40,13 -17,0 -47,13 -71,30 -45,33 -58,36 -76,18 z"
       id="path304" />
    <path
       d="m 2863,4003 c -4,-10 3,-23 18,-34 27,-21 45,-24 54,-8 5,7 13,5 24,-5 17,-15 61,-12 61,5 0,4 35,9 78,11 69,3 77,5 77,23 0,18 -6,20 -80,18 -44,-1 -87,-2 -95,-2 -8,-1 -41,1 -73,3 -46,3 -60,0 -64,-11 z"
       id="path306" />
    <path
       d="m 3340,3780 c -16,-4 -25,-13 -25,-25 0,-14 8,-21 25,-23 14,-2 32,-10 41,-18 17,-16 49,-9 49,10 -1,15 -32,52 -50,58 -8,2 -26,2 -40,-2 z"
       id="path308" />
    <path
       d="m 3540,3781 c -90,-6 -95,-7 -98,-29 -4,-23 -3,-23 107,-21 92,2 114,-1 129,-15 16,-14 21,-14 30,-3 9,10 7,19 -5,38 -9,13 -17,25 -17,26 -4,7 -66,9 -146,4 z"
       id="path310" />
    <path
       d="m 3086,3762 c -22,-13 -30,-14 -33,-4 -6,14 -33,16 -33,2 0,-5 -20,-10 -45,-10 -51,0 -69,-20 -42,-47 14,-14 22,-15 55,-5 22,7 54,9 71,6 26,-6 37,-2 61,21 23,22 27,32 19,42 -14,17 -18,16 -53,-5 z"
       id="path312" />
    <path
       d="m 3884,3744 c -8,-32 8,-45 53,-42 17,1 38,-4 47,-11 10,-8 28,-11 45,-8 15,3 33,1 38,-4 6,-6 26,-11 44,-11 22,-1 39,-8 48,-20 9,-14 21,-18 40,-15 16,3 33,-1 43,-10 18,-16 68,-11 68,7 0,23 -41,50 -75,50 -22,0 -38,6 -41,15 -4,8 -15,15 -26,15 -11,0 -36,8 -55,17 -33,15 -36,15 -48,0 -16,-23 -24,-21 -51,8 -20,22 -30,25 -59,19 -23,-4 -35,-2 -35,5 0,22 -30,10 -36,-15 z"
       id="path314" />
    <path
       d="m 3434,3469 c -3,-6 -15,-9 -26,-7 -24,4 -44,-22 -35,-46 8,-21 35,-21 58,0 14,13 39,16 110,15 93,0 122,8 112,35 -4,11 -28,14 -109,13 -57,0 -106,-5 -110,-10 z"
       id="path316" />
    <path
       d="m 3856,3454 c -3,-9 -6,-24 -6,-35 0,-18 7,-20 70,-18 43,1 75,-3 85,-11 8,-7 29,-10 45,-8 23,4 35,0 45,-15 9,-12 26,-20 47,-21 18,-1 47,-9 64,-18 28,-15 33,-15 53,-2 11,8 21,24 21,36 0,16 -4,19 -24,14 -14,-3 -28,-1 -31,5 -4,6 -21,9 -39,8 -22,-2 -39,5 -59,24 -16,14 -41,26 -55,26 -83,2 -177,12 -180,21 -6,16 -29,12 -36,-6 z"
       id="path318" />
    <path
       d="m 2965,3441 c -23,-5 -31,-12 -33,-34 -3,-24 0,-27 27,-27 16,0 32,4 36,10 3,5 44,9 91,9 90,0 124,12 104,37 -12,13 -166,17 -225,5 z"
       id="path320" />
    <path
       d="m 3342,3172 c -16,-11 -6,-61 15,-69 8,-3 23,4 33,15 19,20 51,20 77,0 18,-14 77,30 64,46 -12,14 -169,21 -189,8 z"
       id="path322" />
    <path
       d="m 3770,3165 c -6,-8 -9,-23 -5,-35 7,-21 29,-27 40,-10 9,15 41,12 54,-4 14,-16 135,-20 164,-5 34,19 1,39 -63,39 -39,0 -62,5 -70,15 -17,20 -103,20 -120,0 z"
       id="path324" />
    <path
       d="m 3159,3160 c -9,-5 -58,-10 -110,-12 l -94,-3 v -30 c 0,-27 4,-30 33,-33 18,-2 32,1 32,7 0,7 27,11 68,11 61,0 71,3 90,25 34,39 23,60 -19,35 z"
       id="path326" />
    <path
       d="m 4126,3114 c -11,-28 5,-44 45,-44 21,0 57,-10 79,-21 36,-19 44,-20 66,-9 26,14 27,29 3,41 -77,40 -183,58 -193,33 z"
       id="path328" />
    <path
       d="m 3705,2860 c -3,-5 -14,-10 -24,-10 -10,0 -24,-6 -30,-14 -22,-27 12,-37 115,-34 81,2 99,6 102,19 2,9 -9,24 -24,34 -22,14 -31,15 -46,6 -22,-14 -55,-14 -63,-1 -3,6 -10,10 -15,10 -5,0 -12,-4 -15,-10 z"
       id="path330" />
    <path
       d="m 3401,2836 c -8,-9 -29,-15 -49,-15 -21,0 -95,0 -167,-1 -71,-1 -139,0 -150,2 -26,4 -32,-28 -9,-53 18,-20 54,-26 54,-9 0,14 43,13 58,-2 8,-8 15,-8 26,1 10,8 52,12 122,12 120,0 167,16 162,54 -4,25 -31,31 -47,11 z"
       id="path332" />
    <path
       d="m 4026,2820 c -13,-28 -13,-31 4,-40 23,-12 50,-3 50,17 0,11 9,7 32,-12 25,-21 39,-26 64,-22 17,3 36,1 40,-3 5,-5 28,-12 51,-16 34,-5 44,-3 49,10 3,9 1,23 -6,31 -11,13 -91,32 -118,26 -7,-1 -27,7 -45,18 -23,14 -37,17 -49,10 -11,-6 -19,-6 -23,1 -12,19 -34,10 -49,-20 z"
       id="path334" />
    <path
       d="m 3791,2566 c -6,-7 -22,-11 -35,-9 -32,7 -56,-31 -29,-45 19,-10 130,-9 140,1 3,4 15,2 25,-4 27,-15 42,2 34,36 -6,24 -11,26 -46,24 -22,-2 -42,0 -46,4 -11,11 -31,8 -43,-7 z"
       id="path336" />
    <path
       d="m 4118,2569 c -22,-12 -24,-59 -3,-59 8,0 15,5 15,10 0,16 46,12 60,-5 18,-21 108,-21 117,1 7,19 -13,34 -47,34 -14,0 -34,7 -44,15 -23,17 -73,19 -98,4 z"
       id="path338" />
    <path
       d="m 3535,2530 c -3,-5 -43,-10 -88,-10 -45,0 -99,-3 -120,-7 -34,-5 -38,-9 -35,-32 3,-28 41,-42 61,-22 6,6 45,11 87,11 80,0 88,3 107,37 12,22 1,44 -12,23 z"
       id="path340" />
    <path
       d="m 2955,2480 c -9,-15 4,-49 23,-58 9,-5 56,-6 105,-4 84,4 87,5 87,28 0,35 -43,54 -68,31 -20,-18 -42,-22 -42,-8 0,15 -32,22 -45,11 -9,-8 -15,-8 -20,0 -8,13 -32,13 -40,0 z"
       id="path342" />
    <path
       d="m 5119,3974 c -8,-9 -22,-14 -37,-11 -32,6 -171,-12 -199,-25 -16,-8 -26,-8 -36,0 -20,17 -92,-10 -92,-35 0,-16 9,-18 104,-16 63,2 107,7 111,14 4,6 16,9 26,8 11,-2 56,1 102,5 78,7 82,9 82,31 0,14 -8,29 -19,35 -25,13 -26,13 -42,-6 z"
       id="path344" />
    <path
       d="m 5357,3983 c -12,-11 -8,-40 8,-53 9,-8 68,-13 175,-15 103,-1 165,-6 173,-14 14,-14 40,-14 55,1 9,9 17,9 34,1 40,-20 84,-22 112,-8 20,11 33,12 46,5 11,-6 21,-6 24,-1 3,4 31,9 62,9 44,0 61,5 80,23 48,45 20,72 -43,42 -34,-16 -64,-18 -272,-16 -145,1 -236,5 -240,11 -4,6 -39,9 -84,8 -43,-2 -80,1 -83,6 -6,10 -38,11 -47,1 z"
       id="path346" />
    <path
       d="m 6160,3735 c -6,-7 -33,-17 -58,-21 -26,-3 -52,-10 -58,-15 -6,-5 -53,-8 -103,-7 -69,1 -94,5 -100,16 -6,11 -18,13 -41,9 -17,-4 -40,-2 -50,3 -11,6 -40,7 -72,2 -44,-6 -53,-11 -53,-27 0,-18 7,-20 57,-20 32,-1 63,-6 69,-12 9,-9 16,-9 31,0 15,10 20,9 28,-3 12,-20 274,-24 305,-5 11,6 32,15 47,19 30,7 53,39 44,62 -7,18 -30,18 -46,-1 z"
       id="path348" />
    <path
       d="m 4993,3701 c -10,-15 -22,-17 -145,-21 -46,-1 -100,-29 -96,-48 4,-23 102,-26 137,-5 19,13 28,13 47,2 22,-11 27,-10 53,15 25,24 31,26 55,15 20,-9 32,-10 49,-1 12,6 40,13 62,14 32,2 40,7 40,23 0,19 -7,20 -96,21 -79,2 -97,-1 -106,-15 z"
       id="path350" />
    <path
       d="m 5323,3704 c -11,-28 24,-45 82,-38 84,9 97,13 93,32 -3,14 -17,17 -86,20 -70,2 -83,0 -89,-14 z"
       id="path352" />
    <path
       d="m 6142,3433 c -4,-7 -35,-13 -75,-15 -37,-2 -72,-9 -79,-16 -14,-14 -38,-16 -38,-3 0,15 -39,19 -51,5 -6,-8 -22,-14 -36,-14 -27,0 -41,-24 -24,-44 11,-14 57,-10 67,5 2,4 16,3 29,-3 19,-8 29,-7 48,5 18,12 27,13 35,5 9,-9 18,-9 34,0 13,6 51,14 86,17 68,8 109,31 99,58 -7,19 -84,20 -95,0 z"
       id="path354" />
    <path
       d="m 5366,3403 c -3,-4 -23,-9 -43,-12 -29,-5 -38,-11 -38,-26 0,-16 7,-20 33,-21 18,0 38,-6 44,-12 24,-24 68,-7 68,28 0,16 -54,52 -64,43 z"
       id="path356" />
    <path
       d="m 5544,3387 c -6,-16 11,-57 29,-69 15,-9 78,3 105,20 37,24 24,47 -28,49 -25,1 -57,4 -72,8 -20,5 -29,3 -34,-8 z"
       id="path358" />
    <path
       d="m 5084,3376 c -4,-10 -20,-15 -47,-14 -86,2 -210,-13 -234,-29 -42,-28 -26,-48 40,-48 35,0 63,5 69,13 7,7 38,12 87,12 65,1 80,4 105,24 19,16 27,30 23,40 -8,20 -36,21 -43,2 z"
       id="path360" />
    <path
       d="m 6165,3140 c -4,-6 -16,-8 -27,-4 -11,3 -24,1 -28,-5 -4,-7 -44,-12 -111,-12 -130,-1 -148,-5 -155,-36 -10,-37 22,-55 49,-28 11,11 47,15 152,16 146,2 169,10 163,53 -3,23 -32,34 -43,16 z"
       id="path362" />
    <path
       d="m 5396,3131 c -4,-6 -23,-11 -42,-11 -31,0 -35,-3 -32,-22 3,-22 7,-23 83,-21 44,1 98,2 119,2 22,0 43,6 47,13 6,10 11,9 21,-5 20,-27 103,-21 103,8 0,16 -8,21 -40,23 -22,2 -44,8 -49,13 -13,12 -126,12 -126,-1 0,-13 -53,-13 -67,1 -8,8 -13,8 -17,0 z"
       id="path364" />
    <path
       d="m 5085,3100 c -3,-5 -22,-10 -41,-10 -27,0 -34,-4 -34,-19 0,-31 26,-46 56,-32 14,6 42,8 64,5 36,-6 40,-4 51,20 7,14 10,28 8,30 -12,10 -98,16 -104,6 z"
       id="path366" />
    <path
       d="m 4820,3080 c -8,-5 -25,-7 -37,-3 -19,4 -23,1 -23,-19 0,-13 5,-29 12,-36 17,-17 48,-15 55,3 5,14 7,14 22,1 9,-8 26,-13 36,-10 24,7 58,50 50,64 -8,13 -95,13 -115,0 z"
       id="path368" />
    <path
       d="m 6122,2826 c -14,-16 -29,-22 -42,-19 -11,3 -27,0 -35,-7 -13,-11 -20,-11 -40,0 -14,8 -31,9 -42,5 -10,-5 -29,-9 -43,-9 -20,-1 -25,-6 -25,-26 v -25 h 102 c 99,0 104,1 132,27 17,16 36,28 43,28 20,0 37,20 31,36 -8,22 -56,16 -81,-10 z"
       id="path370" />
    <path
       d="m 5595,2800 c -4,-6 -16,-8 -26,-5 -12,4 -31,0 -45,-10 -20,-13 -23,-19 -13,-31 8,-10 35,-14 94,-14 100,0 115,5 115,36 0,21 -4,23 -24,18 -13,-3 -27,-1 -30,5 -9,14 -63,14 -71,1 z"
       id="path372" />
    <path
       d="m 5335,2770 c -3,-5 -35,-10 -70,-10 -82,0 -95,-6 -95,-41 0,-34 27,-51 44,-27 8,10 30,15 74,15 72,1 87,10 78,47 -7,27 -20,34 -31,16 z"
       id="path374" />
    <path
       d="m 4906,2745 c -18,-18 -30,-19 -57,-2 -17,10 -23,10 -26,0 -6,-15 -59,-17 -68,-3 -12,19 -25,10 -25,-18 0,-16 8,-36 18,-45 20,-18 42,-22 42,-9 0,14 48,33 55,22 10,-16 55,-12 61,5 4,10 20,15 49,15 52,0 75,8 75,25 0,28 -98,36 -124,10 z"
       id="path376" />
    <path
       d="m 5315,2551 c -71,-5 -80,-8 -80,-26 0,-18 8,-20 85,-23 47,-2 89,-7 94,-12 19,-19 36,-10 36,20 0,27 -25,53 -47,48 -4,-1 -44,-4 -88,-7 z"
       id="path378" />
    <path
       d="m 4815,2530 c -26,-11 -35,-20 -33,-35 4,-25 40,-31 61,-11 19,19 34,20 40,4 3,-10 9,-10 28,-1 13,7 38,14 54,15 22,2 30,8 30,23 0,18 -7,20 -72,20 -44,1 -86,-5 -108,-15 z"
       id="path380" />
    <path
       d="m 5899,2530 c -13,-11 -28,-23 -34,-28 -5,-5 -22,-2 -37,6 -15,7 -36,11 -45,8 -10,-3 -43,-2 -73,3 -65,10 -82,5 -78,-23 2,-17 11,-22 48,-24 25,-2 49,-7 55,-13 12,-12 45,-12 45,1 0,15 19,12 36,-5 9,-8 24,-15 35,-15 11,0 22,7 25,15 4,8 14,15 24,15 10,0 23,7 30,15 7,8 25,15 40,15 35,0 61,27 39,41 -25,16 -85,10 -110,-11 z"
       id="path382" />
    <path
       d="m 6878,4178 c -2,-7 -3,-103 -2,-213 1,-110 3,-413 3,-674 1,-261 3,-472 6,-469 7,7 21,1216 16,1351 -1,20 -17,23 -23,5 z"
       id="path384" />
    <path
       d="m 6768,2332 c -10,-2 -18,-7 -18,-12 0,-4 -11,-11 -25,-14 -14,-4 -25,-10 -25,-14 0,-5 -25,-19 -55,-33 -30,-13 -55,-28 -55,-33 0,-4 11,-17 25,-28 14,-11 37,-43 51,-71 45,-90 82,-158 95,-173 7,-8 12,-35 12,-60 0,-24 2,-44 4,-44 2,0 21,11 42,25 22,13 50,27 63,30 13,4 41,19 63,34 44,30 57,69 30,91 -13,11 -17,9 -28,-19 -6,-17 -14,-31 -18,-31 -3,0 -16,-9 -29,-20 -13,-11 -31,-20 -41,-20 -19,0 -59,44 -59,65 0,7 -7,18 -15,25 -23,19 -19,60 5,60 11,0 20,5 20,10 0,6 18,10 40,10 32,0 40,4 40,18 0,10 -9,26 -21,35 -20,18 -22,18 -42,0 -12,-10 -24,-21 -27,-24 -3,-3 -15,-11 -26,-17 -24,-13 -43,4 -78,67 -18,33 -18,33 2,54 12,12 36,21 59,23 21,1 41,2 46,3 12,2 8,48 -5,58 -7,5 -21,8 -30,5 z"
       id="path386" />
    <path
       d="m 2435,2198 c -11,-6 -28,-18 -37,-27 -20,-19 -18,-18 -133,-106 -49,-38 -92,-72 -95,-75 -3,-4 -20,-15 -39,-26 -25,-14 -35,-16 -38,-6 -6,15 -33,16 -33,2 0,-17 51,-60 71,-60 10,0 21,-5 24,-10 9,-15 27,0 21,17 -4,10 9,29 36,54 41,37 78,51 78,28 0,-5 12,-14 28,-20 44,-15 52,-38 42,-110 -5,-35 -10,-70 -10,-76 0,-12 69,-53 90,-53 15,0 12,19 -6,38 -14,13 -15,29 -10,95 4,44 11,98 16,121 5,22 14,73 19,111 5,39 11,79 13,89 4,23 -11,29 -37,14 z m -30,-105 c -4,-10 -10,-39 -13,-66 -5,-53 -19,-69 -37,-44 -7,10 -20,17 -29,17 -34,0 -30,32 10,71 41,40 82,53 69,22 z"
       id="path388" />
    <path
       d="m 6465,2170 c -3,-5 -13,-10 -22,-10 -9,0 -36,-16 -59,-36 -40,-32 -44,-39 -44,-81 0,-37 5,-49 29,-70 32,-28 121,-62 164,-63 30,0 77,-42 77,-68 0,-9 -12,-29 -27,-44 -21,-22 -36,-28 -69,-28 -29,0 -44,5 -48,16 -10,25 -38,-3 -30,-30 10,-35 35,-48 79,-40 48,7 81,26 119,68 24,27 27,37 23,76 -7,66 -51,100 -157,124 -89,21 -110,34 -110,73 0,46 68,79 110,53 9,-5 19,-5 27,2 18,14 16,25 -7,48 -22,22 -45,26 -55,10 z"
       id="path390" />
    <path
       d="m 6118,2016 c -21,-12 -47,-31 -58,-41 -27,-24 -27,-84 1,-119 22,-28 91,-66 121,-66 38,0 100,-33 109,-58 24,-64 -45,-116 -118,-90 -18,7 -33,16 -33,20 0,4 -7,8 -15,8 -17,0 -20,-16 -6,-25 5,-3 12,-18 16,-34 8,-37 44,-48 87,-26 17,8 36,15 42,15 11,0 45,30 76,66 22,27 17,78 -12,116 -27,36 -79,63 -138,72 -55,9 -100,41 -100,72 0,49 84,86 118,52 18,-18 36,5 28,36 -5,22 -12,26 -44,26 -21,0 -53,-11 -74,-24 z"
       id="path392" />
    <path
       d="m 2804,1982 c 1,-27 -4,-60 -11,-73 -6,-13 -22,-55 -34,-94 -12,-38 -26,-74 -31,-80 -4,-5 -8,-17 -8,-27 0,-10 -11,-25 -25,-34 -14,-9 -23,-20 -20,-24 9,-15 67,-40 92,-40 21,0 23,3 17,38 -5,30 3,67 35,160 22,67 45,131 51,142 27,50 110,-3 110,-70 -1,-51 -30,-81 -85,-88 -57,-6 -59,-27 -3,-36 36,-6 48,-3 81,21 21,15 48,45 60,65 20,36 20,39 4,73 -18,38 -84,85 -119,85 -13,1 -34,7 -48,15 -14,8 -34,14 -46,15 -18,0 -20,-6 -20,-48 z"
       id="path394" />
    <path
       d="m 5880,1923 c -25,-8 -52,-18 -61,-23 -9,-5 -33,-12 -53,-15 -46,-9 -54,-22 -22,-35 16,-6 28,-20 32,-37 3,-15 12,-42 20,-60 8,-17 14,-36 14,-43 0,-7 7,-35 16,-64 39,-125 42,-144 22,-164 -19,-19 -3,-23 28,-7 16,8 37,15 46,15 9,0 27,4 40,9 13,6 40,12 61,16 43,7 69,39 60,73 -7,29 -27,28 -41,-2 -7,-15 -24,-27 -53,-34 -55,-14 -76,-2 -85,45 -4,20 -13,48 -20,62 -7,14 -10,29 -5,34 4,4 38,9 75,10 36,1 66,5 66,10 0,15 -33,57 -45,57 -7,0 -24,-9 -38,-20 -29,-23 -60,-26 -75,-7 -5,6 -15,36 -21,66 -14,67 -7,74 66,67 44,-4 53,-2 58,13 8,26 -4,51 -24,50 -9,-1 -36,-8 -61,-16 z"
       id="path396" />
    <path
       d="m 3142,1860 c -61,-44 -94,-101 -100,-176 -4,-52 -1,-70 18,-106 76,-148 287,-173 382,-45 29,39 58,113 58,149 0,41 -34,110 -71,143 -59,53 -91,65 -172,65 -66,0 -78,-3 -115,-30 z m 220,-40 c 12,-11 25,-20 28,-20 3,0 14,-16 23,-35 35,-73 11,-182 -52,-237 -27,-24 -39,-28 -95,-28 -44,0 -67,5 -76,15 -7,8 -18,15 -24,15 -6,0 -21,15 -33,33 -19,27 -23,47 -23,109 0,68 3,79 30,117 17,23 41,46 53,51 37,16 144,4 169,-20 z"
       id="path398" />
    <path
       d="m 3620,1792 c -35,-16 -59,-39 -65,-65 -13,-52 3,-92 65,-159 67,-74 80,-106 56,-143 -23,-35 -87,-35 -121,0 -14,13 -25,31 -25,40 0,8 -7,15 -15,15 -15,0 -32,-61 -21,-78 13,-21 77,-42 126,-42 47,0 56,4 91,39 28,28 39,47 39,69 0,50 -14,73 -84,143 -70,71 -82,102 -48,132 34,31 91,19 117,-25 17,-30 19,-30 32,-12 8,10 12,27 11,38 -6,39 -109,70 -158,48 z"
       id="path400" />
    <path
       d="m 5231,1775 c -18,-8 -55,-15 -82,-15 -52,0 -67,-11 -44,-30 8,-7 15,-27 15,-44 0,-17 5,-47 11,-66 6,-19 12,-89 14,-155 l 4,-120 68,1 c 186,4 271,51 309,172 16,50 16,56 -1,113 -23,74 -64,117 -137,141 -64,21 -112,22 -157,3 z m 109,-46 c 77,-18 130,-87 130,-172 0,-44 -28,-116 -46,-117 -6,0 -17,-6 -23,-14 -14,-16 -131,-39 -155,-30 -23,9 -36,37 -36,78 0,19 -7,78 -16,130 -9,53 -14,102 -11,110 10,25 85,32 157,15 z"
       id="path402" />
    <path
       d="m 3962,1739 c -59,-17 -89,-64 -77,-117 3,-16 37,-61 75,-101 77,-79 88,-113 50,-151 -34,-34 -82,-27 -124,20 -41,46 -56,44 -56,-5 0,-31 5,-37 42,-55 88,-43 187,-14 210,62 17,57 -2,101 -72,169 -63,61 -77,88 -60,119 8,15 21,20 53,20 47,0 60,-7 71,-34 7,-19 7,-19 26,0 27,27 16,61 -21,68 -67,13 -86,14 -117,5 z"
       id="path404" />
    <path
       d="m 4185,1720 c -3,-5 1,-13 9,-16 24,-9 23,-301 0,-350 -9,-19 -15,-37 -13,-39 3,-2 54,-7 115,-10 86,-5 112,-4 121,7 17,22 22,44 12,59 -8,12 -11,11 -22,-3 -17,-21 -98,-34 -126,-19 -18,10 -21,21 -21,80 0,80 12,97 62,86 18,-4 38,-15 44,-23 17,-24 44,-7 44,28 0,33 -1,33 -76,30 -33,-1 -55,3 -60,11 -11,18 -5,111 8,127 13,16 65,7 90,-15 25,-22 50,-9 46,24 l -3,28 -112,3 c -69,2 -114,-1 -118,-8 z"
       id="path406" />
    <path
       d="m 4836,1705 c -9,-13 -16,-32 -16,-42 0,-10 -6,-28 -14,-39 -8,-11 -17,-37 -21,-57 -4,-21 -11,-40 -16,-43 -5,-3 -9,-13 -9,-22 -1,-9 -9,-35 -20,-57 -11,-22 -19,-48 -20,-57 0,-9 -14,-28 -32,-42 l -32,-25 29,-11 c 19,-7 41,-8 60,-3 27,8 30,12 27,43 -2,19 4,51 12,72 15,35 17,36 77,40 70,4 71,2 104,-79 23,-56 25,-58 70,-67 25,-4 49,-5 52,-2 4,3 -7,21 -24,39 -28,29 -60,91 -141,267 -16,36 -33,75 -36,88 -9,29 -30,28 -50,-3 z m 40,-112 c 4,-16 13,-37 20,-48 8,-11 14,-28 14,-38 0,-15 -7,-18 -47,-15 -47,3 -48,4 -45,33 5,41 29,95 41,95 6,0 14,-12 17,-27 z"
       id="path408" />
    <path
       d="m 4840,2203 c -102,-47 -122,-59 -150,-86 -16,-16 -30,-33 -30,-39 0,-13 31,-23 39,-12 13,19 89,74 103,74 7,0 22,6 33,14 11,7 55,15 98,18 86,6 101,13 73,34 -27,19 -122,18 -166,-3 z"
       id="path410" />
    <path
       d="m 4670,2195 c 0,-8 -7,-15 -15,-15 -8,0 -15,-6 -15,-14 0,-8 -7,-16 -15,-20 -8,-3 -15,-12 -15,-21 0,-8 7,-15 15,-15 8,0 15,6 15,13 0,15 38,51 63,60 10,4 15,11 12,17 -10,16 -45,12 -45,-5 z"
       id="path412" />
    <path
       d="m 5315,2149 c 4,-13 9,-26 12,-29 14,-15 286,-35 341,-25 55,10 27,20 -78,26 -55,3 -105,11 -112,16 -7,6 -35,14 -63,18 -27,3 -63,9 -78,12 -27,5 -28,3 -22,-18 z"
       id="path414" />
    <path
       d="m 4421,2115 c 28,-28 39,-31 39,-10 0,8 -7,15 -15,15 -8,0 -15,5 -15,10 0,6 -7,10 -16,10 -13,0 -11,-5 7,-25 z"
       id="path416" />
    <path
       d="m 4072,2121 c -13,-3 -23,-10 -23,-16 0,-16 41,-22 100,-17 43,4 55,2 63,-11 5,-10 21,-17 37,-17 15,0 36,-7 47,-15 25,-19 44,-19 44,0 0,8 -6,15 -14,15 -7,0 -19,6 -25,14 -7,8 -28,17 -49,21 -20,4 -39,10 -42,14 -7,11 -110,19 -138,12 z"
       id="path418" />
    <path
       d="m 5033,2019 c -7,-7 -38,-14 -69,-15 -31,-1 -59,-6 -63,-11 -3,-5 -18,-14 -33,-20 -16,-7 -28,-17 -28,-23 0,-16 46,-12 60,5 8,9 30,15 59,15 25,1 57,7 71,15 14,8 51,14 83,15 42,0 58,3 55,13 -6,17 -119,22 -135,6 z"
       id="path420" />
    <path
       d="m 1070,7595 c 0,-9 -7,-18 -15,-21 -8,-4 -15,-12 -15,-19 0,-7 -16,-30 -35,-51 -46,-52 -61,-82 -49,-94 7,-7 20,0 40,20 16,16 36,30 45,30 9,0 43,-19 76,-42 33,-24 66,-47 75,-53 9,-5 61,-40 116,-77 55,-38 105,-68 112,-68 6,0 14,-10 19,-22 8,-21 5,-24 -33,-30 -22,-3 -68,-7 -101,-7 -33,-1 -87,-8 -120,-16 -33,-8 -80,-15 -105,-15 -25,0 -70,-7 -100,-15 -30,-8 -77,-15 -105,-16 -83,-1 -190,-23 -193,-40 -1,-7 15,-25 35,-38 40,-26 158,-111 338,-241 60,-44 112,-80 115,-80 17,0 31,-47 21,-72 -7,-20 -7,-29 3,-37 11,-9 22,1 51,46 21,32 51,70 67,85 15,15 28,34 28,42 0,22 -34,20 -55,-4 -21,-24 -58,-26 -75,-5 -7,8 -17,15 -22,15 -8,0 -77,48 -115,80 -7,5 -15,10 -18,10 -6,0 -66,41 -75,51 -3,3 -12,9 -20,12 -8,4 -28,16 -45,27 -16,11 -40,24 -52,30 -34,14 -28,28 15,35 20,3 62,10 93,15 30,6 75,10 100,10 24,0 71,7 104,15 33,8 81,14 107,15 26,0 59,5 75,11 15,6 62,15 103,20 94,10 150,26 150,42 0,7 -17,21 -37,32 -21,11 -99,65 -173,120 -75,55 -161,117 -191,138 -31,21 -74,53 -95,72 -31,27 -37,36 -26,46 17,18 15,59 -3,59 -8,0 -15,-7 -15,-15 z"
       id="path422" />
    <path
       d="m 7790,7593 c 0,-9 7,-25 17,-35 29,-32 23,-39 -172,-190 -44,-34 -91,-73 -105,-85 -14,-13 -28,-23 -32,-23 -5,0 -17,-9 -28,-20 -39,-39 -103,-80 -125,-80 -13,0 -28,7 -35,15 -18,22 -30,18 -30,-9 0,-14 12,-34 29,-48 16,-14 49,-54 75,-89 25,-35 50,-68 54,-74 4,-5 27,-36 50,-67 24,-32 49,-58 56,-58 39,0 122,62 110,82 -7,12 -44,10 -44,-2 0,-24 -57,-9 -86,23 -55,58 -94,115 -94,134 0,21 46,67 108,109 20,14 39,29 42,33 3,4 43,36 90,71 47,35 90,69 95,75 53,60 139,94 151,60 6,-16 39,-21 48,-7 3,5 -19,34 -49,66 -30,31 -57,66 -61,78 -7,23 -39,58 -54,58 -5,0 -10,-8 -10,-17 z"
       id="path424" />
    <path
       d="m 8178,7074 c -3,-3 -4,-22 -1,-43 5,-37 4,-39 -47,-70 -29,-18 -62,-37 -74,-42 -12,-5 -34,-18 -51,-29 -16,-11 -39,-24 -50,-30 -11,-5 -47,-26 -80,-45 -33,-19 -69,-39 -80,-45 -11,-6 -40,-22 -64,-35 -52,-29 -76,-31 -89,-8 -10,16 -42,12 -42,-5 0,-5 15,-29 33,-53 18,-24 56,-92 86,-151 69,-139 89,-161 138,-152 51,9 70,20 78,45 8,25 -1,37 -17,21 -7,-7 -26,-12 -44,-12 -36,0 -62,29 -109,123 -25,50 -27,60 -16,81 7,13 32,33 55,45 22,12 55,31 71,41 17,11 39,24 50,30 11,6 34,19 50,30 17,11 37,22 45,26 8,3 22,10 30,15 8,5 24,14 35,19 11,6 34,19 50,30 39,25 94,50 111,50 8,0 19,-11 24,-25 12,-30 26,-32 35,-4 5,14 0,27 -13,40 -12,10 -36,50 -54,89 -30,64 -45,80 -60,64 z"
       id="path426" />
    <path
       d="m 519,6740 c -9,-5 -20,-26 -24,-46 -6,-36 -27,-75 -52,-102 -17,-18 -16,-31 3,-39 9,-3 21,3 30,16 8,11 20,21 27,21 7,0 52,-20 102,-44 49,-24 97,-46 105,-50 8,-3 22,-10 30,-15 8,-5 62,-33 120,-61 169,-83 180,-91 180,-137 0,-30 27,-30 35,0 3,12 10,31 15,42 4,11 11,27 14,35 12,26 32,59 50,79 17,19 15,41 -5,41 -5,0 -21,-13 -36,-28 -26,-26 -31,-28 -65,-18 -20,6 -43,17 -50,24 -6,6 -17,12 -22,12 -6,0 -51,20 -101,44 -49,24 -97,46 -105,50 -8,3 -22,10 -30,15 -8,5 -49,26 -90,46 -106,50 -118,60 -102,86 20,32 3,48 -29,29 z"
       id="path428" />
    <path
       d="m 8480,6472 c 0,-15 5,-33 11,-39 12,-12 -34,-53 -60,-53 -10,0 -26,-7 -37,-15 -10,-8 -28,-15 -40,-15 -11,0 -29,-7 -40,-15 -10,-8 -28,-15 -39,-15 -11,0 -29,-7 -39,-15 -11,-8 -28,-15 -37,-15 -10,0 -30,-6 -46,-14 -54,-27 -104,-46 -121,-46 -9,0 -26,-7 -36,-15 -30,-22 -71,-19 -89,8 -11,16 -18,19 -27,11 -12,-12 -4,-64 10,-64 4,0 18,-33 30,-72 13,-40 29,-87 36,-105 8,-17 14,-35 14,-40 0,-5 9,-28 20,-51 20,-42 21,-42 74,-42 57,0 85,17 64,38 -7,7 -24,12 -38,12 -39,0 -63,34 -101,144 -14,38 -13,39 13,59 28,21 84,44 128,54 14,3 32,11 40,18 23,19 57,24 74,11 15,-11 32,-65 43,-133 4,-28 2,-34 -21,-43 -31,-11 -32,-16 -7,-29 14,-8 32,-5 72,12 30,12 56,23 58,24 3,2 -8,16 -22,31 -15,16 -27,32 -27,38 0,5 -13,35 -29,66 l -29,57 35,21 c 19,11 42,20 51,20 9,0 26,7 36,15 11,8 28,15 37,15 10,0 31,8 48,18 28,15 33,15 41,2 5,-8 10,-26 10,-40 0,-15 5,-31 10,-36 6,-6 13,-33 17,-61 5,-46 3,-52 -16,-58 -24,-7 -28,-33 -6,-41 8,-4 25,0 38,8 12,8 34,18 50,22 28,7 35,24 15,44 -18,18 -100,223 -105,264 -3,21 -11,42 -19,49 -8,6 -14,18 -14,25 0,8 -7,14 -15,14 -10,0 -15,-10 -15,-28 z"
       id="path430" />
    <path
       d="m 350,6416 c -5,-15 -10,-34 -10,-42 0,-23 -31,-114 -41,-120 -13,-7 -11,-24 2,-24 6,0 23,9 38,20 l 28,19 33,-24 c 19,-14 36,-29 39,-33 3,-4 33,-29 66,-54 33,-25 74,-58 90,-73 17,-15 46,-39 65,-53 79,-60 110,-88 110,-98 0,-20 -503,-49 -527,-31 -7,5 -13,20 -13,33 0,44 -27,27 -33,-21 -4,-24 -10,-53 -15,-62 -5,-10 -19,-39 -32,-64 -13,-26 -20,-54 -17,-63 8,-20 37,-21 37,-2 0,28 36,56 85,66 28,6 122,15 210,20 88,6 178,14 200,20 22,5 88,10 148,10 98,0 107,2 107,19 0,10 -21,36 -47,57 -27,21 -69,59 -94,84 -25,25 -88,81 -140,124 -52,44 -105,90 -119,102 -126,114 -130,119 -135,158 -6,53 -21,67 -35,32 z"
       id="path432" />
    <path
       d="m 8335,5823 c -16,-9 -37,-20 -45,-25 -8,-4 -24,-12 -36,-17 -24,-11 -75,-67 -108,-119 -36,-58 -51,-173 -36,-274 6,-46 18,-95 26,-110 58,-114 53,-110 119,-102 28,3 71,12 97,20 26,9 64,14 85,12 30,-2 38,-8 43,-27 3,-14 10,-26 17,-28 16,-6 22,32 11,74 -5,21 -14,66 -20,101 -7,41 -15,62 -24,62 -9,0 -14,-11 -14,-29 0,-44 -10,-61 -34,-61 -12,0 -42,-6 -67,-14 -64,-21 -125,-26 -144,-12 -18,13 -44,113 -44,166 0,45 21,126 37,142 7,7 12,17 12,24 0,19 83,89 139,118 47,23 64,26 154,26 95,-1 105,-3 142,-28 76,-53 112,-131 122,-267 6,-80 -15,-131 -62,-151 -20,-8 -35,-21 -35,-30 0,-14 10,-16 73,-10 79,8 99,22 92,65 -3,14 -9,75 -15,135 -5,60 -14,114 -19,120 -5,6 -12,26 -16,44 -3,17 -11,32 -16,32 -5,0 -9,7 -9,15 0,25 -112,129 -155,144 -61,21 -233,24 -270,4 z"
       id="path434" />
    <path
       d="m 785,5635 c -19,-40 -42,-68 -83,-101 -31,-25 -66,-50 -77,-55 -11,-5 -33,-18 -50,-29 -16,-11 -40,-24 -52,-29 -11,-5 -24,-15 -28,-20 -11,-19 -41,-12 -53,13 -15,33 -90,90 -139,106 -77,24 -175,-26 -198,-101 -4,-13 -12,-29 -17,-36 -8,-10 -21,-110 -35,-265 -4,-48 -2,-58 11,-58 10,0 16,9 16,23 0,32 14,49 41,49 40,1 211,-21 254,-31 22,-6 62,-11 88,-11 26,0 76,-6 110,-14 34,-8 75,-18 91,-21 19,-4 32,-15 39,-35 12,-31 32,-40 40,-17 2,6 2,35 -1,64 -4,40 0,61 16,91 19,37 20,82 2,82 -5,0 -19,-19 -32,-42 l -24,-43 -59,1 c -71,1 -156,13 -171,25 -8,7 -8,25 -2,62 11,56 21,74 53,88 11,5 47,25 80,44 33,19 70,38 81,44 12,5 42,29 66,53 54,52 97,162 78,198 -6,11 -13,20 -15,20 -3,0 -17,-25 -30,-55 z M 400,5390 c 35,-28 40,-37 40,-73 0,-44 -14,-102 -29,-127 -9,-12 -16,-13 -58,-1 -26,8 -88,17 -136,21 -59,4 -92,11 -98,21 -18,28 12,129 50,170 23,24 47,28 124,24 58,-3 74,-9 107,-35 z"
       id="path436" />
    <path
       d="m 8840,5015 c 0,-20 -6,-38 -12,-40 -25,-8 -539,-26 -573,-19 -26,4 -36,13 -44,35 -10,29 -31,40 -32,17 -1,-28 -1,-286 0,-340 l 1,-57 38,-6 c 20,-3 45,-11 56,-16 12,-7 22,-7 28,-1 18,18 4,46 -28,54 -28,7 -32,13 -38,54 -9,66 -7,127 4,144 12,19 247,42 268,26 11,-8 12,-28 7,-90 -8,-86 -16,-106 -46,-106 -11,0 -19,-7 -19,-15 0,-12 15,-15 75,-15 58,0 75,3 75,14 0,8 -6,16 -12,18 -9,3 -13,33 -13,104 v 99 h 120 120 l -4,-90 c -3,-94 -11,-115 -42,-115 -27,0 -23,-29 4,-36 13,-3 41,-4 62,-2 l 38,3 -1,195 c -1,107 -1,201 -2,208 0,6 -7,12 -15,12 -11,0 -15,-11 -15,-35 z"
       id="path438" />
    <path
       d="m 704,4832 c -11,-52 -30,-57 -259,-59 -116,-1 -243,1 -283,4 -65,5 -75,9 -85,30 -13,28 -43,27 -39,-2 3,-22 3,-117 -1,-155 -3,-37 26,-37 40,0 l 11,30 h 281 c 298,0 327,-4 337,-47 4,-13 13,-23 21,-23 12,0 14,12 8,73 -4,43 -3,89 3,111 6,21 8,44 5,52 -9,24 -33,15 -39,-14 z"
       id="path440" />
    <path
       d="m 4208,749 c -53,-27 -78,-67 -78,-128 0,-44 4,-55 35,-86 31,-31 42,-35 85,-35 57,0 71,23 20,33 -16,4 -41,16 -55,28 -20,18 -25,32 -25,70 0,59 18,79 70,79 60,0 80,-33 80,-128 0,-95 -23,-145 -103,-218 -40,-35 -57,-59 -53,-69 7,-19 25,-19 45,-1 9,8 36,33 61,54 25,22 60,68 78,102 28,53 32,71 32,136 0,95 -21,133 -89,167 -41,21 -56,20 -103,-4 z"
       id="path442" />
    <path
       d="m 4562,751 c -41,-21 -72,-67 -72,-107 0,-22 10,-41 35,-66 l 35,-34 -30,-23 c -17,-12 -40,-42 -52,-67 -22,-48 -18,-70 21,-117 25,-29 100,-60 130,-52 70,18 128,97 117,160 -6,33 -46,85 -65,85 -24,0 -19,21 14,56 28,29 35,45 35,76 0,44 -17,66 -69,91 -41,20 -56,20 -99,-2 z m 82,-41 c 22,-8 26,-15 26,-53 0,-30 -7,-52 -20,-68 l -21,-23 -35,19 c -53,28 -61,98 -14,122 30,15 32,15 64,3 z m 27,-242 c 30,-42 25,-82 -14,-112 -41,-31 -51,-32 -89,-5 -55,40 -56,84 -3,147 l 27,32 30,-17 c 16,-10 38,-30 49,-45 z"
       id="path444" />
    <path
       d="m 3950,730 c -12,-11 -27,-20 -31,-20 -10,0 -59,-45 -59,-54 0,-14 50,-5 58,10 5,9 14,14 21,10 12,-8 16,-291 5,-333 -4,-14 -15,-23 -32,-25 -14,-2 -27,-8 -29,-14 -3,-8 26,-11 92,-11 72,1 95,4 95,14 0,7 -9,13 -20,13 -35,0 -42,42 -39,240 3,179 2,185 -17,188 -11,2 -31,-6 -44,-18 z"
       id="path446" />
    <path
       d="m 4869,734 c -8,-9 -13,-44 -13,-87 -1,-71 -1,-71 29,-80 110,-33 145,-87 114,-175 -21,-62 -138,-65 -147,-4 -5,33 -29,27 -36,-9 -9,-45 -8,-46 15,-67 48,-45 131,-28 198,40 37,38 45,63 38,123 -6,54 -47,99 -124,134 -58,27 -59,28 -41,66 10,22 17,25 65,25 38,0 55,-4 59,-15 10,-24 34,-17 45,12 18,47 8,53 -94,53 -74,0 -97,-3 -108,-16 z"
       id="path448" />
  </g>
</svg>
