<?xml version="1.0" encoding="UTF-8" standalone="no"?>
<svg
   id="svg"
   width="399.40247"
   height="163.59238"
   viewBox="0 0 399.40247 163.59238"
   version="1.1"
   sodipodi:docname="dane-hobrecht-logo-01.svg"
   xmlns:inkscape="http://www.inkscape.org/namespaces/inkscape"
   xmlns:sodipodi="http://sodipodi.sourceforge.net/DTD/sodipodi-0.dtd"
   xmlns="http://www.w3.org/2000/svg"
   xmlns:svg="http://www.w3.org/2000/svg">
  <defs
     id="defs1" />
  <sodipodi:namedview
     id="namedview1"
     pagecolor="#ffffff"
     bordercolor="#000000"
     borderopacity="0.25"
     inkscape:showpageshadow="2"
     inkscape:pageopacity="0.0"
     inkscape:pagecheckerboard="0"
     inkscape:deskcolor="#d1d1d1" />
  <g
     id="svgg"
     style="fill:#ffffff"
     transform="translate(-0.24522443,-0.09309624)">
    <path
       id="path0"
       d="m 159.051,0.348 c -22.197,1.661 -32.931,23.272 -19.4,39.059 11.162,13.022 37.321,9.741 44.775,-5.616 8.67,-17.866 -4.342,-35.016 -25.375,-33.443 M 343.82,0.543 c -27.6,3.265 -29.367,38.883 -2.267,45.699 3.762,0.946 13.997,0.768 18.372,-0.319 l 2.622,-0.651 V 33.622 21.973 h -4.495 -4.494 V 32.17 42.367 l -3.133,0.336 c -11.177,1.197 -18.94,-5.807 -18.913,-17.064 0.043,-17.549 16.551,-26.799 30.09,-16.86 2.875,2.11 2.942,1.876 0.876,-3.047 -1.747,-4.162 -1.7,-4.132 -8.421,-5.206 -3.639,-0.581 -5.2,-0.579 -10.237,0.017 M 1.994,6.249 c -2.514,5.566 -2.391,6.05 0.848,3.325 2.926,-2.461 4.473,-3.082 7.677,-3.082 h 2.465 v 19.476 19.475 h 4.494 4.495 V 25.968 6.492 h 3.265 c 3.301,0 5.586,0.799 8.844,3.095 l 1.374,0.968 v 17.444 17.444 h 2.746 2.747 V 34.457 23.471 h 12.484 12.485 v 10.986 10.986 h 4.499 4.5 L 74.787,23.596 74.657,1.748 70.287,1.604 65.918,1.459 v 8.509 8.509 H 53.433 40.949 V 9.988 1.498 H 38.202 35.456 L 35.433,4.619 35.41,7.74 33.965,4.619 32.521,1.498 H 18.331 4.141 L 1.994,6.249 m 76.907,17.222 v 21.972 h 14.658 14.658 l 2.033,-4.366 c 2.475,-5.317 2.709,-5.124 -2.906,-2.391 l -4.65,2.263 H 95.292 87.89 v -8.24 -8.24 h 6.953 c 6.667,0 7.013,0.051 8.42,1.235 1.947,1.638 2.105,1.351 2.105,-3.815 0,-4.675 -0.375,-5.292 -1.997,-3.287 -0.855,1.056 -1.348,1.134 -8.195,1.295 L 87.89,20.069 V 12.955 5.842 l 7.694,0.281 c 6.175,0.225 8.138,0.478 9.949,1.279 2.9,1.282 2.968,1.156 1.444,-2.686 L 105.7,1.498 h -13.399 -13.4 v 21.973 m 111.861,0.187 v 22.285 h 4.494 4.494 V 25.468 4.994 h 2.286 c 7.536,0 7.421,11.673 -0.15,15.123 -1.591,0.725 -1.416,1.356 0.377,1.356 4.526,0 5.873,1.655 6.743,8.283 1.803,13.741 6.08,18.565 14.282,16.108 1.986,-0.596 2.135,-0.855 1.61,-2.814 -0.277,-1.033 -0.511,-1.114 -2.412,-0.829 -2.801,0.42 -3.541,-1.101 -4.564,-9.387 -0.969,-7.852 -3.161,-12.648 -6.225,-13.62 -0.905,-0.288 -0.852,-0.411 0.6,-1.4 4.449,-3.029 5.312,-8.649 1.922,-12.51 -2.556,-2.91 -4.605,-3.429 -14.594,-3.694 L 190.762,1.374 V 23.658 M 243.403,2.152 c 0.525,0.327 1.568,1.156 2.316,1.843 l 1.359,1.248 -10.411,19.726 c -12.086,22.896 -11.245,20.56 -7.329,20.373 l 3.121,-0.148 3.172,-6.118 3.172,-6.117 h 13.308 l 13.307,10e-4 3.995,6.237 3.995,6.238 5.41,0.004 c 2.976,0.002 5.335,-0.188 5.244,-0.424 -0.092,-0.235 -6.561,-10.122 -14.377,-21.972 l -14.21,-21.545 -6.514,0.029 c -5.25,0.024 -6.329,0.145 -5.558,0.625 m 42.864,0.909 1.873,1.53 v 20.426 20.426 h 2.754 2.755 l -0.292,-16.354 c -0.27,-15.131 -0.231,-16.28 0.517,-15.356 0.446,0.549 6.337,8.707 13.092,18.128 6.879,9.594 12.472,16.94 12.713,16.699 0.237,-0.237 0.373,-10.866 0.301,-23.621 l -0.13,-23.191 -2.698,-0.154 -2.697,-0.153 0.276,13.262 c 0.151,7.294 0.205,13.262 0.118,13.262 -0.087,0 -4.487,-5.955 -9.777,-13.233 l -9.619,-13.234 -5.529,0.017 -5.529,0.017 1.872,1.529 m 80.275,20.41 v 21.972 h 14.62 14.62 l 2.134,-4.303 c 2.624,-5.289 2.723,-5.206 -2.931,-2.454 l -4.65,2.263 h -7.402 -7.402 v -8.24 -8.24 h 6.894 c 6.602,0 6.967,0.054 8.614,1.271 l 1.72,1.271 0.144,-4.58 c 0.167,-5.285 0.054,-5.548 -1.683,-3.914 -1.217,1.144 -1.666,1.217 -8.487,1.37 l -7.202,0.162 v -7.1 -7.1 l 7.615,0.265 c 5.969,0.208 8.182,0.483 10.237,1.273 3.055,1.173 3.012,1.264 1.3,-2.768 L 393.358,1.498 H 379.95 366.542 V 23.471 M 168.539,5.945 c 13.5,6.281 12.057,30.095 -2.153,35.545 -20.115,7.716 -33.184,-20.713 -15.208,-33.081 4.93,-3.392 12.927,-4.527 17.361,-2.464 m 83.186,4.92 c 0.434,0.753 2.958,4.909 5.609,9.235 l 4.82,7.865 h -10.476 -10.476 l 4.611,-9.238 c 5.067,-10.151 4.799,-9.795 5.912,-7.862 M 89.139,58.985 C 74.698,60.21 66.284,68.72 67.044,81.331 c 0.92,15.248 11.44,23.614 29.54,23.49 10.596,-0.073 12.202,-0.53 13.871,-3.947 1.413,-2.892 1.092,-3.792 -0.753,-2.114 -7.615,6.929 -25.01,1.916 -30.755,-8.863 -11.071,-20.771 7.679,-35.93 28.024,-22.658 2.007,1.309 2.05,0.748 0.264,-3.442 L 105.618,60 101.623,59.486 C 95.51,58.699 93.474,58.618 89.139,58.985 m 24.812,16.308 0.156,15.868 1.646,3.34 c 5.142,10.44 20.955,12.841 28.271,4.294 3.754,-4.386 3.987,-5.694 4.187,-23.514 l 0.178,-15.855 h -2.758 -2.757 l -0.151,15.605 c -0.17,17.502 -0.237,17.849 -4.11,21.25 -4.615,4.052 -11.362,2.297 -14.327,-3.727 -1.164,-2.363 -1.193,-2.755 -1.341,-17.772 l -0.152,-15.356 h -4.499 -4.5 l 0.157,15.867 m 38.359,6.288 v 22.289 h 4.494 4.494 V 83.396 62.921 h 1.773 c 7.292,0 8.155,9.852 1.268,14.478 l -2.608,1.752 2.536,0.321 c 4.774,0.603 5.423,1.604 6.488,10.003 1.512,11.934 5.768,16.357 13.793,14.336 2.392,-0.603 2.468,-0.719 1.729,-2.662 -0.445,-1.17 -0.67,-1.26 -2.455,-0.975 -2.672,0.428 -3.394,-1.055 -4.366,-8.958 -0.903,-7.35 -2.722,-11.785 -5.505,-13.428 l -1.718,-1.013 1.528,-0.93 c 4.244,-2.581 5.243,-8.927 1.988,-12.633 -2.514,-2.863 -4.599,-3.389 -14.575,-3.67 l -8.864,-0.251 v 22.29 M 189.105,64.22 c -2.809,5.655 -2.731,5.994 0.77,3.329 3.704,-2.82 4.456,-3.13 7.595,-3.13 h 2.78 v 19.476 19.476 h 4.494 4.494 V 83.895 64.419 h 3.403 c 3.084,0 3.711,0.187 6.714,1.998 4.484,2.704 4.562,2.627 2.397,-2.372 l -1.893,-4.37 -14.183,-0.132 -14.182,-0.132 -2.389,4.809 m 48.598,-4.611 c 0,0.101 0.899,0.778 1.997,1.505 1.099,0.727 1.998,1.495 1.998,1.706 0,0.344 -2.95,6.043 -17.048,32.935 l -3.992,7.616 h 3.228 3.228 l 3.172,-6.118 3.172,-6.117 13.283,-0.133 13.283,-0.133 4.14,6.251 4.141,6.25 h 5.415 5.415 l -3.162,-4.869 C 274.234,95.824 267.726,85.936 261.511,76.529 L 250.212,59.426 h -6.254 c -3.441,0 -6.255,0.082 -6.255,0.183 m 46.941,21.789 v 21.973 h 4.495 4.494 V 81.398 59.426 h -4.494 -4.495 v 21.972 m 13.619,-20.438 1.862,1.535 v 20.438 20.438 h 2.827 2.827 l -0.338,-16.23 c -0.186,-8.926 -0.246,-16.23 -0.132,-16.23 0.113,0 6.006,8.075 13.095,17.944 7.088,9.869 13.067,17.833 13.285,17.698 0.218,-0.135 0.396,-10.793 0.396,-23.686 V 59.426 h -2.792 -2.793 l 0.352,13.358 c 0.231,8.752 0.183,13.186 -0.138,12.859 -0.27,-0.275 -4.691,-6.286 -9.824,-13.358 l -9.333,-12.859 h -5.578 -5.577 l 1.861,1.534 m -46.88,15.873 c 2.913,4.768 5.296,8.757 5.296,8.864 0,0.108 -4.607,0.196 -10.237,0.196 -5.631,0 -10.237,-0.115 -10.237,-0.255 0,-0.966 9.144,-18.261 9.47,-17.913 0.226,0.242 2.795,4.341 5.708,9.108 M 82.896,139.508 v 22.29 h 4.495 4.494 v -20.475 -20.474 h 1.773 c 7.291,0 8.155,9.851 1.268,14.477 l -2.608,1.753 2.535,0.32 c 4.775,0.604 5.424,1.605 6.488,10.004 1.513,11.933 5.769,16.356 13.794,14.335 2.392,-0.602 2.467,-0.718 1.728,-2.662 -0.444,-1.17 -0.67,-1.259 -2.454,-0.974 -2.672,0.427 -3.395,-1.055 -4.366,-8.958 -0.903,-7.35 -2.722,-11.786 -5.505,-13.428 l -1.718,-1.014 1.528,-0.929 c 4.244,-2.581 5.242,-8.927 1.988,-12.633 -2.514,-2.864 -4.6,-3.389 -14.576,-3.671 l -8.864,-0.25 v 22.289 m 36.954,-0.182 v 21.972 l 14.607,-0.02 14.607,-0.02 1.955,-4.225 c 2.398,-5.179 2.464,-5.115 -2.664,-2.565 l -4.194,2.086 -7.661,0.16 -7.661,0.16 v -8.275 -8.274 h 6.819 c 6.473,0 6.901,0.062 8.428,1.226 2.106,1.607 2.231,1.393 2.231,-3.807 0,-4.281 -0.884,-6.093 -1.803,-3.696 -0.488,1.271 -3.213,1.782 -9.507,1.782 h -6.168 v -7.066 -7.067 l 7.693,0.281 c 6.212,0.227 8.134,0.475 9.978,1.291 2.881,1.275 2.99,1.032 1.263,-2.795 l -1.41,-3.121 H 133.107 119.85 v 21.973 m 82.897,0 v 21.972 h 4.494 4.494 v -21.972 -21.973 h -4.494 -4.494 v 21.973 m 14.981,0 v 21.972 h 14.62 14.62 l 2.134,-4.302 c 2.624,-5.29 2.723,-5.207 -2.931,-2.455 l -4.65,2.263 h -7.402 -7.402 v -8.24 -8.239 h 6.894 c 6.602,0 6.967,0.053 8.614,1.27 l 1.72,1.271 0.144,-4.58 c 0.167,-5.284 0.054,-5.548 -1.683,-3.914 -1.217,1.145 -1.666,1.217 -8.487,1.37 l -7.202,0.162 v -7.1 -7.1 l 7.615,0.266 c 5.969,0.208 8.182,0.483 10.237,1.272 3.055,1.173 3.012,1.265 1.3,-2.768 l -1.325,-3.121 h -13.408 -13.408 v 21.973 m -64.42,-20.972 c 0,1.146 22.555,45.497 23.053,45.331 0.299,-0.1 5.309,-10.397 11.134,-22.882 l 10.591,-22.701 -2.733,-0.151 c -1.502,-0.084 -2.983,-0.056 -3.291,0.062 -0.308,0.118 -3.57,7.209 -7.25,15.758 -3.68,8.548 -6.835,15.542 -7.01,15.542 -0.175,0 -3.554,-7.078 -7.507,-15.73 l -7.188,-15.73 h -4.899 c -2.948,0 -4.9,0.199 -4.9,0.501 m 96.904,-0.127 c 0.084,1.242 22.882,44.819 23.448,44.819 0.376,0 2.578,-2.615 4.894,-5.811 l 4.212,-5.812 3.07,6.229 c 2.907,5.897 3.114,6.18 3.891,5.312 0.754,-0.842 31.168,-43.066 32.044,-44.487 0.294,-0.477 -0.419,-0.62 -3.015,-0.605 l -3.4,0.02 -11.704,16.011 -11.703,16.01 -1.655,-3.282 -1.655,-3.282 7.556,-10.376 c 4.156,-5.707 8.332,-11.444 9.281,-12.748 l 1.725,-2.372 h -3.235 -3.235 l -7.361,10.022 -7.362,10.023 -2.229,-4.155 c -1.227,-2.285 -3.558,-6.795 -5.181,-10.023 l -2.95,-5.867 h -4.99 c -2.745,0 -4.99,0.147 -4.99,0.327 0,0.179 3.146,6.364 6.991,13.743 8.038,15.425 7.433,13.577 5.319,16.236 l -1.663,2.092 -7.945,-16.177 -7.946,-16.177 -5.118,-0.022 c -2.815,-0.012 -5.107,0.146 -5.094,0.352"
       stroke="none"
       fill="#000000"
       fill-rule="evenodd"
       style="fill:#ffffff" />
  </g>
</svg>
