<?xml version="1.0" encoding="UTF-8" standalone="no"?>
<svg
   version="1.0"
   width="889.5647pt"
   height="623.37415pt"
   viewBox="0 0 889.5647 623.37415"
   preserveAspectRatio="xMidYMid"
   id="svg14"
   sodipodi:docname="picsvg_download.svg"
   xmlns:inkscape="http://www.inkscape.org/namespaces/inkscape"
   xmlns:sodipodi="http://sodipodi.sourceforge.net/DTD/sodipodi-0.dtd"
   xmlns="http://www.w3.org/2000/svg"
   xmlns:svg="http://www.w3.org/2000/svg">
  <defs
     id="defs18" />
  <sodipodi:namedview
     id="namedview16"
     pagecolor="#ffffff"
     bordercolor="#000000"
     borderopacity="0.25"
     inkscape:showpageshadow="2"
     inkscape:pageopacity="0.0"
     inkscape:pagecheckerboard="0"
     inkscape:deskcolor="#d1d1d1"
     inkscape:document-units="pt"
     showgrid="false" />
  <g
     transform="matrix(0.1,0,0,-0.1,-4.935242,760.47414)"
     fill="#ffffff"
     stroke="none"
     id="g12">
    <path
       d="m 4185,7600 c -215,-17 -423,-55 -620,-114 -27,-8 -68,-20 -90,-26 -22,-6 -54,-18 -72,-26 -17,-8 -35,-14 -41,-14 -5,0 -23,-7 -38,-15 -16,-8 -37,-15 -46,-15 -9,0 -19,-4 -22,-9 -3,-5 -17,-12 -31,-15 -48,-12 -339,-161 -420,-215 -22,-15 -47,-30 -55,-33 -8,-4 -61,-39 -116,-80 -236,-170 -412,-332 -584,-537 -25,-30 -57,-68 -72,-85 -15,-17 -28,-34 -28,-38 0,-4 -6,-13 -14,-21 -15,-15 -158,-225 -169,-248 -4,-8 -23,-41 -42,-74 -87,-152 -190,-376 -225,-490 -6,-16 -14,-39 -18,-50 -18,-41 -34,-91 -43,-132 -9,-47 -36,-104 -53,-115 -6,-5 -307,-8 -670,-8 -362,1 -660,-1 -662,-3 -3,-3 -6,-1003 -4,-1554 0,-10 142,-13 675,-13 662,0 675,0 695,-20 11,-11 20,-27 20,-36 0,-18 54,-181 76,-231 8,-17 14,-36 14,-41 0,-6 7,-23 15,-39 8,-15 26,-55 40,-88 69,-157 166,-333 262,-473 51,-74 147,-204 165,-224 7,-7 37,-43 67,-78 132,-159 357,-362 551,-499 47,-33 90,-65 97,-70 7,-6 17,-11 22,-11 5,0 16,-6 23,-13 36,-35 400,-227 431,-227 7,0 21,-6 32,-13 11,-8 29,-16 40,-20 11,-3 45,-15 75,-27 123,-47 314,-103 440,-129 212,-44 385,-60 650,-60 265,0 438,16 650,60 123,25 325,84 397,115 17,8 36,14 42,14 6,0 27,7 48,16 21,9 47,20 58,25 127,51 386,182 425,214 8,7 20,14 25,16 12,5 187,121 195,129 3,3 43,35 90,72 151,117 300,258 429,406 27,31 63,73 80,92 17,19 31,38 31,41 0,3 11,19 25,35 110,127 370,587 401,710 3,13 10,27 15,30 5,3 9,12 9,21 0,8 6,29 14,46 8,18 22,57 31,87 33,104 48,145 58,158 8,10 165,12 746,12 l 736,-1 v 786 786 l -720,-1 c -801,0 -757,-4 -769,67 -4,21 -13,54 -20,73 -8,19 -23,64 -35,100 -28,91 -42,130 -59,170 -9,19 -21,49 -28,65 -16,38 -142,293 -157,320 -7,11 -24,39 -39,63 -16,24 -28,45 -28,47 0,12 -194,280 -269,370 -39,47 -343,347 -380,375 -18,14 -56,44 -84,66 -55,44 -275,194 -285,194 -3,0 -13,6 -21,14 -29,25 -244,137 -356,185 -27,12 -57,25 -65,30 -9,5 -30,12 -48,15 -17,4 -34,12 -37,17 -4,5 -14,9 -23,9 -9,0 -29,6 -44,14 -15,8 -41,17 -59,21 -19,4 -40,11 -49,16 -8,4 -35,13 -60,19 -25,6 -70,18 -100,26 -75,21 -190,43 -280,54 -41,6 -96,14 -122,20 -65,13 -489,20 -623,10 z m 565,-128 c 58,-6 134,-15 170,-22 128,-24 216,-42 260,-55 25,-7 61,-16 80,-20 19,-4 41,-11 50,-15 8,-4 42,-16 75,-25 33,-10 74,-24 90,-31 17,-6 57,-22 90,-35 33,-13 125,-57 205,-97 199,-102 197,-100 270,-149 36,-24 73,-49 84,-56 240,-158 561,-465 720,-687 69,-97 169,-245 177,-264 5,-12 18,-34 29,-51 27,-42 150,-291 150,-303 0,-6 6,-23 14,-39 27,-51 46,-101 46,-116 0,-9 4,-18 9,-21 5,-3 12,-21 15,-40 4,-20 13,-48 21,-63 8,-15 15,-36 15,-46 0,-10 4,-26 10,-36 14,-27 -14,-61 -51,-61 -31,0 -69,30 -69,55 0,23 -63,204 -100,290 -5,11 -18,43 -30,70 -35,83 -83,176 -127,251 -24,39 -43,74 -43,77 0,7 -147,225 -160,237 -3,3 -30,36 -60,75 -30,38 -62,77 -70,86 -8,8 -46,49 -85,90 -101,108 -226,221 -335,304 -123,93 -223,162 -249,170 -12,3 -21,10 -21,15 0,4 -8,10 -17,14 -10,3 -45,21 -78,39 -106,58 -139,75 -175,91 -19,8 -65,28 -101,44 -36,17 -117,47 -180,67 -63,20 -123,41 -134,45 -38,15 -234,58 -365,80 -207,34 -677,37 -857,5 -129,-23 -231,-45 -287,-61 -26,-8 -55,-14 -62,-14 -18,0 -242,-75 -316,-106 -249,-104 -447,-215 -643,-362 -185,-139 -321,-267 -495,-468 -168,-193 -366,-527 -465,-784 -9,-25 -22,-56 -27,-70 -18,-45 -58,-172 -58,-183 0,-6 -10,-21 -22,-34 -25,-27 -69,-30 -92,-7 -19,19 -19,17 -1,61 8,19 15,43 15,52 0,9 7,29 15,45 8,15 15,36 15,45 0,9 7,29 15,45 8,15 15,33 15,38 0,32 138,318 219,453 158,266 293,437 507,645 138,135 449,380 480,380 3,0 20,11 37,24 18,14 43,30 57,35 14,6 48,25 75,41 69,41 241,124 320,153 77,28 130,49 163,63 18,8 43,14 55,14 13,0 27,4 33,10 5,5 30,14 54,20 25,5 72,16 105,24 33,8 87,20 120,26 33,6 81,16 107,21 26,6 101,14 168,19 67,5 125,12 128,15 9,9 357,-1 492,-13 z m 40,-793 c 30,-5 80,-13 111,-18 55,-8 74,-13 175,-45 29,-9 57,-16 64,-16 7,0 26,-6 43,-14 18,-7 55,-21 82,-31 111,-39 361,-165 430,-217 6,-4 66,-49 134,-99 137,-102 306,-266 404,-392 65,-83 147,-200 160,-227 4,-8 21,-37 37,-65 16,-27 48,-88 70,-135 23,-47 45,-93 51,-102 14,-27 11,-65 -7,-72 -9,-3 -803,-6 -1764,-6 H 3031 l -11,21 c -9,16 -8,24 4,38 9,10 16,21 16,24 0,9 61,97 108,157 20,25 81,90 136,146 218,218 444,348 771,443 40,12 93,22 220,42 82,13 398,7 465,-9 43,-11 92,-22 190,-43 24,-5 49,-14 54,-19 6,-6 18,-10 28,-10 22,0 63,-18 226,-98 72,-36 132,-69 132,-73 0,-5 5,-9 10,-9 12,0 62,-34 100,-67 13,-13 28,-23 32,-23 7,0 12,-4 72,-60 l 37,-35 41,45 c 22,25 90,96 149,158 60,62 109,120 109,127 0,24 -120,127 -245,212 -83,56 -197,122 -280,161 -39,18 -83,40 -98,48 -16,8 -33,14 -39,14 -5,0 -24,6 -41,14 -58,26 -161,57 -267,82 -286,67 -687,67 -955,0 -33,-8 -80,-20 -105,-26 -25,-6 -52,-15 -60,-19 -9,-5 -30,-12 -49,-16 -18,-4 -44,-13 -59,-21 -15,-8 -30,-14 -34,-14 -6,0 -126,-52 -158,-69 -75,-39 -203,-113 -210,-121 -3,-3 -23,-17 -45,-30 -22,-13 -46,-30 -54,-38 -8,-7 -26,-21 -40,-30 -45,-29 -83,-63 -211,-192 -197,-197 -339,-402 -445,-647 -13,-30 -27,-45 -48,-53 -81,-28 -120,9 -83,78 8,15 29,59 47,97 31,68 153,279 173,301 6,6 18,22 26,34 27,42 110,144 177,218 77,86 268,256 322,286 9,5 18,12 21,15 20,23 231,152 297,181 27,12 75,34 108,50 100,46 135,60 155,60 10,0 21,4 25,9 3,5 20,12 38,16 17,4 52,13 77,20 118,36 155,45 187,45 19,0 43,5 54,10 51,28 546,34 689,9 z M 8844,5108 c 11,-41 7,-1288 -4,-1309 -11,-19 -70,-19 -4340,-19 -3452,0 -4330,3 -4337,13 -14,21 -16,1307 -2,1323 10,12 651,14 4344,14 H 8838 Z M 1661,3660 c 10,-6 19,-17 19,-24 0,-8 7,-27 15,-42 8,-16 15,-39 15,-51 0,-12 4,-24 9,-28 5,-3 13,-20 17,-37 3,-18 10,-39 15,-48 4,-8 16,-33 25,-55 20,-48 149,-312 167,-340 56,-91 168,-256 231,-338 80,-104 266,-298 376,-390 47,-40 87,-74 90,-77 3,-3 23,-19 45,-36 162,-125 425,-279 595,-349 36,-15 69,-31 75,-36 5,-5 16,-9 25,-9 8,0 28,-7 44,-15 15,-8 36,-15 45,-15 9,0 29,-7 45,-15 15,-8 34,-15 41,-15 8,0 26,-5 42,-12 27,-11 70,-22 203,-54 132,-30 230,-44 415,-60 158,-12 225,-13 395,-4 113,6 223,16 245,21 22,5 67,14 100,19 92,14 285,60 328,78 16,7 36,12 46,12 9,0 21,4 26,8 6,5 42,19 80,31 39,13 95,34 125,48 30,14 75,34 100,45 25,11 59,28 75,36 17,9 60,32 96,52 427,227 826,612 1090,1050 25,41 73,134 108,205 84,174 89,186 97,218 3,15 10,30 15,33 5,3 9,13 9,22 0,9 6,29 14,43 7,14 16,43 20,63 9,49 38,76 80,76 38,0 61,-21 53,-47 -91,-286 -242,-596 -402,-829 -147,-212 -335,-422 -515,-574 -36,-30 -67,-57 -70,-60 -36,-36 -334,-244 -368,-257 -9,-4 -49,-26 -88,-50 -39,-24 -74,-43 -78,-43 -3,0 -47,-20 -98,-44 -137,-64 -165,-76 -176,-76 -6,0 -23,-6 -39,-14 -42,-21 -101,-40 -203,-67 -25,-6 -54,-16 -65,-20 -20,-9 -60,-18 -165,-39 -30,-6 -77,-16 -104,-22 -50,-11 -145,-21 -370,-38 -151,-11 -517,10 -641,38 -28,6 -75,16 -105,22 -105,21 -145,30 -165,39 -11,4 -40,14 -65,20 -95,25 -183,55 -212,71 -10,6 -23,10 -29,10 -13,0 -53,17 -186,81 -56,27 -105,49 -108,49 -2,0 -33,17 -67,38 -35,21 -70,41 -78,45 -8,4 -27,15 -42,25 -14,9 -48,30 -75,46 -26,16 -53,34 -59,40 -6,6 -22,18 -34,26 -12,8 -43,31 -69,50 -25,19 -50,38 -56,42 -112,81 -370,336 -473,468 -37,47 -69,87 -73,90 -18,13 -201,298 -234,362 -20,40 -44,87 -54,103 -9,17 -27,55 -40,85 -47,109 -54,125 -63,143 -12,25 -68,185 -78,227 -6,22 -5,39 2,47 13,16 62,17 89,3 z m 827,-6 c 12,-8 22,-21 22,-27 0,-16 128,-268 146,-288 8,-8 14,-18 14,-22 0,-14 112,-170 180,-252 57,-69 241,-245 321,-307 47,-36 121,-88 165,-114 43,-26 81,-50 84,-53 9,-10 193,-98 255,-122 33,-13 65,-26 70,-30 6,-4 26,-10 45,-14 19,-4 41,-11 50,-16 35,-18 213,-57 350,-76 327,-46 761,3 1035,117 17,7 46,19 65,27 45,18 101,44 120,54 8,5 48,25 88,46 40,20 78,43 84,50 6,7 14,13 19,13 11,0 136,86 168,116 14,13 29,24 33,24 4,0 39,30 78,68 l 72,67 -153,158 c -83,86 -156,157 -161,157 -4,0 -41,-27 -81,-61 -73,-62 -179,-136 -252,-176 -63,-35 -204,-103 -214,-103 -5,0 -22,-7 -37,-15 -16,-8 -38,-15 -50,-15 -11,0 -24,-4 -30,-9 -11,-11 -104,-33 -249,-61 -94,-18 -330,-23 -420,-10 -44,6 -109,15 -144,20 -35,5 -77,14 -95,19 -215,69 -390,143 -463,197 -17,13 -34,24 -38,24 -5,0 -64,39 -75,50 -3,3 -21,16 -40,30 -91,64 -261,234 -330,330 -120,169 -136,202 -104,214 9,3 807,6 1774,6 1752,0 1759,0 1770,-20 12,-23 9,-32 -82,-217 -55,-113 -171,-299 -215,-348 -10,-11 -36,-43 -57,-70 -49,-62 -257,-271 -311,-310 -22,-17 -42,-33 -45,-36 -11,-14 -180,-129 -230,-158 -79,-44 -316,-161 -328,-161 -5,0 -23,-7 -38,-15 -16,-8 -39,-15 -51,-15 -12,0 -24,-4 -28,-9 -3,-5 -20,-12 -38,-16 -17,-4 -50,-12 -72,-20 -52,-17 -126,-34 -206,-46 -35,-6 -86,-14 -114,-19 -70,-12 -499,-11 -560,1 -27,6 -77,14 -110,18 -93,13 -292,66 -309,82 -6,5 -19,9 -30,9 -12,0 -34,7 -50,15 -15,8 -32,15 -37,15 -5,0 -44,16 -86,36 -43,19 -93,42 -112,51 -38,17 -175,99 -256,153 -252,168 -547,490 -689,753 -54,99 -64,119 -95,183 -38,81 -47,124 -30,135 22,14 83,10 107,-7 z"
       id="path2" />
    <path
       d="m 269,5016 c -2,-2 -2,-254 1,-560 l 5,-556 h 4219 c 2321,0 4221,2 4223,4 2,2 4,252 4,557 v 554 l -4224,3 c -2323,1 -4226,0 -4228,-2 z m 799,-141 c 9,-9 7,-174 -3,-183 -3,-4 -46,-9 -93,-12 l -87,-5 -3,-309 c -1,-208 -6,-314 -13,-323 -15,-17 -178,-18 -202,0 -15,11 -17,45 -19,322 l -3,310 -83,5 c -59,4 -86,9 -92,20 -11,18 -13,150 -2,167 4,6 21,13 37,15 56,6 556,0 563,-7 z m 700,0 c 9,-4 12,-96 12,-419 0,-368 -2,-415 -16,-420 -9,-3 -51,-6 -94,-6 -43,0 -85,3 -94,6 -14,5 -16,29 -16,165 v 160 l -96,-3 -96,-3 1,-152 c 2,-142 1,-153 -18,-162 -28,-15 -184,-14 -199,1 -9,9 -12,112 -12,403 0,214 3,400 6,413 6,21 11,22 105,22 67,0 100,-4 106,-12 4,-7 10,-76 13,-153 l 5,-140 87,-3 c 104,-3 97,-16 101,173 l 2,130 45,5 c 45,5 134,2 158,-5 z m 623,-2 c 5,-5 9,-48 7,-94 l -3,-84 -130,-5 -130,-5 -3,-49 c -2,-27 2,-54 8,-60 6,-6 62,-13 128,-16 l 117,-5 7,-69 c 4,-38 3,-79 -2,-92 -9,-23 -14,-23 -132,-26 l -123,-3 -3,-67 -3,-66 140,-4 c 77,-2 143,-7 148,-11 14,-15 8,-168 -8,-178 -16,-10 -441,-12 -477,-3 l -22,6 2,417 3,416 155,5 c 206,7 309,5 321,-7 z m 1390,-4 c 5,-8 9,-46 9,-86 0,-96 -9,-105 -109,-102 l -76,2 -3,-313 c -1,-211 -6,-318 -13,-327 -8,-9 -39,-13 -105,-13 -82,0 -95,2 -104,19 -6,12 -10,134 -10,325 v 306 h -85 c -99,0 -105,5 -105,97 0,103 -1,102 99,105 47,2 178,2 290,2 161,-1 205,-4 212,-15 z m 461,3 c 7,-7 22,-12 34,-12 30,0 134,-99 134,-127 0,-12 5,-25 10,-28 13,-8 13,-132 1,-140 -5,-3 -12,-18 -16,-34 -3,-16 -19,-42 -35,-57 -35,-35 -36,-43 -8,-97 35,-69 37,-74 44,-119 3,-24 10,-52 15,-63 12,-27 30,-104 32,-135 2,-25 2,-25 -100,-28 -97,-3 -103,-2 -117,20 -15,23 -30,74 -48,163 -17,85 -38,120 -75,123 l -33,3 v -143 c 0,-99 -4,-148 -12,-156 -14,-14 -176,-16 -198,-2 -13,8 -15,65 -15,410 0,453 -7,417 80,432 68,11 293,4 307,-10 z m 776,4 c 8,-5 12,-38 12,-91 0,-100 10,-94 -155,-98 l -110,-2 v -60 -60 l 110,-2 c 60,-1 115,-5 122,-7 14,-6 19,-152 5,-173 -5,-8 -46,-13 -122,-15 l -115,-3 -3,-67 c -2,-50 0,-68 10,-69 7,0 65,0 129,1 90,1 118,-2 128,-14 8,-9 11,-43 9,-98 l -3,-83 h -245 -245 v 420 420 l 125,5 c 169,7 334,5 348,-4 z m 964,-12 c 47,-22 53,-39 34,-95 -8,-24 -16,-55 -18,-68 -5,-38 -31,-48 -73,-28 -47,22 -160,23 -206,1 -85,-42 -112,-95 -112,-220 -1,-100 15,-150 61,-192 33,-31 64,-42 118,-42 h 45 l -3,63 -3,62 -38,-3 c -58,-5 -67,8 -67,99 0,77 1,80 27,90 26,10 276,5 294,-6 15,-10 12,-440 -3,-453 -36,-29 -117,-44 -239,-45 -107,-1 -134,3 -186,22 -83,31 -152,94 -194,178 l -34,68 v 150 c 0,146 1,152 29,210 40,80 112,156 178,184 117,52 111,51 243,46 80,-2 120,-8 147,-21 z m 395,13 c 3,-3 6,-138 7,-300 2,-287 3,-295 25,-325 18,-26 29,-32 61,-32 52,0 70,8 83,39 7,16 13,136 17,318 3,160 9,295 13,300 5,4 49,8 99,8 77,0 92,-3 104,-19 19,-27 20,-470 1,-571 -16,-81 -53,-159 -94,-196 -36,-34 -101,-69 -129,-69 -11,0 -35,-5 -51,-11 -39,-13 -173,13 -214,42 -52,37 -95,97 -117,166 -21,64 -22,86 -22,348 0,154 4,285 8,291 4,6 14,14 22,17 19,7 179,2 187,-6 z m 1903,-12 c 96,-32 150,-75 204,-163 74,-119 70,-347 -9,-487 -29,-53 -99,-125 -121,-125 -4,0 -15,-6 -23,-13 -40,-34 -133,-51 -282,-50 -91,0 -153,5 -167,12 l -22,12 v 398 c 0,449 -5,420 79,432 84,13 281,4 341,-16 z m -5327,-50 c 24,-75 44,-144 92,-323 9,-31 22,-77 29,-102 8,-25 21,-72 30,-105 27,-95 47,-167 58,-204 8,-26 7,-35 -3,-42 -19,-12 -186,-11 -209,1 -11,6 -22,26 -26,48 -3,20 -14,62 -24,92 l -17,55 h -74 -73 l -11,-35 c -5,-19 -13,-39 -16,-45 -4,-5 -10,-31 -13,-57 -5,-32 -14,-51 -26,-58 -22,-12 -179,-13 -198,-2 -9,6 -10,21 -2,62 6,29 14,58 19,64 4,6 11,30 15,54 3,24 10,51 15,60 9,18 26,81 42,152 5,24 14,49 19,54 6,6 10,19 10,31 0,11 6,40 14,65 8,25 20,68 28,95 9,28 26,85 39,128 l 24,78 119,-3 120,-3 z m 4182,-360 v -420 l -87,-3 c -141,-5 -128,-49 -128,427 0,224 3,411 7,415 4,4 52,5 107,4 l 101,-3 z m 359,409 c 3,-9 6,-155 6,-325 v -309 h 121 c 66,0 129,-5 140,-10 16,-9 19,-22 19,-94 0,-67 -3,-85 -16,-90 -28,-11 -472,-7 -479,4 -8,14 -9,816 0,829 4,7 46,11 105,11 80,0 99,-3 104,-16 z"
       id="path4" />
    <path
       d="m 4080,4616 v -86 h 34 c 25,0 43,8 65,31 58,57 31,127 -52,136 l -47,6 z"
       id="path6" />
    <path
       d="m 8093,4694 c -10,-4 -13,-61 -13,-234 0,-261 -1,-257 79,-239 56,12 85,33 113,77 20,33 23,50 23,162 0,139 -12,173 -73,210 -31,19 -108,33 -129,24 z"
       id="path8" />
    <path
       d="m 2795,4519 c -3,-8 -6,-32 -8,-54 -2,-37 0,-40 23,-40 23,0 25,3 22,40 -4,45 -27,79 -37,54 z"
       id="path10" />
  </g>
</svg>
