<?xml version="1.0" encoding="UTF-8" standalone="no"?>
<svg
   width="427.78799"
   height="118.32181"
   viewBox="0 0 427.78799 118.32181"
   version="1.1"
   id="svg22"
   xmlns="http://www.w3.org/2000/svg"
   xmlns:svg="http://www.w3.org/2000/svg">
  <defs
     id="defs12" />
  <g
     fill="none"
     fill-rule="nonzero"
     id="g20"
     transform="translate(-234.212,-28.269)">
    <path
       fill="#000000"
       d="m 234.212,53.567 c 0,-13.992 11.31,-25.298 25.31,-25.298 6.718,0 12.878,2.686 17.47,7.052 l -4.256,4.254 c -3.472,-3.247 -8.063,-5.374 -13.215,-5.374 -10.75,0 -19.15,8.62 -19.15,19.478 0,10.746 8.512,19.478 19.15,19.478 5.264,0 10.079,-2.24 13.55,-5.597 l 4.256,4.141 c -4.591,4.478 -10.863,7.277 -17.806,7.277 -13.998,-0.112 -25.309,-11.418 -25.309,-25.41 z m 73.575,-24.403 h 4.928 l 19.71,48.806 h -6.384 l -3.248,-8.06 h -25.308 l -3.248,8.06 h -6.271 z m -8.175,35.373 h 20.942 L 310.25,38.791 299.611,64.537 Z m 43.451,6.717 4.144,-4.478 c 3.023,3.47 7.95,6.269 12.99,6.269 5.935,0 9.743,-3.47 9.743,-8.06 0,-3.358 -1.792,-6.604 -7.055,-8.731 l -5.824,-2.351 c -6.83,-2.687 -10.526,-6.493 -10.526,-12.65 0,-7.163 5.935,-12.649 13.886,-12.649 6.16,0 10.415,1.903 13.998,5.374 l -3.695,4.59 c -2.8,-2.8 -6.048,-4.367 -10.303,-4.367 -4.592,0 -8.063,2.687 -8.063,6.829 0,3.022 1.68,5.261 6.831,7.276 l 6.047,2.463 c 7.503,3.022 10.527,7.835 10.527,13.768 0,8.172 -6.16,13.993 -15.902,13.993 -6.383,0.112 -12.766,-3.023 -16.798,-7.276 z m 44.683,-42.09 h 38.41 v 5.71 H 410.031 V 77.97 h -6.047 V 34.873 h -16.126 v -5.709 z m 52.521,0 h 6.047 V 77.97 h -6.047 z m 25.085,0 h 3.808 l 28.556,36.269 V 29.164 h 6.047 V 77.97 h -3.695 L 471.399,41.701 v 36.381 h -6.047 z m 90.037,21.717 h 15.454 v 2.91 c -0.336,14.664 -11.87,25.075 -25.309,25.075 -14.446,0 -25.533,-11.53 -25.533,-25.299 0,-13.88 11.087,-25.298 25.533,-25.298 7.503,0 14.11,3.134 18.926,8.283 l -4.256,4.142 c -3.695,-4.142 -8.846,-6.604 -14.558,-6.604 -11.198,0 -19.373,8.73 -19.373,19.477 0,10.634 8.287,19.478 19.373,19.478 9.631,0 17.582,-6.493 19.15,-16.68 H 555.5 v -5.484 h -0.112 z M 234.212,97 h 3.808 l 28.556,36.269 V 97 h 6.048 v 48.806 h -3.696 l -28.78,-36.38 v 36.38 h -5.936 V 97 Z m 63.497,26.754 v 16.567 h 21.837 v 5.373 H 291.66 V 97 h 27.549 v 5.485 h -21.501 v 15.896 h 20.605 v 5.485 h -20.605 v -0.112 z M 332.2,97 h 38.412 v 5.709 h -16.126 v 43.097 h -6.048 V 102.709 H 332.312 V 97 Z m 49.946,0 h 6.271 L 400.96,135.62 413.39,97 h 6.384 L 431.868,135.955 444.971,97 h 5.935 l -16.462,48.806 h -5.264 l -12.542,-39.85 -13.214,39.85 h -5.152 z m 78.167,24.291 c 0,-13.992 11.422,-25.298 25.309,-25.298 13.998,0 25.42,11.306 25.42,25.298 0,13.993 -11.422,25.299 -25.42,25.299 -13.999,0.111 -25.31,-11.194 -25.31,-25.299 z m 44.57,0 c 0,-10.746 -8.623,-19.478 -19.261,-19.478 -10.751,0 -19.15,8.62 -19.15,19.478 0,10.746 8.51,19.478 19.15,19.478 10.75,0 19.261,-8.62 19.261,-19.478 z M 528.513,97 h 18.365 c 8.623,0 15.454,5.933 15.454,14.664 0,8.396 -6.271,14.105 -14.558,14.552 l 15.118,19.478 h -7.055 l -15.006,-19.59 h -6.16 v 19.702 h -6.047 V 97 h -0.112 z m 6.159,5.373 v 18.806 h 11.534 c 5.823,0 10.079,-3.694 10.079,-9.515 0,-5.261 -4.256,-9.29 -10.079,-9.29 H 534.672 Z M 580.81,97 h 5.935 v 23.955 L 608.023,97 h 7.727 l -17.246,19.366 17.694,29.44 h -7.056 l -14.894,-24.85 -7.615,8.507 v 16.343 h -5.935 V 97 Z m 48.49,41.978 4.143,-4.478 c 3.024,3.47 7.952,6.269 12.99,6.269 5.936,0 9.744,-3.47 9.744,-8.06 0,-3.358 -1.792,-6.605 -7.055,-8.731 l -5.824,-2.351 c -6.83,-2.687 -10.526,-6.493 -10.526,-12.65 0,-7.164 5.935,-12.649 13.886,-12.649 6.16,0 10.415,1.903 13.998,5.373 l -3.695,4.59 c -2.8,-2.798 -6.048,-4.366 -10.303,-4.366 -4.592,0 -8.063,2.687 -8.063,6.829 0,3.022 1.68,5.26 6.831,7.276 l 6.047,2.463 c 7.503,3.022 10.527,7.835 10.527,13.768 0,8.172 -6.16,13.993 -15.902,13.993 -6.383,0.112 -12.766,-2.91 -16.798,-7.276 z"
       id="path18"
       style="fill:#ffffff" />
  </g>
</svg>
