<?xml version="1.0" encoding="UTF-8" standalone="no"?>
<svg
   version="1.0"
   width="210.32066pt"
   height="209.74457pt"
   viewBox="0 0 210.32067 209.74457"
   preserveAspectRatio="xMidYMid"
   id="svg24"
   sodipodi:docname="dane-hobrecht-logo-008.svg"
   xmlns:inkscape="http://www.inkscape.org/namespaces/inkscape"
   xmlns:sodipodi="http://sodipodi.sourceforge.net/DTD/sodipodi-0.dtd"
   xmlns="http://www.w3.org/2000/svg"
   xmlns:svg="http://www.w3.org/2000/svg">
  <defs
     id="defs28" />
  <sodipodi:namedview
     id="namedview26"
     pagecolor="#ffffff"
     bordercolor="#000000"
     borderopacity="0.25"
     inkscape:showpageshadow="2"
     inkscape:pageopacity="0.0"
     inkscape:pagecheckerboard="0"
     inkscape:deskcolor="#d1d1d1"
     inkscape:document-units="pt"
     showgrid="false" />
  <metadata
     id="metadata2">
Created by potrace 1.10, written by Peter Selinger 2001-2011
</metadata>
  <g
     transform="matrix(0.1,0,0,-0.1,-0.36716024,209.8329)"
     fill="#000000"
     stroke="none"
     id="g22"
     style="fill:#ffffff">
    <path
       d="M 845,2084 C 705,2053 579,2000 461,1922 380,1869 232,1717 172,1626 -131,1162 -14,529 435,201 739,-22 1156,-62 1500,98 c 405,188 652,629 600,1068 -30,248 -131,458 -304,630 -131,131 -282,219 -462,271 -116,33 -377,42 -489,17 z m 236,-93 c 7,11 9,9 9,-8 0,-13 -5,-23 -11,-23 -6,0 -9,-9 -6,-20 4,-17 0,-20 -34,-20 h -39 v 45 c 0,48 6,55 25,28 11,-15 14,-14 26,8 l 14,24 3,-24 c 3,-19 6,-21 13,-10 z m 95,5 c 3,-8 -2,-26 -11,-40 -11,-16 -13,-26 -6,-26 6,0 11,6 12,13 0,9 2,9 6,-1 2,-6 10,-9 16,-5 7,4 6,-1 -2,-10 -15,-19 -76,-23 -86,-7 -3,6 -1,10 4,10 6,0 11,18 11,40 0,36 2,40 25,40 14,0 28,-6 31,-14 z m -224,-35 c 14,-22 23,-42 20,-45 -6,-7 -82,-8 -82,-2 0,3 5,17 11,33 8,22 12,24 19,13 8,-12 10,-10 10,8 0,13 -4,20 -10,17 -5,-3 -10,-1 -10,4 0,22 17,10 42,-28 z m 332,12 c 4,-9 2,-21 -3,-26 -6,-6 -6,-19 -1,-33 7,-19 6,-24 -5,-24 -8,0 -15,9 -15,19 0,11 -5,23 -12,27 -8,5 -9,0 -6,-14 5,-17 2,-22 -12,-22 -13,0 -17,5 -13,21 3,11 12,23 19,25 47,14 47,14 34,29 -7,9 -8,15 -2,15 5,0 13,-8 16,-17 z m 101,-13 c 3,-5 1,-10 -6,-10 -8,0 -8,-4 1,-15 12,-14 7,-20 -14,-16 -4,1 -5,-14 -2,-34 6,-28 4,-35 -9,-35 -9,0 -13,5 -10,10 3,6 -1,13 -9,16 -14,5 -14,8 0,22 10,9 14,26 12,44 -4,22 -1,28 13,28 10,0 21,-4 24,-10 z m -681,-6 c -9,-4 -9,-13 -1,-34 11,-29 37,-42 37,-18 0,9 3,9 12,0 15,-15 9,-20 -31,-32 -29,-8 -31,-7 -26,10 3,10 -1,33 -10,50 -15,29 -15,30 7,29 13,0 18,-3 12,-5 z m -107,-50 c 0,-15 8,-33 17,-42 14,-14 16,-14 22,1 3,9 10,14 15,11 17,-10 9,-20 -27,-38 -31,-14 -36,-15 -31,-2 8,20 -12,76 -26,76 -7,0 -5,5 3,10 22,14 25,13 27,-16 z m 887,20 c 9,-3 16,-16 16,-28 -1,-20 -2,-20 -14,-3 -18,23 -33,22 -41,-4 -9,-28 9,-46 30,-29 8,7 15,8 15,2 0,-17 -27,-33 -44,-26 -21,8 -21,52 1,76 18,21 16,20 37,12 z m -959,-74 c 10,-11 24,-20 32,-20 7,0 13,-4 13,-9 0,-12 -30,-22 -42,-14 -7,3 -8,1 -4,-5 3,-6 -2,-16 -13,-21 -17,-10 -19,-7 -19,23 0,28 3,33 17,28 14,-5 14,-4 2,11 -7,9 -17,14 -22,11 -5,-3 -9,0 -9,5 0,18 26,12 45,-9 z m 1062,-30 c -1,-27 -3,-50 -5,-50 -13,0 -42,23 -37,30 3,4 -3,6 -14,3 -32,-8 -33,15 -1,32 18,10 30,11 30,5 0,-6 5,-8 11,-5 6,4 8,13 5,21 -3,8 -1,14 4,14 5,0 8,-22 7,-50 z m 87,-38 c -5,-25 -4,-26 9,-9 9,11 18,14 21,8 7,-10 -51,-70 -66,-71 -11,0 -10,7 9,43 15,30 15,31 0,18 -10,-7 -17,-20 -17,-28 0,-17 -22,-13 -28,5 -2,7 3,12 12,12 8,0 23,13 32,29 21,35 36,31 28,-7 z M 764,1674 c 13,-13 16,-46 16,-202 0,-197 10,-321 36,-464 l 16,-86 53,18 c 66,23 385,155 440,182 112,56 168,164 113,215 -71,65 -266,112 -460,113 -98,0 -112,10 -106,73 5,50 49,67 175,67 163,0 299,-34 425,-107 103,-59 128,-90 128,-155 0,-108 -45,-153 -279,-279 l -163,-88 232,-235 c 231,-234 255,-266 199,-266 -55,0 -322,186 -470,328 -65,61 -121,112 -125,112 -8,0 -148,-41 -152,-45 -1,-1 12,-55 29,-121 43,-162 45,-180 24,-188 -68,-26 -121,116 -214,564 -70,341 -94,510 -74,536 33,43 126,60 157,28 z m 295,-368 c 7,-8 8,-16 4,-19 -16,-10 -146,-47 -150,-43 -6,6 58,53 87,65 35,14 46,13 59,-3 z m -34,-82 c 42,-17 59,-110 25,-144 -30,-30 -103,-28 -135,5 -32,31 -34,96 -5,125 20,20 80,27 115,14 z m 555,-145 c 14,-22 2,-27 -37,-18 -56,13 -57,12 -29,-22 54,-63 24,-179 -46,-179 -60,0 -133,80 -126,138 4,32 58,71 102,73 30,2 30,2 4,6 -16,2 -28,8 -28,13 0,23 146,13 160,-11 z M 1390,334 c 0,-41 4,-54 15,-54 8,0 15,-4 15,-10 0,-5 -17,-10 -37,-10 -21,0 -33,4 -26,8 6,4 13,30 14,57 3,43 1,50 -16,54 -20,4 -20,4 0,11 30,11 35,4 35,-56 z m -683,49 c -4,-3 -10,-3 -14,0 -3,4 0,7 7,7 7,0 10,-3 7,-7 z m -37,-7 c 0,-3 -4,-8 -10,-11 -5,-3 -10,-1 -10,4 0,6 5,11 10,11 6,0 10,-2 10,-4 z m 55,-39 c -5,-24 -2,-39 9,-50 21,-20 20,-27 -3,-27 -13,0 -20,9 -24,30 -4,18 -13,30 -22,30 -20,0 -19,-24 1,-41 14,-12 14,-14 -6,-21 -31,-11 -37,-4 -32,36 3,30 8,36 27,36 24,0 49,22 38,33 -3,4 -1,7 6,7 8,0 10,-10 6,-33 z m 259,17 c 9,-3 16,-12 16,-19 0,-11 -6,-11 -29,-2 -17,6 -28,15 -25,19 6,10 17,10 38,2 z m 162,-5 c 3,-6 1,-16 -5,-22 -8,-8 -11,-8 -11,1 0,7 -12,12 -27,12 -22,0 -25,2 -13,10 20,13 47,13 56,-1 z m 392,5 c 12,-4 22,-12 22,-19 0,-11 -6,-11 -30,-2 -46,18 -40,34 8,21 z M 865,314 c 8,-20 15,-39 15,-43 0,-4 -22,-8 -49,-9 -38,-1 -50,2 -55,15 -4,10 -1,22 6,28 8,5 12,18 10,28 -3,13 3,17 27,17 26,0 33,-6 46,-36 z m 413,6 c 2,-14 8,-29 13,-34 17,-19 9,-23 -41,-25 -56,-1 -78,21 -46,44 12,9 13,14 5,17 -25,8 3,29 34,26 26,-2 33,-8 35,-28 z m 139,-2 c -3,-7 -5,-2 -5,12 0,14 2,19 5,13 2,-7 2,-19 0,-25 z m -462,2 c 3,-5 15,-10 26,-10 23,0 36,-27 21,-42 -7,-7 -20,-7 -38,-1 -21,7 -29,17 -31,36 -2,27 10,36 22,17 z m 129,-3 c -8,-23 24,-43 46,-29 26,16 34,-1 10,-23 -18,-16 -21,-17 -45,-1 -24,16 -36,66 -15,66 5,0 7,-6 4,-13 z m 33,6 c -4,-3 -10,-3 -14,0 -3,4 0,7 7,7 7,0 10,-3 7,-7 z m 401,-2 c 9,-5 25,-12 35,-15 19,-6 21,-14 8,-35 -6,-9 -18,-11 -39,-6 -26,5 -30,11 -30,36 1,32 1,33 26,20 z m -428,-71 c 13,-8 13,-10 -2,-10 -9,0 -20,5 -23,10 -8,13 5,13 25,0 z"
       id="path4"
       style="fill:#ffffff" />
    <path
       d="m 1135,1990 c -4,-6 -5,-10 -3,-11 25,-6 38,-6 38,1 0,12 -29,20 -35,10 z"
       id="path6"
       style="fill:#ffffff" />
    <path
       d="m 1130,1940 c 0,-7 3,-10 7,-7 3,4 3,10 0,14 -4,3 -7,0 -7,-7 z"
       id="path8"
       style="fill:#ffffff" />
    <path
       d="m 810,330 c 0,-5 7,-10 15,-10 8,0 15,5 15,10 0,6 -7,10 -15,10 -8,0 -15,-4 -15,-10 z"
       id="path10"
       style="fill:#ffffff" />
    <path
       d="m 800,290 c 0,-12 8,-12 35,0 18,8 17,9 -7,9 -16,1 -28,-3 -28,-9 z"
       id="path12"
       style="fill:#ffffff" />
    <path
       d="m 1230,330 c 0,-5 7,-10 15,-10 8,0 15,5 15,10 0,6 -7,10 -15,10 -8,0 -15,-4 -15,-10 z"
       id="path14"
       style="fill:#ffffff" />
    <path
       d="m 1220,290 c 0,-13 11,-13 30,0 12,8 11,10 -7,10 -13,0 -23,-4 -23,-10 z"
       id="path16"
       style="fill:#ffffff" />
    <path
       d="m 955,290 c 3,-5 13,-10 21,-10 8,0 12,5 9,10 -3,6 -13,10 -21,10 -8,0 -12,-4 -9,-10 z"
       id="path18"
       style="fill:#ffffff" />
    <path
       d="m 1515,290 c 3,-5 13,-10 21,-10 8,0 12,5 9,10 -3,6 -13,10 -21,10 -8,0 -12,-4 -9,-10 z"
       id="path20"
       style="fill:#ffffff" />
  </g>
</svg>
