<?xml version="1.0" encoding="UTF-8" standalone="no"?>
<svg
   id="svg"
   width="378.68942"
   height="200.30867"
   viewBox="0 0 378.68942 200.30867"
   version="1.1"
   sodipodi:docname="image2vector.svg"
   inkscape:export-filename="image2vector.svg"
   inkscape:export-xdpi="96"
   inkscape:export-ydpi="96"
   xmlns:inkscape="http://www.inkscape.org/namespaces/inkscape"
   xmlns:sodipodi="http://sodipodi.sourceforge.net/DTD/sodipodi-0.dtd"
   xmlns="http://www.w3.org/2000/svg"
   xmlns:svg="http://www.w3.org/2000/svg">
  <defs
     id="defs1" />
  <sodipodi:namedview
     id="namedview1"
     pagecolor="#ffffff"
     bordercolor="#000000"
     borderopacity="0.25"
     inkscape:showpageshadow="2"
     inkscape:pageopacity="0.0"
     inkscape:pagecheckerboard="0"
     inkscape:deskcolor="#d1d1d1" />
  <g
     id="svgg"
     transform="translate(-9.7864003,-7.3557375)"
     style="fill:#ffffff">
    <path
       id="path0"
       d="m 89.893,8.413 c -6.082,1.433 -13.008,5.094 -18.109,9.574 l -4.247,3.728 -6.078,-2.846 c -17.488,-8.187 -40.094,0.964 -40.094,16.23 0,8.095 8.735,14.753 19.355,14.753 3.908,0 4.72,1.366 2.605,4.385 -2.948,4.209 -20.266,-0.189 -23.336,-5.926 -1.274,-2.38 -1.32,-2.373 -2.885,0.451 -4.614,8.33 0.09,16.002 11.976,19.531 l 4.748,1.409 -3.983,3.725 c -3.571,3.339 -8.382,5.259 -6.812,2.719 1.248,-2.019 -7.628,-8.56 -9.938,-7.324 -6.341,3.394 -2.921,11.89 4.787,11.89 4.63,0 7.726,-1.605 13.214,-6.849 l 4.389,-4.195 10.302,0.727 c 10.813,0.764 15.473,2.957 14.193,6.681 -0.351,1.021 0.439,0.586 1.754,-0.965 7.365,-8.688 2.09,-17.336 -11.51,-18.869 -5.591,-0.63 -5.86,-0.972 -3.363,-4.27 3.517,-4.644 21.632,0.986 24.359,7.571 C 73.669,66.455 63.967,84.33 59.38,82.358 41.183,74.535 21.837,78.821 13.898,92.434 l -2.125,3.645 6.23,-3.232 c 9.045,-4.693 19.18,-4.555 29.172,0.398 l 7.325,3.63 1.503,-3.63 C 56.829,91.248 60.446,86.148 64.04,81.911 83.961,58.425 82.943,44.699 60.858,39.007 54.907,37.473 55.043,37.133 66.162,25.718 78.557,12.993 90.096,8.504 100.349,12.42 c 11.331,4.327 11.997,18.133 1.094,22.688 -5.089,2.127 -5.301,2.114 -5.301,-0.32 0,-1.874 -0.098,-1.875 -1.483,-0.021 -2.242,3.001 -7.433,0.068 -7.379,-4.169 0.022,-1.717 -0.378,-2.862 -0.89,-2.546 -2.776,1.716 0.717,8.639 5.153,10.212 2.317,0.823 -3.151,6.655 -8.291,8.844 -3.435,1.462 -3.73,1.893 -2.13,3.111 3.308,2.517 4.338,7.822 4.338,22.353 0,14.083 0.041,14.299 3.373,17.631 3.527,3.526 13.463,7.063 14.14,5.032 0.209,-0.625 1.356,-3.054 2.551,-5.397 l 2.171,-4.259 -3.388,-0.744 C 97.737,83.392 96.142,79.541 96.142,65.122 V 52.226 h 5.65 c 4.161,0 6.001,-0.565 6.987,-2.144 1.245,-1.993 0.85,-2.108 -5.649,-1.637 l -6.988,0.505 v -4.653 -4.653 l 7.137,-1.474 c 4.808,-0.993 8.465,-2.64 11.204,-5.045 C 129.739,19.73 113.049,2.958 89.893,8.413 M 48.071,23.608 c 2.611,1.206 5.981,3.531 7.488,5.169 l 2.74,2.977 -2.74,3.054 -2.74,3.053 -10.161,-1.557 C 28.345,34.109 23.446,31.095 26.108,26.122 28.804,21.084 39.861,19.819 48.071,23.608 m 143.422,-1.001 c -11.66,3.564 -12.065,21.31 -0.486,21.31 h 2.465 l -2.374,-2.374 c -3.082,-3.082 -3.003,-5.359 0.264,-7.648 4.314,-3.021 7.927,-2.244 12.96,2.789 l 4.637,4.637 -0.325,20.458 c -0.385,24.21 -0.151,23.79 -11.924,21.45 -11.677,-2.321 -19.855,2.188 -19.855,10.949 0,2.906 0.274,3.215 1.758,1.983 1.126,-0.935 3.579,-1.203 6.825,-0.745 16.52,2.327 16.932,2.314 20.336,-0.628 3.949,-3.414 5.421,-11.754 5.521,-31.287 l 0.067,-13.056 5.1,13.237 c 8.336,21.636 25.674,42.84 25.674,31.399 0,-1.237 1.469,-3.816 3.265,-5.732 l 3.264,-3.484 -4.451,-1.895 -4.451,-1.895 V 61.454 40.833 l 4.118,-1.489 c 3.692,-1.335 8.938,-6.292 8.938,-8.444 0,-0.456 -2.935,-0.585 -6.521,-0.287 -6.315,0.523 -6.673,0.39 -11.276,-4.214 -2.615,-2.615 -4.755,-4.272 -4.755,-3.681 0,0.591 -2.157,3.414 -4.794,6.275 l -4.794,5.201 3.572,2.543 c 1.965,1.399 5.858,2.931 8.652,3.405 4.964,0.842 5.087,0.975 5.444,5.879 l 0.365,5.018 h -6.973 -6.973 l -2.032,-6.447 C 217.297,27.345 204.789,18.543 191.493,22.607 m 8.954,19.531 c -4.18,2.177 -5.945,4.003 -7.409,7.66 -1.277,3.192 -2.658,4.801 -4.12,4.801 -3.345,0 -6.129,3.862 -6.129,8.501 0,5.063 0.916,6.183 3.194,3.906 4.379,-4.38 6.611,-2.241 6.097,5.842 l -0.482,7.566 3.3,-1.15 c 7.61,-2.653 9.256,-6.698 9.256,-22.738 0,-9.702 0.472,-14.98 1.425,-15.933 1.981,-1.981 1.167,-1.736 -5.132,1.545 m -84.343,6.929 c -3.817,3.375 -4.124,4.021 -2.419,5.096 1.59,1.004 2.07,4.111 2.59,16.784 0.624,15.179 0.722,15.638 4.099,19.159 2.978,3.105 11.012,7.093 11.801,5.858 0.146,-0.228 1.743,-2.423 3.549,-4.876 l 3.285,-4.461 2.91,3.458 c 5.365,6.376 8.901,6.552 12.588,0.625 l 3.171,-5.099 -2.875,-1.883 c -2.775,-1.818 -2.874,-2.373 -2.874,-16.022 0,-20.613 -3.1,-26.125 -10.7,-19.025 -2.087,1.949 -4.272,3.545 -4.856,3.545 -0.584,0 0.007,1.068 1.312,2.373 3.996,3.996 3.594,30.861 -0.462,30.861 -7.328,0 -10.146,-6.796 -10.192,-24.583 -0.025,-9.698 -0.321,-11.206 -2.626,-13.353 -3.264,-3.041 -3.076,-3.076 -8.301,1.543 m 150.868,-0.862 c -1.582,1.706 -5.717,4.714 -9.188,6.686 -4.471,2.54 -5.941,3.955 -5.044,4.852 0.732,0.732 1.266,6.401 1.266,13.45 0,11.842 0.1,12.298 3.556,16.234 5.009,5.705 15.435,8.298 15.435,3.838 0,-0.853 1.107,-2.958 2.46,-4.678 2.295,-2.917 2.315,-3.127 0.297,-3.131 -14.455,-0.03 -12.174,-12.337 4.308,-23.245 5.841,-3.865 5.845,-3.924 0.485,-7.576 -2.367,-1.612 -5.402,-4.416 -6.743,-6.231 -2.994,-4.049 -3.252,-4.057 -6.832,-0.199 m 26.05,0.807 c -3.614,3.197 -4.044,4.056 -2.671,5.339 1.216,1.136 1.637,5.208 1.637,15.843 0,16.632 1.314,20.633 8.046,24.492 l 4.417,2.532 5.075,-4.969 5.076,-4.97 2.64,3.21 c 5.65,6.873 9.098,7.393 14.49,2.188 2.622,-2.531 7.571,-6 10.998,-7.709 l 6.231,-3.109 V 67.577 c 0,-20.119 -3.263,-25.843 -10.747,-18.852 -2.061,1.925 -4.225,3.501 -4.808,3.501 -0.584,0 0.022,1.084 1.347,2.409 3.801,3.8 3.061,32.418 -0.852,32.975 -6.053,0.862 -7.492,-3.072 -7.492,-20.481 0,-15.045 -0.159,-16.144 -2.792,-19.205 l -2.793,-3.247 -4.843,4.066 c -4.328,3.633 -4.658,4.269 -3.105,5.985 3.061,3.383 1.853,32.4 -1.369,32.861 -5.523,0.791 -7.025,-3.437 -7.441,-20.944 -0.346,-14.514 -0.645,-16.478 -2.878,-18.871 -3.11,-3.332 -2.975,-3.353 -8.166,1.238 m 69.966,-0.903 c -15.386,8.012 -12.812,19.349 6.459,28.449 9.509,4.491 12.229,7.303 10.954,11.321 -0.965,3.04 -2.591,2.966 -3.584,-0.164 -2.395,-7.547 -18.215,-8.572 -25.157,-1.631 -6.877,6.877 -2.734,18.646 6.409,18.205 2.763,-0.133 2.888,-0.252 0.708,-0.673 -3.485,-0.673 -7.523,-5.868 -6.559,-8.44 2.215,-5.907 10.59,-6.734 15.767,-1.557 l 3.411,3.411 6.29,-4.159 C 392.87,82.833 392.065,75.026 375.038,67.19 362.875,61.593 360.57,58.812 362.388,51.929 c 1.12,-4.24 2.542,-4.134 4.39,0.327 2.828,6.827 14.231,12.348 14.231,6.89 0,-1.557 0.814,-3.994 1.81,-5.416 1.742,-2.486 1.639,-2.63 -2.707,-3.8 -2.485,-0.669 -5.569,-2.012 -6.855,-2.984 -3.069,-2.32 -3.723,-2.246 -10.269,1.163 M 270.79,67.452 c -2.693,2.462 -4.407,3.357 -4.549,2.374 -0.126,-0.867 -0.418,-4.794 -0.65,-8.727 l -0.422,-7.149 4.971,4.776 4.971,4.775 -4.321,3.951 m -32.712,-5.316 c 0.338,0.88 0.455,5.287 0.259,9.792 l -0.355,8.191 -2.609,-3.658 c -1.435,-2.012 -3.697,-6.418 -5.027,-9.792 l -2.418,-6.135 h 4.768 c 2.906,0 5.007,0.625 5.382,1.602 m -173.39,44.887 c -7.123,3.94 -9.384,7.944 -4.043,7.161 2.302,-0.338 5.804,0.46 9.388,2.138 7.35,3.443 12.802,2.564 18.787,-3.027 l 4.355,-4.068 -3.854,0.727 c -2.628,0.496 -5.719,-0.075 -9.716,-1.794 -6.453,-2.777 -11.286,-3.145 -14.917,-1.137 m 30.529,5.044 c -9.497,6.991 -9.079,5.821 -9.788,27.399 -0.343,10.445 -1.059,19.902 -1.59,21.016 -1.628,3.409 6.394,0.427 10.226,-3.802 l 3.264,-3.602 v -19.922 c 0,-21.038 0.42,-22.77 5.512,-22.77 3.18,0 6.066,3.763 7.096,9.254 l 0.749,3.996 2.184,-3.361 c 1.202,-1.849 4.472,-4.529 7.269,-5.957 l 5.084,-2.595 -5.342,-2.423 c -9.258,-4.2 -16.268,-3.413 -24.664,2.767 m 253.151,-3.422 c -4.806,2.384 -8.207,7.69 -12.541,19.565 -5.136,14.073 -5.211,14.168 -7.58,9.586 -3.587,-6.936 -13.046,-10.005 -17.716,-5.749 -1.611,1.469 -4.573,3.914 -6.582,5.432 -6.197,4.685 -3.306,13.407 4.36,13.156 3.17,-0.104 3.151,-0.14 -0.64,-1.233 -6.055,-1.746 -7.639,-6.434 -3.406,-10.076 4.038,-3.473 6.649,-3.562 10.71,-0.367 3.563,2.802 4.592,10.596 1.4,10.596 -0.95,0 -3.674,1.321 -6.054,2.936 -2.379,1.615 -6.142,3.276 -8.361,3.693 l -4.035,0.757 v 7.912 c 0,9.305 1.683,12.385 7.886,14.432 3.716,1.226 4.468,1.155 5.4,-0.51 0.596,-1.064 2.321,-3.373 3.834,-5.132 l 2.751,-3.199 1.833,3.544 c 1.63,3.153 7.47,7.619 8.277,6.33 0.171,-0.273 2.066,-2.766 4.212,-5.541 2.145,-2.774 3.38,-5.044 2.743,-5.044 -3.548,0 -4.889,-3.906 -4.889,-14.24 v -10.509 l 6.94,-12.255 c 7.491,-13.228 12.101,-17.595 18.571,-17.595 9.362,0 10.411,9.645 1.196,10.993 -3.169,0.463 -3.061,0.54 0.981,0.698 3.576,0.14 5.281,-0.56 8.012,-3.292 9.484,-9.483 -4.294,-21.34 -17.302,-14.888 M 74.028,127.44 c -2.852,2.852 -5.185,6.213 -5.185,7.47 0,1.551 -1.235,2.649 -3.845,3.42 -4.379,1.294 -6.454,5.491 -5.194,10.509 0.755,3.008 0.936,3.08 3.402,1.353 5.179,-3.628 5.841,-2.62 5.427,8.268 -0.211,5.55 -0.229,10.09 -0.04,10.089 8.694,-0.07 11.97,-7.691 12.376,-28.788 0.375,-19.504 0.327,-19.589 -6.941,-12.321 m 34.964,1.577 c -0.233,0.525 -0.149,8.566 0.188,17.87 l 0.612,16.916 -10.089,0.011 c -15.177,0.015 -30.466,5.839 -39.316,14.975 l -4.007,4.138 7.121,-3.333 c 9.698,-4.538 31.601,-4.86 42.137,-0.62 3.59,1.445 6.595,2.627 6.677,2.628 0.081,0 0.453,-1.527 0.827,-3.395 0.373,-1.867 2.087,-5.068 3.808,-7.113 l 3.129,-3.719 -3.144,-1.195 c -1.728,-0.657 -3.677,-1.195 -4.329,-1.195 -0.749,0 -1.094,-6.648 -0.936,-18.043 0.222,-16.032 -0.718,-22.325 -2.678,-17.925 m 26.952,2.691 c -1.161,1.282 -4.438,3.22 -7.283,4.307 l -5.173,1.976 2.944,3.499 c 1.62,1.925 2.945,4.374 2.945,5.443 0,4.032 3.722,-1.642 4.401,-6.71 0.369,-2.747 1.305,-4.911 2.123,-4.911 2.41,0 7.719,4.769 7.719,6.934 0,1.841 -12.681,10.561 -18.101,12.446 -3.696,1.286 -2.972,17.886 0.938,21.509 4.054,3.757 8.945,4.944 10.312,2.502 0.573,-1.024 2.301,-3.325 3.839,-5.114 l 2.798,-3.252 1.525,3.348 c 1.264,2.774 7.929,7.826 8.604,6.521 0.109,-0.211 1.954,-2.654 4.1,-5.429 2.146,-2.774 3.38,-5.044 2.743,-5.044 -3.743,0 -4.888,-3.841 -4.893,-16.405 -0.006,-19.075 -10.919,-31.148 -19.541,-21.62 m 43.599,0.895 c -1.118,1.707 -5.007,5.026 -8.642,7.375 -5.853,3.784 -6.514,4.608 -5.787,7.221 0.452,1.622 0.875,8.341 0.94,14.932 0.13,13.154 0.823,14.625 8.093,17.159 3.454,1.204 3.947,0.981 8.499,-3.843 l 4.832,-5.121 0.029,4.781 c 0.017,2.629 0.927,6.061 2.024,7.627 1.91,2.727 1.898,2.809 -0.297,1.928 -17.288,-6.939 -36.817,8.141 -24.243,18.721 3.569,3.003 11.961,5.073 16.175,3.99 1.219,-0.313 0.08,-0.633 -2.531,-0.712 -11.575,-0.346 -17.264,-10.117 -8.117,-13.939 5.255,-2.196 11.741,-1.29 15.448,2.157 l 2.583,2.403 2.444,-4.791 c 1.344,-2.635 4.533,-6.544 7.087,-8.688 4.124,-3.463 4.424,-4.058 2.688,-5.325 -1.627,-1.188 -2.054,-4.61 -2.548,-20.397 -0.677,-21.617 -0.841,-22.016 -10.761,-26.139 l -5.881,-2.444 -2.035,3.105 m 30.596,-0.312 c -1.54,1.639 -3.82,3.304 -5.067,3.7 -2.183,0.692 -2.187,0.779 -0.109,2.297 1.832,1.339 2.248,3.88 2.752,16.808 0.659,16.918 1.394,18.917 8.403,22.856 6.087,3.421 7.451,3.141 11.027,-2.264 l 3.128,-4.727 3.855,4.042 c 6.032,6.325 8.362,6.416 11.878,0.461 l 2.966,-5.021 -2.824,-2.222 c -2.694,-2.118 -2.825,-2.879 -2.825,-16.437 0,-19.047 -3.396,-25.932 -9.556,-19.374 -1.479,1.573 -3.645,3.164 -4.814,3.535 -2.009,0.638 -1.999,0.801 0.188,2.988 2.036,2.036 2.313,4.02 2.313,16.557 v 14.243 h -3.377 c -6.397,0 -7.825,-3.298 -8.541,-19.727 -0.598,-13.723 -0.848,-14.943 -3.62,-17.716 l -2.978,-2.978 -2.799,2.979 m 47.223,1.204 c -3.647,3.392 -4.083,4.282 -2.67,5.454 2.238,1.858 2.474,36.645 0.263,38.855 -1.107,1.108 -0.646,1.445 2.078,1.515 1.925,0.05 4.569,0.31 5.875,0.577 4.759,0.974 9.108,-0.631 7.114,-2.625 -1.419,-1.419 -1.773,-5.426 -1.773,-20.086 v -18.313 h 3.022 c 7.497,0 9.062,4.189 8.638,23.116 l -0.384,17.116 -4.09,4.216 c -4.976,5.13 -3.801,5.317 4.28,0.682 10.166,-5.83 11.61,-8.862 12.078,-25.355 0.46,-16.195 0.097,-18.299 -3.998,-23.165 -5.277,-6.272 -10.775,-7.163 -14.758,-2.391 l -3.312,3.967 -3.588,-3.84 c -4.317,-4.621 -3.479,-4.648 -8.775,0.277 m -71.677,10.383 c 3.333,4.759 2.639,25.855 -0.851,25.855 -6.887,0 -7.979,-2.45 -7.979,-17.902 v -14.207 l 3.488,1.805 c 1.919,0.992 4.323,2.994 5.342,4.449 m -42.065,13.986 c 0,11.078 -0.158,11.869 -2.374,11.869 -8.042,0 -10.055,-13.796 -2.926,-20.055 5.571,-4.892 5.3,-5.31 5.3,8.186 m 174.481,2.373 c 0,8.705 -0.198,9.496 -2.374,9.496 -7.222,0 -9.422,-9.955 -3.435,-15.548 5.327,-4.976 5.809,-4.474 5.809,6.052"
       stroke="none"
       fill="#000000"
       fill-rule="evenodd"
       style="fill:#ffffff" />
  </g>
</svg>
