<?xml version="1.0" encoding="UTF-8" standalone="no"?>
<svg
   id="svg"
   width="400"
   height="400"
   viewBox="0 0 400 400"
   version="1.1"
   sodipodi:docname="image2vector.svg"
   inkscape:export-filename="image2vector.svg"
   inkscape:export-xdpi="96"
   inkscape:export-ydpi="96"
   xmlns:inkscape="http://www.inkscape.org/namespaces/inkscape"
   xmlns:sodipodi="http://sodipodi.sourceforge.net/DTD/sodipodi-0.dtd"
   xmlns="http://www.w3.org/2000/svg"
   xmlns:svg="http://www.w3.org/2000/svg">
  <defs
     id="defs946" />
  <sodipodi:namedview
     id="namedview944"
     pagecolor="#ffffff"
     bordercolor="#000000"
     borderopacity="0.25"
     inkscape:showpageshadow="2"
     inkscape:pageopacity="0.0"
     inkscape:pagecheckerboard="0"
     inkscape:deskcolor="#d1d1d1"
     showgrid="false" />
  <g
     id="svgg"
     style="fill:#ffffff"
     inkscape:export-filename="svgg.svg"
     inkscape:export-xdpi="96"
     inkscape:export-ydpi="96">
    <path
       id="path0"
       d="M 171.111,40.772 C 46.054,62.968 -5.325,218.397 82.045,310.207 170.226,402.871 323.123,364.15 357.42,240.47 l 3.057,-11.026 0.353,-95.277 0.352,-95.278 -90.313,0.103 c -75.257,0.087 -91.888,0.383 -99.758,1.78 m 56.986,49.696 c 80.135,20.328 111.839,116.529 59.65,181.001 C 234.179,337.645 127.775,321.798 95.525,242.84 60.453,156.974 138.165,67.655 228.097,90.468 m -71.46,62.002 c -41.004,14.317 -43.321,72.377 -3.639,91.173 9.796,4.639 30.053,5.234 39.78,1.168 l 5.555,-2.323 0.317,-11.244 c 0.341,-12.124 -0.523,-13.706 -4.867,-8.904 -11.602,12.83 -38.632,6.887 -45.024,-9.898 -11.406,-29.956 18.773,-56.918 43.005,-38.421 6.965,5.316 7.125,5.154 7.125,-7.218 v -10.974 l -5.833,-2.574 c -8.799,-3.882 -26.458,-4.263 -36.419,-0.785 m 58.919,46.419 v 46.667 h 10.555 10.556 V 225.589 205.622 L 250.833,205.311 265,205 l 0.325,-8.611 0.324,-8.611 h -14.491 -14.491 v -9.445 -9.444 h 15.555 15.556 v -8.333 -8.334 h -26.111 -26.111 v 46.667"
       stroke="none"
       fill="#000000"
       fill-rule="evenodd"
       style="fill:#ffffff" />
  </g>
</svg>
