<?xml version="1.0" encoding="UTF-8" standalone="no"?>
<svg
   id="Layer_1"
   data-name="Layer 1"
   viewBox="0 0 638.34005 124.53631"
   version="1.1"
   sodipodi:docname="dane-hobrecht-logo-001.svg"
   inkscape:export-filename="dane-hobrecht-logo-001.svg"
   inkscape:export-xdpi="96"
   inkscape:export-ydpi="96"
   width="766.00806"
   height="149.44357"
   xmlns:inkscape="http://www.inkscape.org/namespaces/inkscape"
   xmlns:sodipodi="http://sodipodi.sourceforge.net/DTD/sodipodi-0.dtd"
   xmlns="http://www.w3.org/2000/svg"
   xmlns:svg="http://www.w3.org/2000/svg">
  <defs
     id="defs10" />
  <sodipodi:namedview
     id="namedview10"
     pagecolor="#ffffff"
     bordercolor="#000000"
     borderopacity="0.25"
     inkscape:showpageshadow="2"
     inkscape:pageopacity="0.0"
     inkscape:pagecheckerboard="0"
     inkscape:deskcolor="#d1d1d1" />
  <path
     d="m 272,122.11555 v -4.77 q -0.09,-44.490005 -0.19,-89.000005 c 0,-1.58 0,-3.16 -0.13,-4.74 -0.35,-6 -4.11,-9.77 -9.95,-10 -6.1,-0.19 -10.44,3.33 -10.66,9.53 -0.42,11.42 -0.35,22.84 -0.48,34.26 0,1.44 0,2.87 0,4.53 h -15.51 c -0.23,-0.39 -0.47,-0.59 -0.46,-0.79 0,-13 -0.28,-26 0.32,-39 0.57,-12.12 10.06,-21.46999968 22.46,-22.05999968 a 49,49 0 0 1 16.83,1.99999998 c 8.46,2.72 12.63,9.4899997 13.35,18.2599997 0.26,3.14 0.31,6.31 0.33,9.47 q 0.12,37.56 0.2,75.110005 v 4.1 h 18.83 v 13.1 z"
     fill="#ffffff"
     id="path1" />
  <path
     d="m 180.78,25.405545 v 36.53 h -16 V 1.5655453 h 16 L 209.4,37.895545 V 1.5955453 h 16.1 V 61.955545 h -15.93 z"
     fill="#ffffff"
     id="path2" />
  <path
     d="m 553.52,97.105545 v -35.3 h 15.83 v 60.330005 h -16 l -27.87,-35.450005 -0.75,0.21 V 122.15555 H 508.8 V 61.685545 h 15.78 l 28.17,35.8 z"
     fill="#ffffff"
     id="path3" />
  <path
     d="M 420.34,100.80555 H 408.1 V 88.805545 H 439 c 1.62,14.000005 -4.84,30.780005 -23.13,34.790005 -18.29,4.01 -34.54,-5.09 -39.21,-21.76 -4.85,-17.330005 3.44,-35.080005 19.24,-40.250005 15.8,-5.17 33.31,-1.05 40.1,15.26 l -14.2,5.9 c -2.44,-2.58 -4.32,-5.43 -6.94,-7.17 -6.62,-4.4 -15.63,-1.7 -19.75,5.47 -4.38,7.62 -3.91,17.45 1.15,24.060005 a 15.38,15.38 0 0 0 18.09,4.69 c 3.76,-1.63 5.65,-4.31 5.99,-8.99 z"
     fill="#ffffff"
     id="path4" />
  <path
     d="M 155.24,1.3155453 V 62.715545 c -10.44,-0.53 -20.94,0.08 -30.94,-1.86 -14.43,-2.84 -24.3,-18.26 -22.44,-32.4 2.14,-15.73 14.75,-27.0899997 30.27,-27.1299997 7.54,-0.02 15.09,-0.01 23.11,-0.01 z M 139.12,14.625545 c -7.67,-0.25 -14.27,0.89 -18.17,7.73 -3.74,6.55 -3.64,13.31 0.6,19.62 4.24,6.31 10.48,7.23 17.57,6.63 z"
     fill="#ffffff"
     id="path5" />
  <path
     d="M 18.53,25.775545 0,1.6155453 h 19.91 l 13.8,21.2099997 0.73,-0.18 V 1.5755453 H 50.51 V 62.225545 c -3.78,0 -7.52,0 -11.25,0 -5.6,-0.07 -11.22,0 -16.8,-0.37 -9,-0.67 -15.48,-6.6 -16.57,-15.18 -1.35,-10.66 3.48,-17.92 11.23,-19.98 a 5.77,5.77 0 0 0 1.41,-0.92 z m 15.85,9.18 c -4.4,0 -8.87,-0.42 -10.83,3.87 a 9.86,9.86 0 0 0 0.27,7.72 c 2.11,3.92 6.39,3.56 10.56,3.32 z"
     fill="#ffffff"
     id="path6" />
  <path
     d="m 498.41,61.745545 c 0,14.42 0.58,28.53 -0.2,42.560005 -0.56,10.18 -10.91,18.65 -22.07,19.39 a 51.08,51.08 0 0 1 -13.07,-0.71 c -10.28,-2 -16.91,-9.8 -17.19,-20.26 -0.34,-13.000005 -0.25,-26.000005 -0.33,-39.000005 a 15.76,15.76 0 0 1 0.29,-2 h 15.62 c 0.06,1.41 0.17,2.7 0.18,4 0,11.18 0,22.37 0.14,33.55 0.1,6.700005 3.8,10.540005 9.87,10.760005 6.4,0.23 10.56,-3.35 10.8,-10.150005 0.41,-11.17 0.36,-22.35 0.5,-33.53 0,-1.44 0,-2.88 0,-4.59 z"
     fill="#ffffff"
     id="path7" />
  <path
     d="m 334.33,61.605545 h 17.48 c 7.61,20.12 15.21,40.240005 22.92,60.620005 h -17.05 q -1.86,-4.83 -3.88,-10 h -21.87 l -4.08,10 H 311 c 7.76,-20.21 15.5,-40.300005 23.33,-60.620005 z m 8.67,19.17 c -2.31,6.76 -4.33,12.64 -6.42,18.74 h 12.81 c -2.16,-6.18 -4.15,-12.04 -6.39,-18.74 z"
     fill="#ffffff"
     id="path8" />
  <path
     d="m 638.34,122.22555 h -17.06 l -3.87,-10 h -21.88 c -1.31,3.24 -2.67,6.57 -4.07,10 h -16.9 L 597.9,61.725545 h 17.55 z M 613,99.565545 c -2.1,-6.18 -4.09,-12.06 -6.38,-18.81 -2.33,6.79 -4.35,12.72 -6.44,18.81 z"
     fill="#ffffff"
     id="path9" />
  <path
     d="m 95.06,62.015545 h -34.3 v -13.16 H 79 v -10.24 H 61.66 v -13.16 H 79 v -10.87 H 60.75 V 1.5155453 h 34.31 z"
     fill="#ffffff"
     id="path10" />
</svg>
