<?xml version="1.0" encoding="UTF-8" standalone="no"?>
<svg
   id="svg"
   version="1.1"
   width="400.01602"
   height="238.92107"
   viewBox="0 0 400.01602 238.92106"
   sodipodi:docname="image2vector.svg"
   xmlns:inkscape="http://www.inkscape.org/namespaces/inkscape"
   xmlns:sodipodi="http://sodipodi.sourceforge.net/DTD/sodipodi-0.dtd"
   xmlns="http://www.w3.org/2000/svg"
   xmlns:svg="http://www.w3.org/2000/svg">
  <defs
     id="defs242" />
  <sodipodi:namedview
     id="namedview240"
     pagecolor="#ffffff"
     bordercolor="#000000"
     borderopacity="0.25"
     inkscape:showpageshadow="2"
     inkscape:pageopacity="0.0"
     inkscape:pagecheckerboard="0"
     inkscape:deskcolor="#d1d1d1"
     showgrid="false" />
  <g
     id="svgg"
     style="fill:#ffffff"
     transform="translate(0.015,0.016)">
    <path
       id="path0"
       d="m 0.013,0.148 c 0.026,0.158 16.948,79.387 17.002,79.609 0.017,0.066 0.14,0.176 0.322,0.285 9.57,5.745 18.318,17.88 22.467,31.168 5.383,17.238 3.357,33.923 -5.579,45.948 l -0.536,0.72 8.651,40.502 c 4.757,22.276 8.66,40.512 8.673,40.525 0.013,0.013 7.294,-1.991 16.182,-4.451 8.887,-2.461 69.093,-19.134 133.791,-37.051 64.698,-17.917 135.944,-37.647 158.324,-43.844 22.379,-6.198 40.69,-11.29 40.691,-11.317 0,-0.026 -4.173,-11.095 -9.274,-24.597 l -9.274,-24.548 -0.258,-0.076 c -6.356,-1.859 -13.678,-7.156 -18.19,-13.16 -8.216,-10.932 -7.702,-22.563 1.358,-30.719 l 0.374,-0.336 -9.202,-24.379 -9.202,-24.379 H 256.312 C 206.8,0.048 128.871,0.034 83.137,0.016 L -0.015,-0.016 0.013,0.148 m 329.638,16.318 c 0.465,1.253 41.582,115.852 41.57,115.861 -0.009,0.006 -14.738,3.601 -32.732,7.988 -17.993,4.386 -33.365,8.135 -34.159,8.329 -1.412,0.346 -50.198,12.247 -56.194,13.709 -4.401,1.072 -10.774,2.626 -11.667,2.845 -0.596,0.145 -1.521,0.371 -2.057,0.501 -0.536,0.131 -1.418,0.346 -1.961,0.479 -0.542,0.132 -1.435,0.35 -1.984,0.484 -1.305,0.318 -2.707,0.66 -3.945,0.962 -0.55,0.134 -1.388,0.338 -1.865,0.454 -0.476,0.116 -8.378,2.043 -17.561,4.282 -16.469,4.017 -18.017,4.394 -19.725,4.811 -1.027,0.25 -1.422,0.346 -7.578,1.846 -2.606,0.635 -5.096,1.241 -5.533,1.348 -0.879,0.213 -26.461,6.452 -29.131,7.104 -23.07,5.632 -76.982,18.772 -76.991,18.765 C 68.132,206.228 59.585,167.492 49.144,120.155 38.704,72.818 29.777,32.344 29.306,30.214 c -0.471,-2.13 -0.85,-3.881 -0.842,-3.891 0.007,-0.009 1.86,-0.079 4.117,-0.155 2.257,-0.076 17.018,-0.572 32.803,-1.101 15.784,-0.53 71.955,-2.414 124.825,-4.187 52.87,-1.773 101.962,-3.42 109.093,-3.659 7.132,-0.239 16.647,-0.561 21.145,-0.715 4.499,-0.154 8.389,-0.283 8.645,-0.286 l 0.466,-0.006 0.093,0.252 m -6.654,3.338 c -1.746,0.062 -11.77,0.406 -22.275,0.763 -20.829,0.709 -198.348,6.746 -229.204,7.796 -35.441,1.205 -38.867,1.322 -38.882,1.338 -0.009,0.008 0.698,3.25 1.571,7.204 21.55,97.661 36.466,165.225 36.479,165.238 0.01,0.01 7.02,-1.69 15.58,-3.777 26.934,-6.568 63.585,-15.505 67.09,-16.36 1.852,-0.452 3.714,-0.906 4.137,-1.009 0.424,-0.103 4.765,-1.161 9.647,-2.352 4.882,-1.19 9.234,-2.251 9.67,-2.358 0.437,-0.106 2.71,-0.661 5.052,-1.233 3.965,-0.969 4.899,-1.197 6.976,-1.702 0.91,-0.221 3.34,-0.814 5.34,-1.303 0.755,-0.185 1.87,-0.456 2.478,-0.604 0.609,-0.148 4.614,-1.125 8.901,-2.17 4.287,-1.046 8.281,-2.02 8.876,-2.165 2.862,-0.697 2.999,-0.731 6.664,-1.624 1.032,-0.252 2.331,-0.568 2.887,-0.704 0.555,-0.136 3.673,-0.896 6.928,-1.69 7.789,-1.899 7.754,-1.891 8.756,-2.135 0.476,-0.116 2.652,-0.646 4.835,-1.179 2.183,-0.533 4.402,-1.074 4.932,-1.203 0.529,-0.129 1.449,-0.353 2.044,-0.498 0.596,-0.145 3.183,-0.776 5.75,-1.401 2.567,-0.626 11.237,-2.74 19.268,-4.697 8.032,-1.958 17.525,-4.272 21.097,-5.143 13.38,-3.261 23.345,-5.69 25.139,-6.129 1.019,-0.249 11.335,-2.763 22.925,-5.588 11.59,-2.824 21.09,-5.15 21.112,-5.169 0.021,-0.019 -1.582,-4.547 -3.562,-10.061 -1.98,-5.514 -10.885,-30.317 -19.788,-55.118 l -16.189,-45.092 -0.529,0.006 c -0.291,0.003 -1.958,0.056 -3.705,0.119 M 210.072,46.777 c 1.555,5.457 6.027,21.127 9.937,34.82 3.91,13.694 7.106,24.903 7.103,24.909 -0.006,0.01 -10.266,1.69 -12.005,1.966 -0.41,0.065 -1.003,0.162 -1.317,0.215 -0.314,0.054 -0.577,0.091 -0.583,0.083 -0.007,-0.007 -0.267,-0.923 -0.578,-2.034 -0.311,-1.112 -0.58,-2.049 -0.598,-2.083 -0.02,-0.038 -0.125,0.145 -0.264,0.457 -2.951,6.65 -9.186,8.313 -14.636,3.903 -2.654,-2.147 -4.116,-5.104 -6.076,-12.285 -3.616,-13.246 -8.493,-31.387 -8.828,-32.836 -1.223,-5.283 -1.266,-7.456 -0.192,-9.716 1.22,-2.565 3.2,-3.887 6.145,-4.103 3.18,-0.233 6.237,1.01 9.547,3.883 0.255,0.221 0.552,1.372 -2.084,-8.061 -1.259,-4.502 -2.274,-8.2 -2.257,-8.217 0.031,-0.031 12.828,-0.808 13.495,-0.819 l 0.362,-0.005 2.829,9.923 m 112.949,-5.855 c 0,0.048 0.597,2.661 4.288,18.785 5.86,25.594 6.081,26.665 6.079,29.372 -0.005,4.24 -1.839,6.594 -6.253,8.026 -1.674,0.543 -2.95,0.821 -7.433,1.624 -1.919,0.343 -4.156,0.744 -4.972,0.89 -0.816,0.146 -1.506,0.259 -1.532,0.25 -0.054,-0.018 -2.691,-7.976 -2.66,-8.026 0.011,-0.019 0.134,-0.048 0.274,-0.066 2.053,-0.268 3.872,-0.848 4.206,-1.341 0.458,-0.674 0.231,-1.304 -1.884,-5.233 -0.193,-0.359 -4.259,-8.077 -9.035,-17.152 -4.777,-9.075 -9.66,-18.35 -10.852,-20.613 -1.192,-2.262 -2.152,-4.118 -2.133,-4.124 0.018,-0.005 1.04,-0.087 2.271,-0.18 8.369,-0.637 9.815,-0.749 10.021,-0.773 l 0.231,-0.027 0.566,1.169 c 0.311,0.643 3.844,7.949 7.852,16.235 4.007,8.287 7.292,15.061 7.299,15.054 0.007,-0.007 -0.714,-2.706 -1.603,-5.998 -1.559,-5.776 -6.836,-25.338 -7.133,-26.444 l -0.146,-0.541 0.129,-0.002 c 0.07,-0.002 2.748,-0.205 5.949,-0.452 5.636,-0.435 6.471,-0.491 6.471,-0.433 m -44.767,2.573 c 4.47,0.241 7.788,1.46 10.807,3.97 3.161,2.627 4.487,5.321 8.662,17.606 1.079,3.175 9.334,28.369 9.305,28.399 -0.014,0.014 -2.446,0.42 -5.403,0.904 -2.958,0.483 -5.638,0.924 -5.955,0.978 -1.212,0.209 -2.117,0.337 -2.147,0.304 -0.018,-0.019 -0.353,-1.023 -0.745,-2.232 -0.392,-1.209 -0.727,-2.189 -0.745,-2.178 -0.018,0.011 -0.047,0.145 -0.065,0.298 -0.524,4.428 -4.152,7.064 -9.028,6.56 -5.6,-0.578 -8.379,-3.542 -10.911,-11.634 -2.19,-7 -2.513,-8.393 -2.444,-10.526 0.054,-1.674 0.456,-2.509 1.91,-3.967 1.282,-1.285 2.584,-2.268 6.013,-4.54 3.208,-2.125 4.704,-3.46 4.754,-4.241 0.095,-1.488 -1.874,-7.596 -2.969,-9.207 -0.88,-1.296 -2.536,-1.713 -3.396,-0.854 -0.618,0.618 -0.497,1.184 1.86,8.703 0.504,1.609 0.909,2.932 0.899,2.94 -0.01,0.009 -2.312,0.269 -5.117,0.579 -2.805,0.31 -5.533,0.613 -6.062,0.674 -0.53,0.06 -1.137,0.124 -1.35,0.14 l -0.386,0.031 -0.198,-0.638 c -0.108,-0.35 -0.385,-1.244 -0.615,-1.984 -2.437,-7.857 -2.644,-11.444 -0.831,-14.451 2.263,-3.754 5.938,-5.472 12.088,-5.652 0.238,-0.007 0.595,-0.017 0.794,-0.022 0.198,-0.005 0.772,0.013 1.275,0.04 M 62.738,47.053 c 1.331,5.876 4.163,18.186 4.184,18.186 0.014,0 0.134,-0.297 0.266,-0.66 1.479,-4.054 3.923,-5.956 7.65,-5.951 4.071,0.006 7.147,1.997 9.57,6.197 1.044,1.811 1.495,3.097 2.579,7.366 0.6,2.359 7.54,31.732 8.76,37.07 0.814,3.566 1.314,6.32 1.638,9.021 0.582,4.861 -1.332,9.43 -4.65,11.102 -3.695,1.862 -7.912,0.416 -11.696,-4.008 -0.204,-0.238 -0.378,-0.424 -0.388,-0.414 -0.01,0.01 0.048,1.204 0.128,2.654 0.081,1.45 0.136,2.647 0.122,2.661 -0.013,0.013 -2.314,0.398 -5.113,0.854 -2.798,0.456 -5.723,0.933 -6.499,1.06 -1.029,0.169 -1.419,0.216 -1.444,0.176 -0.019,-0.031 -0.754,-3.256 -1.633,-7.166 -0.88,-3.911 -5.245,-23.327 -9.702,-43.147 -4.456,-19.819 -8.097,-36.04 -8.092,-36.045 0.068,-0.068 13.868,-0.801 13.898,-0.738 0.019,0.041 0.209,0.843 0.422,1.782 m 196.391,-1.279 c 0,0.037 1.982,9.914 6.424,32.013 2.401,11.942 4.35,21.727 4.333,21.744 -0.017,0.017 -2.797,0.481 -6.176,1.031 -3.379,0.549 -6.729,1.095 -7.443,1.214 -0.715,0.119 -1.312,0.2 -1.327,0.182 -0.063,-0.075 -4.904,-11.599 -4.904,-11.673 0,-0.011 -0.754,-1.857 -1.676,-4.102 -0.922,-2.244 -2.237,-5.459 -2.923,-7.143 -0.685,-1.684 -1.253,-3.056 -1.26,-3.049 -0.008,0.007 0.159,0.844 0.37,1.859 0.469,2.259 1.002,5.019 1.418,7.356 0.389,2.181 2.971,17.714 2.949,17.737 -0.009,0.009 -2.808,0.471 -6.219,1.028 -3.411,0.556 -6.794,1.11 -7.517,1.231 -0.723,0.12 -1.322,0.212 -1.331,0.203 -0.008,-0.009 -0.528,-1.316 -1.154,-2.903 -1.164,-2.95 -10.843,-27.432 -17.358,-43.902 -1.994,-5.041 -3.602,-9.171 -3.574,-9.177 0.156,-0.036 11.728,-0.932 11.75,-0.91 0.012,0.012 0.282,0.689 0.602,1.506 2.945,7.535 11.844,30.085 11.864,30.065 0.016,-0.015 -1.775,-9.349 -2.418,-12.607 -1.149,-5.818 -3.784,-19.424 -3.765,-19.442 0.043,-0.043 11.359,-0.888 11.392,-0.851 0.019,0.021 0.342,0.817 0.718,1.77 1.718,4.345 11.512,28.917 11.535,28.939 0.014,0.013 0.012,-0.02 -0.004,-0.072 -0.734,-2.414 -3.18,-13.85 -4.405,-20.592 -0.601,-3.309 -1.805,-10.506 -1.764,-10.548 0.038,-0.04 11.863,-0.943 11.863,-0.907 m -94.443,6.472 c 3.907,0.533 6.786,1.96 9.553,4.736 3.172,3.182 4.427,6.185 8.2,19.612 0.929,3.306 9.623,35.441 9.622,35.567 0,0.042 -1.607,0.322 -5.376,0.939 -2.957,0.484 -5.625,0.92 -5.93,0.971 -1.291,0.213 -2.216,0.352 -2.231,0.334 -0.009,-0.011 -0.338,-1.226 -0.73,-2.701 -0.392,-1.475 -0.719,-2.676 -0.726,-2.669 -0.007,0.007 -0.047,0.251 -0.09,0.541 -0.332,2.271 -1.128,4.149 -2.276,5.37 -2.516,2.674 -7.494,2.767 -11.363,0.212 -2.388,-1.578 -4.338,-5.164 -5.844,-10.749 -3.1,-11.504 -3.455,-14.597 -1.966,-17.129 0.928,-1.579 2.84,-3.455 5.855,-5.747 4.345,-3.303 5.92,-4.823 6.045,-5.832 0.21,-1.697 -1.768,-9.142 -2.977,-11.203 -0.768,-1.309 -2.098,-1.804 -3.079,-1.145 -0.936,0.629 -0.778,1.65 1.72,11.124 0.422,1.6 0.759,2.918 0.749,2.928 -0.01,0.01 -0.771,0.102 -1.692,0.204 -4.552,0.504 -8.753,0.972 -9.66,1.075 -0.958,0.108 -1.564,0.165 -1.564,0.146 0,-0.004 -0.258,-0.991 -0.573,-2.193 -2.636,-10.044 -2.878,-14.13 -1.059,-17.872 1.965,-4.044 5.436,-6.192 10.677,-6.608 1.014,-0.081 3.863,-0.027 4.715,0.089 m -35.346,2.571 c 5.571,0.748 9.942,3.621 13.444,8.835 1.893,2.818 3.169,5.994 4.677,11.643 0.313,1.169 4.842,18.876 5.083,19.87 1.594,6.57 2.124,10.267 1.898,13.23 -0.592,7.758 -4.61,12.123 -12.128,13.176 -1.453,0.204 -1.738,0.223 -3.392,0.222 -8.387,-0.004 -13.138,-4.764 -16.672,-16.703 -0.801,-2.705 -1.013,-3.535 -3.649,-14.303 -3.551,-14.5 -4.038,-16.946 -4.293,-21.547 -0.47,-8.493 3.297,-13.63 10.59,-14.439 0.251,-0.028 0.533,-0.059 0.625,-0.069 0.447,-0.051 3.279,0.013 3.817,0.085 m -20.128,2.616 c 0.192,0.787 0.413,1.702 0.491,2.033 0.078,0.331 1.191,4.909 2.473,10.173 1.583,6.506 2.313,9.582 2.277,9.604 -0.03,0.018 -0.197,0.047 -0.373,0.065 -4.437,0.454 -6.498,2.888 -5.951,7.028 0.392,2.978 0.779,4.683 5.552,24.513 1.774,7.37 3.232,13.441 3.24,13.491 0.013,0.086 -0.36,0.153 -5.519,0.995 -3.043,0.496 -6.165,1.006 -6.938,1.132 -0.773,0.126 -1.419,0.216 -1.436,0.2 -0.016,-0.016 -3.547,-14.921 -7.846,-33.122 -4.299,-18.201 -7.895,-33.422 -7.991,-33.825 -0.097,-0.403 -0.166,-0.741 -0.154,-0.751 0.075,-0.065 13.805,-1.066 13.805,-1.007 0,0.035 0.151,0.87 1.066,5.882 0.576,3.161 0.538,3.021 0.613,2.261 0.517,-5.28 2.173,-8.514 4.966,-9.701 0.347,-0.147 1.158,-0.392 1.323,-0.4 0.031,-10e-4 0.2,0.6 0.402,1.429 m 88.07,2.464 c -1.35,0.208 -1.526,1.171 -0.766,4.207 0.218,0.871 8.307,30.061 8.687,31.349 1.072,3.629 1.873,4.728 3.261,4.473 1.597,-0.294 1.73,-1.318 0.703,-5.435 -0.416,-1.668 -8.328,-30.001 -8.672,-31.054 -0.945,-2.893 -1.739,-3.768 -3.213,-3.54 m -68.511,6.19 c -1.537,0.388 -1.574,1.425 -0.247,6.874 0.855,3.508 7.742,31.12 7.975,31.97 1.136,4.153 1.777,5.226 3.121,5.218 1.636,-0.01 1.881,-1.123 1.062,-4.833 -0.505,-2.289 -8.303,-33.303 -8.837,-35.145 -0.802,-2.768 -1.321,-3.703 -2.225,-4.009 -0.188,-0.064 -0.71,-0.11 -0.849,-0.075 m -58.757,5.342 c -1.225,0.376 -1.232,1.724 -0.036,7.209 0.426,1.955 7.354,32.142 7.702,33.558 1.378,5.616 2.123,6.95 3.736,6.69 1.641,-0.265 1.693,-1.775 0.279,-8.157 -1.946,-8.786 -7.749,-33.624 -8.252,-35.325 -0.982,-3.319 -1.942,-4.432 -3.429,-3.975 m 214.888,0.489 c -1.508,2.147 -2.044,3.539 -1.911,4.964 0.263,2.821 2.239,8.941 3.322,10.288 0.731,0.908 1.971,1.141 2.947,0.552 0.985,-0.594 0.887,-1.23 -1.197,-7.76 -0.57,-1.787 -1.418,-4.444 -1.885,-5.906 -0.466,-1.462 -0.862,-2.658 -0.88,-2.658 -0.017,0 -0.196,0.234 -0.396,0.52 M 170.116,85.866 c -1.444,2.344 -2.036,3.958 -2.026,5.522 0.018,2.938 2.128,11.051 3.326,12.789 0.694,1.007 1.965,1.301 2.891,0.669 1.001,-0.684 0.904,-1.401 -1.343,-9.946 -0.48,-1.826 -1.23,-4.683 -1.666,-6.351 -0.436,-1.667 -0.809,-3.069 -0.828,-3.116 -0.027,-0.066 -0.107,0.032 -0.354,0.433 m 106.773,22.098 c 2.264,0.224 3.854,0.876 5.159,2.115 1.443,1.37 1.572,1.728 4.865,13.541 2.251,8.076 2.578,9.474 2.573,10.987 -0.01,2.639 -1.892,4.366 -6.181,5.667 -1.313,0.398 -3.243,0.862 -9.093,2.187 -2.937,0.666 -6.033,1.367 -6.88,1.56 -1.367,0.311 -1.543,0.341 -1.575,0.272 -0.039,-0.084 -0.412,-1.481 -5.016,-18.77 -1.631,-6.126 -3.18,-11.938 -3.441,-12.917 -0.261,-0.978 -0.469,-1.784 -0.464,-1.789 0.018,-0.018 8.238,-1.535 9.726,-1.794 3.214,-0.561 5.892,-0.927 7.867,-1.076 0.517,-0.038 2.003,-0.029 2.46,0.017 m -29.369,4.918 c 0.052,0.192 1.661,6.308 3.578,13.591 3.182,12.096 3.492,13.243 3.58,13.242 0.054,-0.001 1.548,-0.323 3.321,-0.717 1.835,-0.407 3.235,-0.695 3.251,-0.67 0.059,0.095 1.783,6.642 1.755,6.669 -0.015,0.016 -3.292,0.77 -7.28,1.675 -3.989,0.906 -7.923,1.799 -8.742,1.986 -0.82,0.187 -1.495,0.334 -1.501,0.329 -0.011,-0.012 -0.632,-2.403 -2.063,-7.948 -0.465,-1.799 -0.929,-3.596 -1.032,-3.993 -0.103,-0.397 -0.989,-3.829 -1.969,-7.626 -0.98,-3.797 -2.246,-8.701 -2.814,-10.897 -0.567,-2.196 -1.022,-4.002 -1.012,-4.013 0.024,-0.024 10.593,-1.967 10.732,-1.973 0.088,-0.003 0.117,0.047 0.196,0.345 m 23.034,1.335 c -0.334,0.035 -1.333,0.189 -1.352,0.209 -0.004,0.004 1.328,4.929 2.959,10.944 l 2.965,10.936 0.168,-0.031 c 1.17,-0.218 2.376,-0.84 2.605,-1.344 0.194,-0.428 0.098,-1.538 -0.272,-3.129 -0.355,-1.53 -3.89,-14.466 -4.266,-15.612 -0.575,-1.753 -1.135,-2.146 -2.807,-1.973 m -43.491,2.744 c 4.195,0.396 6.736,3.225 7.906,8.803 0.898,4.281 0.128,5.754 -3.703,7.081 l -0.739,0.256 0.697,0.034 c 2.48,0.121 3.552,0.412 4.715,1.28 1.203,0.898 1.469,1.327 2.094,3.382 0.35,1.154 3.216,12.112 3.178,12.154 -0.005,0.006 -1.578,0.368 -3.495,0.805 -1.916,0.436 -4.188,0.955 -5.048,1.152 -0.859,0.197 -1.567,0.354 -1.572,0.349 -0.009,-0.009 -0.671,-2.609 -2.064,-8.115 -1.213,-4.789 -1.324,-5.182 -1.71,-6.011 -0.404,-0.867 -0.723,-1.123 -1.491,-1.197 -0.54,-0.053 -2.077,0.085 -2.187,0.195 -0.007,0.007 0.891,3.585 1.995,7.952 1.105,4.366 2.004,7.944 1.999,7.952 -0.008,0.011 -1.648,0.387 -9.439,2.161 -0.773,0.176 -1.415,0.311 -1.425,0.3 -0.01,-0.012 -0.378,-1.472 -0.817,-3.245 -0.439,-1.773 -1.633,-6.579 -2.654,-10.681 -1.021,-4.101 -2.658,-10.679 -3.638,-14.618 -0.98,-3.938 -1.775,-7.168 -1.765,-7.178 0.027,-0.027 9.084,-1.674 10.551,-1.919 4.577,-0.763 7.151,-1.03 8.612,-0.892 m -30.73,4.787 c 3.538,0.369 6.407,1.96 8.067,4.473 0.948,1.436 1.574,3.423 3.441,10.921 2.869,11.524 3.094,12.919 2.456,15.193 -1.11,3.953 -4.96,6.792 -10.802,7.968 -4.928,0.991 -9.032,0.087 -11.686,-2.575 -1.842,-1.848 -2.335,-3.243 -4.817,-13.634 -2.729,-11.422 -2.894,-12.625 -2.071,-15.084 1.37,-4.093 5.947,-6.807 12.319,-7.305 0.623,-0.048 2.46,-0.023 3.093,0.043 m 25.005,1.837 c -0.285,0.027 -1.042,0.149 -1.065,0.172 -0.017,0.018 1.951,7.875 1.983,7.917 0.022,0.028 0.693,-0.133 1.198,-0.288 1.926,-0.59 2.05,-1.056 1.195,-4.492 -0.752,-3.015 -1.24,-3.504 -3.311,-3.309 m -44.865,2 c 0,0.07 0.465,4.557 2.505,24.177 0.799,7.681 1.439,13.979 1.423,13.995 -0.016,0.016 -2.156,0.513 -4.757,1.104 -7.495,1.703 -8.571,1.948 -8.657,1.972 -0.059,0.016 -0.107,-0.035 -0.174,-0.184 -2.675,-5.947 -4.888,-11.28 -7.323,-17.647 -0.575,-1.503 -0.654,-1.669 -0.606,-1.275 0.048,0.401 1.577,20.576 1.56,20.587 -0.009,0.006 -1.715,0.396 -3.793,0.866 -2.077,0.47 -5.095,1.157 -6.707,1.525 -1.612,0.368 -2.935,0.664 -2.94,0.657 -0.048,-0.063 -13.692,-37.911 -13.673,-37.93 0.027,-0.027 10.485,-1.949 10.503,-1.931 0.006,0.007 0.296,0.921 0.645,2.033 0.559,1.78 7.425,23.55 7.564,23.983 0.113,0.353 0.082,0.019 -0.126,-1.351 -0.946,-6.241 -1.763,-13.772 -2.53,-23.306 -0.102,-1.27 -0.171,-2.323 -0.153,-2.339 0.018,-0.017 2.49,-0.479 5.493,-1.027 3.003,-0.548 5.505,-1.007 5.56,-1.019 0.092,-0.021 0.165,0.175 0.978,2.638 4.055,12.275 7.865,23.742 7.901,23.781 0.027,0.028 0.034,-0.009 0.018,-0.096 -0.531,-2.897 -1.621,-10.699 -2.185,-15.635 -0.477,-4.183 -1.142,-11.603 -1.048,-11.697 0.03,-0.03 10.246,-1.926 10.438,-1.938 0.047,-0.003 0.084,0.023 0.084,0.057 m 15.885,2.607 c -1.228,0.279 -1.446,1.05 -0.965,3.417 0.126,0.623 4.342,17.995 4.658,19.197 0.717,2.724 1.039,3.225 2.073,3.222 1.835,-0.006 2.117,-0.896 1.365,-4.305 -0.198,-0.897 -4.382,-18.048 -4.593,-18.829 -0.657,-2.424 -1.203,-3.005 -2.538,-2.702"
       stroke="none"
       fill="#000000"
       fill-rule="evenodd"
       style="fill:#ffffff" />
  </g>
</svg>
